<svg xmlns="http://www.w3.org/2000/svg" xmlns:xlink="http://www.w3.org/1999/xlink" viewBox="0 0 191.81 114.29153"><defs><style>.cls-1,.cls-10,.cls-13,.cls-14,.cls-9{fill:none;}.cls-2{clip-path:url(#clip-path);}.cls-3{fill:#a896c8;}.cls-4{fill:#fbfcf0;}.cls-5{fill:#5a489d;}.cls-6{fill:#6a5da8;}.cls-7{fill:#010101;}.cls-8{fill:#312561;}.cls-10,.cls-13,.cls-9{stroke:#010101;}.cls-10,.cls-13,.cls-14,.cls-9{stroke-miterlimit:10;}.cls-9{stroke-width:0.34626px;}.cls-10{stroke-width:0.17313px;}.cls-11{fill:#494161;}.cls-12{fill:#f59193;}.cls-13{stroke-width:0.08657px;}.cls-14{stroke:#312561;stroke-width:0.69253px;}</style><clipPath id="clip-path"><path class="cls-1" d="M127.39,57.97c-9.8,5.79-19.24,7.52-47.74,7.96008C44.2,66.47,18.14,66.87,0,64.7V9.86A9.85428,9.85428,0,0,1,9.86,0H162.31C163.61,20.26,147.62,46.02991,127.39,57.97Z"/></clipPath></defs><title>community manager</title><g id="Layer_1" data-name="Layer 1"><g class="cls-2"><rect class="cls-3" x="-26.26245" y="-52.52227" width="195.53684" height="149.11261" rx="74.55623"/><path class="cls-4" d="M9.93067,23.82526c-.03778,4.19137,4.05947,7.71656,7.698,7.78547A5.5939,5.5939,0,0,0,21.915,29.94866a4.71766,4.71766,0,0,0,.96229-2.44936c.43989-2.85574,1.04179-6.76325-1.837-9.01014a7.20425,7.20425,0,0,0-9.01017.52486A6.9216,6.9216,0,0,0,9.93067,23.82526Z"/><path class="cls-5" d="M16.39884,35.09731s-7.081,3.68654-6.46843,13.309,1.7498,16.35822,1.7498,16.35822l15.83337-1.31215S28.73826,43.58537,24.102,37.773c0,0-2.038-2.80509-4.037-3.259A5.326,5.326,0,0,0,16.39884,35.09731Z"/><path class="cls-6" d="M35.23159,31.74672s-4.845,1.01515-6.84012,4.56817-5.49416,19.99847-3.65714,22.63786l4.19891-1.11666L28.84576,53.877l.08748,3.95909.79137,6.8015,12.3302-2.63939s1.43312-28.52573-4.13842-30.25148S35.23159,31.74672,35.23159,31.74672Z"/><path class="cls-7" d="M21.04029,18.48915s-7.57786,2.16576-7.18421,4.1104a12.3224,12.3224,0,0,1-.01484,4.10119l-3.81553-1.7142a6.90684,6.90684,0,0,1,11.01458-6.49739Z"/><path class="cls-4" d="M19.79864,31.3107l.36685,4.41145s-2.68934,1.97039-3.57533.63529l-.76624-5.04674Z"/><path class="cls-8" d="M.75092,38.7361A11.90713,11.90713,0,0,0-5.7175,50.35577,134.87966,134.87966,0,0,0-3.9677,64.63759L11.86566,63.492s1.22468-17.34524-3.41161-22.41983c0,0-2.038-2.449-4.03694-2.84533A5.96871,5.96871,0,0,0,.75092,38.7361Z"/><path class="cls-8" d="M157.74661,63.9639c0,.92344-.03782,1.83931-.11353,2.74256a33.02007,33.02007,0,0,1-26.94625,29.72665c-.17155.03028-.34562.06055-.51724.0883a33.158,33.158,0,0,1-5.42457.44406H19.50838A32.97674,32.97674,0,0,1-13.49319,63.9639a.562.562,0,0,1,.15137-.38351.06724.06724,0,0,1,.01262-.01513.56087.56087,0,0,1,.39612-.164H157.184a.56174.56174,0,0,1,.56264.56265Z"/><rect class="cls-6" x="36.08246" y="72.36007" width="28.75354" height="18.04018"/><path class="cls-3" d="M9.82847,76.28319V91.641H2.002A33.11367,33.11367,0,0,1-10.90348,76.28319Z"/><path class="cls-5" d="M130.80648,78.69776V96.20525c-.17155.03027-.34563.06055-.51724.0883a33.15916,33.15916,0,0,1-5.42457.44406H102.05374V78.69776Z"/><path class="cls-3" d="M154.28858,78.69776a33.07927,33.07927,0,0,1-23.4821,17.50749c-.17155.03027-.34563.06055-.51724.0883V78.69776Z"/><rect class="cls-6" x="122.25677" y="66.47845" width="19.47534" height="12.21897"/><path class="cls-5" d="M157.75273,66.4786a32.79183,32.79183,0,0,1-3.46415,12.21916H141.77672V66.4786Z"/><polygon class="cls-4" points="28.933 54.122 29.725 63.485 25.322 64.934 24.734 55.659 28.933 54.122"/><path class="cls-4" d="M65.08618,9.07889a10.23864,10.23864,0,0,0,7.35136,6.79654,6.37391,6.37391,0,0,0,4.85468-.69352c1.94782-1.35917,2.23311-3.82475,2.49668-6.103.30553-2.64084.61816-5.3431-.971-7.62876-2.43882-3.50772-8.71757-5.115-12.206-2.08057C62.94547,2.55883,64.93463,8.63736,65.08618,9.07889Z"/><path class="cls-7" d="M75.21165,1.10337a13.51017,13.51017,0,0,1-3.9531,1.4564c-2.47305.48717-3.64208-.02455-4.36922.83223-.96994,1.14288.51374,2.75619-.55481,4.716a3.40544,3.40544,0,0,1-2.2886,1.73381c-1.96721.15587-4.03514-2.69394-3.60633-4.57726.33332-1.46406,1.97217-1.45092,2.358-3.0515C63.18041.625,61.77908-.26725,61.75727-1.74008c-.03681-2.4883,3.23736-4.70458,5.89494-5.40948.48162-.12774,4.10489-1.08879,6.38044.83223C75.48545-5.09088,75.03927-3.829,76.46-2.98842c1.94206,1.14907,3.64887-.6921,5.27079.34676,1.65668,1.06111,2.18535,4.46115.69349,6.58848-.29342.41842-.95693,1.48129-2.01122,1.5951-1.40187.15134-2.7439-1.43408-4.23048-3.19021C75.75568,1.84743,75.4288,1.40793,75.21165,1.10337Z"/><path class="cls-9" d="M104.48961,41.27978A29.61408,29.61408,0,0,0,93.9615,23.87484a28.92136,28.92136,0,0,0-13.93365-5.83627l-2.55716.09.277,4.614c-2.197,2.68528-6.91315.44842-6.91315.44842V18.36405l-3.27048.116a27.8876,27.8876,0,0,0-12.68018,7.55721,28.76915,28.76915,0,0,0-7.64722,19.08085H59.645c-.54188,4.2954-1.205,10.36022-.72021,10.916.76007.86912,36.34382-2.38576,36.34382-2.38576l-3.11637-11.399Q98.32006,41.76368,104.48961,41.27978ZM59.6554,45.03848c.2545-2.02565.48131-3.641.54361-4.07553Z"/><path class="cls-10" d="M59.6554,45.03848c.2545-2.02565.48131-3.641.54361-4.07553Z"/><path class="cls-4" d="M77.74768,22.74255c-2.197,2.68528-6.91315.44842-6.91315.44842v-7.7944l6.45783-.21468.17833,2.94671Z"/><path class="cls-4" d="M37.99442,15.44655c-.29757-.1876-4.14413-2.54369-6.56079-.69982-2.32481,1.77377-1.271,5.86608-1.13719,6.38583a9.61291,9.61291,0,0,0,3.93647,5.24863c1.49816,1.144,2.88444,2.20251,4.37386,1.837,2.08916-.51265,2.97959-3.48314,3.14917-5.16115A8.22769,8.22769,0,0,0,37.99442,15.44655Z"/><path class="cls-7" d="M35.72,18.59572c2.656-2.30266,5.73926-1.6863,6.1234-3.41161.32339-1.45262-1.61982-2.97858-1.837-3.14917-3.005-2.35977-9.391-2.63654-12.33425,1.57458-2.25506,3.22643-1.27917,7.356.26241,9.71.44787.68386,1.867,2.85091,3.32416,2.62432C33.226,25.63787,32.485,21.40036,35.72,18.59572Z"/><path class="cls-4" d="M117.75338,22.5497c.144.78144,1.36852,6.93459,6.12339,8.74772a5.63943,5.63943,0,0,0,3.41162.34991c3.20975-.78945,5.70173-5.08738,4.89871-9.01015-.75669-3.69651-4.44614-7.09348-8.48528-6.38583A7.70846,7.70846,0,0,0,117.75338,22.5497Z"/><path class="cls-11" d="M125.04613,33.52s-4.406.05185-6.15557,3.28851-8.74771,20.907-6.21087,25.45585,22.30667-8.66024,22.30667-8.66024S132.08015,35.74252,128.76575,33.52,125.04613,33.52,125.04613,33.52Z"/><path class="cls-8" d="M120.28258,35.15935s-2.35339,10.01845-3.92885,11.00918-2.36189-.26243-2.012-1.57459S119.637,35.60968,120.28258,35.15935Z"/><path class="cls-4" d="M47.01751,45.31562s-.73227,7.28221,0,9.72317,23.6838,8.62474,23.59919,9.76386,3.45642-5.53286,3.45642-5.53286-8.42295-4.55646-12.97941-5.37012-1.668-8.584-1.668-8.584"/><path class="cls-4" d="M104.49017,41.45349s.40682,7.41061-.32545,9.85157S79.9568,62.7382,80.0414,63.87732s-2.49309-5.31424-2.49309-5.31424S85.53205,50.9796,90.08852,50.166s2.06386-7.74421,2.06386-7.74421"/><path class="cls-9" d="M89.664,21.09862S66.95631,37.03545,73.40045,55.47083"/><path class="cls-9" d="M80.95651,54.88108s-16.7266-23.03291-29.58574-9.87684"/><path class="cls-9" d="M63.07518,54.13585s12.877-23.75664,1.89844-34.79707"/><path class="cls-9" d="M50.13242,32.91731S84.617,56.20244,95.418,25.09914"/><path class="cls-9" d="M58.32408,22.993s10.68338,17.14724,45.29744,14.93833"/><ellipse class="cls-7" cx="69.66134" cy="7.27253" rx="0.25553" ry="0.51107"/><ellipse class="cls-7" cx="75.15531" cy="7.05498" rx="0.25553" ry="0.51107"/><path class="cls-10" d="M72.21668,12.86836a1.34721,1.34721,0,0,0,2.172,0"/><path class="cls-10" d="M68.57533,5.82845a1.19534,1.19534,0,0,1,1.661-.25553"/><path class="cls-10" d="M74.32482,5.82845a1.19536,1.19536,0,0,1,1.661-.25553"/><ellipse class="cls-12" cx="69.78911" cy="10.05749" rx="1.02213" ry="0.3833"/><ellipse class="cls-12" cx="75.41084" cy="10.05749" rx="1.02213" ry="0.3833"/><path class="cls-13" d="M72.12472,9.67419s-.34625.15234-.28247.3833,2.05389.33764,2.07575,0a.33521.33521,0,0,0-.26243-.3833"/><path class="cls-7" d="M126.55634,18.78761c-1.36561-.70555-2.83879,1.32024-5.861,2.012-1.50189.34376-4.23036.55124-4.81121-.52486-.76764-1.42214,2.04186-5.40781,5.861-6.56079a8.95758,8.95758,0,0,1,7.34808,1.04973c3.23287,2.23767,4.50342,6.73348,3.49908,7.61051-.79491.69415-3.56561-.39761-4.98621-2.18692C126.98414,19.40392,127.07067,19.05333,126.55634,18.78761Z"/><rect class="cls-8" x="122.77293" y="48.67049" width="16.13956" height="11.39223"/><path class="cls-14" d="M128.76575,48.67049a1.75439,1.75439,0,0,1,1.89253-1.89253,2.09015,2.09015,0,0,1,2.08125,2.08124"/><path class="cls-10" d="M8.87048,59.98325c25.24085,6.7717,31.94216-11.87673,35.28345-8.64615,3.63881,3.51826.61517,9.72532,4.46131,14.43374,7.45376,9.12483,29.51932,7.19548,32.01663.52486,1.207-3.2241-1.83775-8.46-5.51106-9.1851-4.468-.882-10.00512,4.88234-9.18511,8.13537.99593,3.95091,11.86477,6.163,20.73211,3.674,9.466-2.657,11.21194-9.14475,18.6326-13.384,14.08742-8.04781,17.53434,7.09088,24.79979.6456,1.63943-1.45435,4.08252-3.61569,3.17057-11.14313"/><path class="cls-4" d="M71.26668,58.036C77.009,55.21554,79.758,61.49348,79.758,61.49348c3.04111,6.48592-3.30314,8.1239-3.30314,8.1239-13.1394-.85976-9.90495-6.748-9.90495-6.748A9.95494,9.95494,0,0,1,71.26668,58.036Z"/><path class="cls-4" d="M36.30364,27.80377,35.868,32.41711s-2.24742,1.04973-2.68481,0l.46719-6.48829S36.35855,27.22227,36.30364,27.80377Z"/><path class="cls-4" d="M-5.71724,27.55268c-.03779,4.19138,4.05947,7.71656,7.698,7.78547a5.59393,5.59393,0,0,0,4.28637-1.66206,4.7178,4.7178,0,0,0,.96228-2.44937c.43989-2.85574,1.0418-6.76325-1.837-9.01014a7.20425,7.20425,0,0,0-9.01017.52486A6.92157,6.92157,0,0,0-5.71724,27.55268Z"/><path class="cls-4" d="M4.15072,35.03813l.36685,4.41145S1.82824,41.42.94225,40.08486L.176,35.03813Z"/><path class="cls-4" d="M125.04613,31.78119v3.54018s2.32971,1.04973,3.292,0,0-4.06935,0-4.06935"/><path class="cls-7" d="M-5.95925,39.3068a6.85744,6.85744,0,0,1,1.267-1.49729c2.555-2.22977,1.2565-4.35869,1.75322-6.0378.81785-2.76471.331-5.85467,1.18094-6.03592.45633-.09732.76007.75849,1.57458,1.44337,2.32486,1.95483,7.74148,1.61778,8.92267-1.04973.94259-2.12869-.812-5.24011-3.018-6.692-3.46893-2.28312-8.684-.90582-9.80836,1.44337-.41047.85761-.04633,1.36547-.492,2.65712a7.58956,7.58956,0,0,1-3.28042,3.674c-2.23795,1.51587-2.99925,1.01039-4.46132,2.001-2.69022,1.8228-4.33641,6.38658-2.72272,9.57875,1.26125,2.495,4.53626,4.19625,5.7735,3.3132A14.50906,14.50906,0,0,0-5.95925,39.3068Z"/></g><rect class="cls-8" x="122.77293" y="48.67049" width="16.13956" height="11.39223"/><path class="cls-14" d="M128.76575,48.67049a1.75439,1.75439,0,0,1,1.89253-1.89253,2.09015,2.09015,0,0,1,2.08125,2.08124"/></g></svg>