<svg xmlns="http://www.w3.org/2000/svg" xmlns:xlink="http://www.w3.org/1999/xlink" viewBox="0 0 191.81 114.29153"><defs><style>.cls-1,.cls-20,.cls-22{fill:none;}.cls-2,.cls-3,.cls-4{fill:#bcbcbc;}.cls-16,.cls-3{opacity:0.8;}.cls-15,.cls-16,.cls-18,.cls-19,.cls-3,.cls-4,.cls-8{isolation:isolate;}.cls-15,.cls-4{opacity:0.7;}.cls-5{clip-path:url(#clip-path);}.cls-10,.cls-16,.cls-6{fill:#a896c8;}.cls-7{fill:#f5897d;}.cls-19,.cls-8{opacity:0.2;}.cls-9{fill:#192e35;}.cls-10,.cls-11,.cls-22{stroke:#010101;}.cls-10,.cls-11,.cls-20,.cls-22{stroke-miterlimit:10;}.cls-10,.cls-22{stroke-width:0.39208px;}.cls-11,.cls-14{fill:#5274b8;}.cls-11{stroke-width:0.19604px;}.cls-12{fill:#fbfcf0;}.cls-13{fill:#4375ba;}.cls-15,.cls-25{fill:#6a5da8;}.cls-17{fill:#494260;}.cls-18,.cls-19{fill:#fff;}.cls-18{opacity:0.1;}.cls-20{stroke:#192e35;stroke-linecap:round;stroke-width:0.36316px;}.cls-21{fill:#f59193;}.cls-23{fill:#312561;}.cls-24{fill:#494161;}.cls-26{fill:#5a489d;}.cls-27{clip-path:url(#clip-path-2);}.cls-28{fill:#f0515d;}</style><clipPath id="clip-path"><path class="cls-1" d="M166.12,0c-2.2,17.63-17.3,38.09-19.4,40.94-5.78,7.83-15.4,20.87-31.83,27.29C90.22,77.86,78.8,61.41,34.17,58A199.44817,199.44817,0,0,0,0,58.42V9.86A9.85424,9.85424,0,0,1,9.86,0Z"/></clipPath><clipPath id="clip-path-2"><path class="cls-1" d="M160.87,198.099c-6.45,8.72-14.01,2.74-60.63,11.62-26.19,4.98-37.9,9.55-54.57,4.04-8.84-2.92-10.9-5.98-19.71-7.08-11.52-1.43-19.6,2.35-25.96,5.24v-57.68a9.86064,9.86064,0,0,1,9.86-9.86H151.83C164.11,162.789,169.77,186.04893,160.87,198.099Z"/></clipPath></defs><title>cards</title><g id="Layer_1" data-name="Layer 1"><path class="cls-2" d="M156.77907,57.38036l12.86337-5.043s5.88127,1.68917,10.50954,1.19174,8.79377-4.44593,8.79377-4.44593-4.85974,6.84426-16.08334,8.40471S156.77907,57.38036,156.77907,57.38036Z"/><path class="cls-3" d="M156.77907,57.38036l12.86337-5.043s5.88127,1.68917,10.50954,1.19174,8.79377-4.44593,8.79377-4.44593-4.85974,6.84426-16.08334,8.40471S156.77907,57.38036,156.77907,57.38036Z"/><path class="cls-2" d="M156.77907,57.38036s14.5729,1.33135,17.58755-1.22457,5.55389-9.37227,5.55389-9.37227l12.49642-1.73568S185.01163,63.81187,156.77907,57.38036Z"/><path class="cls-4" d="M156.77907,57.38036s14.5729,1.33135,17.58755-1.22457,5.55389-9.37227,5.55389-9.37227l12.49642-1.73568S185.01163,63.81187,156.77907,57.38036Z"/><g class="cls-5"><path class="cls-6" d="M69.62168-60.30168h52.56664a84.42046,84.42046,0,0,1,84.42046,84.42046V24.119a84.42048,84.42048,0,0,1-84.42048,84.42048H69.6217A84.42048,84.42048,0,0,1-14.79878,24.119v-.00017A84.42046,84.42046,0,0,1,69.62168-60.30168Z" transform="translate(191.81 48.23776) rotate(-180)"/><path class="cls-7" d="M75.08391,67.03692l6.42178-6.59533s10.58718-2.43641,11.97565-3.1274,3.12415,3.12415,3.47127,4.86132-7.28956,3.47285-8.50448,3.47285a5.20836,5.20836,0,0,1-2.42412-.78321L80.985,70.161Z"/><path class="cls-8" d="M75.08391,67.03692l6.42178-6.59533s10.58718-2.43641,11.97565-3.1274,3.12415,3.12415,3.47127,4.86132-7.28956,3.47285-8.50448,3.47285a5.20836,5.20836,0,0,1-2.42412-.78321L80.985,70.161Z"/><path class="cls-9" d="M60.47583,16.26231c-2.087,3.02588-1.53308,8.42112,1.07031,9.81188s-1.42445,4.5149-1.49324,6.94472,3.92315,5.20686,4.27027,8.678S66.753,51.93711,51.56641,53.84626,23.06658,52.798,20.43766,46.72674s7.0423-8.19956,7.58711-10.69336-2.57925-2.70244-2.40569-6.41641,6.475-3.48321,5.0497-7.53236c-2.21494-6.29243.8914-12.25609.8914-12.25609Z"/><path class="cls-10" d="M23.61555,79.52709q-.197,1.82608-.445,3.65811c.98215-.08041,1.97216-.10587,2.9641-.09022.65672.00981,1.31347.0392,1.96823.08237.11369.00584.22741.01369.3411.02154q.83217.05878,1.6585.14506c.15878.0157.3156.03135.47244.049.04508.00393.09017.00981.13525.0157q.21173.02061.42345.047.63518.07352,1.26446.15487,3.91979.50283,7.81212,1.15465c.06861-.01173.13528-.02546.20387-.03724a100.56411,100.56411,0,0,1,10.74487-1.32718c.17644-.01177.35288-.02158.53125-.03135.13136-.00785.26467-.0157.398-.02158.17251-.00982.345-.01766.51754-.02551.2019-.0078.40186-.01565.60379-.02154.22937-.00785.45875-.0157.6881-.02154,1.90941-.04317,3.83452-.00785,5.75178.12545.50184-1.486.92725-2.96609,1.286-4.43245C64.068,81.8482,67.4458,83.69094,70.402,83.2969c7.52-.99981,12.96011-14.53818,12.96011-14.53818l-6.41829-6.06737-5.90078,5.1852s-4.85977-20.286-11.36825-23.11686a11.28425,11.28425,0,0,0-2.06233-2.01916s-2.36193,8.09985-12.68759,6.9319c-10.13844-1.14679-16.73906-9.3122-16.77694-9.3255l-1.02528.31558c-2.15838.70379-3.46989,1.27817-3.55025,1.31344l-.00393.002C17.22078,43.94419,16.1818,66.66112,23.61555,79.52709Z"/><path class="cls-11" d="M28.02414,40.18047s6.45948,8.116,16.777,9.3255c10.31948,1.22132,12.68759-6.93188,12.68759-6.93188-2.27206-1.80752-6.51827-4.21875-13.25805-4.56967A48.46219,48.46219,0,0,0,28.02414,40.18047Z"/><path class="cls-9" d="M32.27512,83.44323q-.29933-.0384-.60022-.07519l12.24949.61836q-1.82289.26053-3.6341.575c-.06786.01178-.13532.02532-.20312.03738Q36.19256,83.95192,32.27512,83.44323Z"/><path class="cls-8" d="M32.27512,83.44323q-.29933-.0384-.60022-.07519l12.24949.61836q-1.82289.26053-3.6341.575c-.06786.01178-.13532.02532-.20312.03738Q36.19256,83.95192,32.27512,83.44323Z"/><path class="cls-9" d="M35.29247,83.85661l.11821-1.14929,1.43042.14708L36.71649,84.066Q36.00494,83.95863,35.29247,83.85661Z"/><path class="cls-9" d="M57.484,18.66213S61.68074-.20394,44.22788,1.6623c-21.90651,2.34234-13.5856,29.5281-2.72719,27.88289S57.484,18.66213,57.484,18.66213Z"/><path class="cls-12" d="M46.13054,45.52315c-5.43421.66572-8.56783-5.33523-8.56783-5.33523,5.12894-3.53032,2.54249-11.42269,2.54249-11.42269l8.24528,2.89882a25.23327,25.23327,0,0,0-.88464,3.52312c-.86166,5.14333,1.46112,5.55424,1.46112,5.55424A3.50269,3.50269,0,0,1,46.13054,45.52315Z"/><path class="cls-8" d="M48.35048,31.66405a25.23327,25.23327,0,0,0-.88464,3.52312c-3.94641-1.582-7.36064-6.42194-7.36064-6.42194Z"/><path class="cls-12" d="M48.09242,7.10922c7.45216.64063,9.50775,4.83658,9.39351,12.563-.14267,9.65568-2.85679,16.29111-11.99821,13.44038C33.07264,29.24107,35.71656,6.04514,48.09242,7.10922Z"/><path class="cls-9" d="M48.19561,17.84014c-.03826.61342-.40082,1.08987-.8098,1.06434s-.70933-.5434-.671-1.15683.40073-1.09.80971-1.06443S48.23386,17.22671,48.19561,17.84014Z"/><path class="cls-9" d="M47.35212,16.70226l1.36671-.43995S47.98458,17.34341,47.35212,16.70226Z"/><path class="cls-9" d="M55.82887,18.18857c-.03834.61342-.40082,1.09-.80971,1.06443-.40906-.02553-.7095-.54349-.67116-1.15682s.40091-1.09.8098-1.06435S55.86713,17.57532,55.82887,18.18857Z"/><path class="cls-9" d="M54.98529,17.05079l1.36671-.44S55.61784,17.69194,54.98529,17.05079Z"/><path class="cls-9" d="M45.23414,13.85433a.31674.31674,0,0,0,.22831-.09687,3.6017,3.6017,0,0,1,3.03342-.75916.31786.31786,0,0,0,.135-.62124,4.174,4.174,0,0,0-3.62508.93826.31794.31794,0,0,0,.2284.539Z"/><path class="cls-9" d="M56.9241,14.02438a.31783.31783,0,0,0,.19795-.56639,3.78635,3.78635,0,0,0-3.19952-.92588.31781.31781,0,0,0,.1675.61316,3.17748,3.17748,0,0,1,2.6362.80971A.31518.31518,0,0,0,56.9241,14.02438Z"/><path class="cls-9" d="M38.86835,18.96915S42.879,13.14588,42.75746,8.37371c0,0,15.28626-4.76357,14.72654,10.28842,0,0,2.58706-13.18583-10.198-14.58352C34.5213,2.68294,32.94453,21.427,39.08034,27.57971,39.08034,27.57971,36.38368,22.613,38.86835,18.96915Z"/><path class="cls-12" d="M39.95033,20.64674A3.28243,3.28243,0,0,0,36.6878,17.357c-2.33093.05344-3.83909,4.69979,1.807,6.33333C39.305,23.92488,39.83907,23.15922,39.95033,20.64674Z"/><path class="cls-9" d="M50.70318,26.39217a4.95334,4.95334,0,0,0,.92246-.08994.31787.31787,0,0,0-.11828-.62465,3.30355,3.30355,0,0,1-3.85551-2.0527.318.318,0,0,0-.60026.21A3.99481,3.99481,0,0,0,50.70318,26.39217Z"/><path class="cls-9" d="M47.89,7.65842S43.83364,19.66251,36.12633,18.84157,41.66819,3.51915,41.66819,3.51915,54.67705-.15209,60.31833,7.07378,57.484,18.66213,57.484,18.66213,58.77542,9.20685,47.89,7.65842Z"/><path class="cls-9" d="M41.72005,17.86409a.22842.22842,0,0,0,.078-.01413c6.43177-2.44,6.313-10.98782,6.31138-11.0739a.21937.21937,0,0,0-.21936-.21427h-.00474a.21976.21976,0,0,0-.21462.2241c.00167.08309.11179,8.3246-6.02867,10.6536a.21944.21944,0,0,0,.078.4246Z"/><path class="cls-12" d="M28.02414,40.18047s6.45948,8.116,16.777,9.3255c10.31948,1.22132,12.68759-6.93188,12.68759-6.93188-2.27206-1.80752-6.51827-4.21875-13.25805-4.56967A48.46219,48.46219,0,0,0,28.02414,40.18047Z"/><path class="cls-12" d="M59.26987,64.5333s9.881-4.78595,11.54579-5.13307,8.08655-1.90923,10.51647-2.08279,4.51253,6.65315,2.60338,7.49208-10.23085.83884-10.843.83884-2.17414-1.332-2.17414-1.332l-8.663,5.68086Z"/><path class="cls-13" d="M53.77376,83.11285c-.22935.00584-.45872.01369-.68809.02154.22741-.00785.45678-.01374.68613-.01963Z"/><path class="cls-14" d="M53.77376,83.11285c-.22935.00584-.45872.01369-.68809.02154.22741-.00785.45678-.01374.68613-.01963Z"/><path class="cls-13" d="M123.44089,26.75035a12.42248,12.42248,0,0,1,7.977-6.12827c5.648-1.36364,9.22855,4.27317,9.22855,4.27317Z"/><path class="cls-15" d="M123.44089,26.75035a12.42248,12.42248,0,0,1,7.977-6.12827c5.648-1.36364,9.22855,4.27317,9.22855,4.27317Z"/><path class="cls-13" d="M131.41793,20.62208c3.46882-.00421,7.2292,2.88847,8.351,6.12827l13.95983,1.73559a12.53489,12.53489,0,0,0-4.73637-6.24821,59.64721,59.64721,0,0,1-9.09886-1.61565C134.16,19.2294,131.41793,20.62208,131.41793,20.62208Z"/><path class="cls-16" d="M131.41793,20.62208c3.46882-.00421,7.2292,2.88847,8.351,6.12827l13.95983,1.73559a12.53489,12.53489,0,0,0-4.73637-6.24821,59.64721,59.64721,0,0,1-9.09886-1.61565C134.16,19.2294,131.41793,20.62208,131.41793,20.62208Z"/><path class="cls-13" d="M158.87983,51.772l12.86337-5.043s5.88126,1.68918,10.50953,1.19175,8.79377-4.44593,8.79377-4.44593-4.85973,6.84426-16.08333,8.40471S158.87983,51.772,158.87983,51.772Z"/><path class="cls-16" d="M158.87983,51.772l12.86337-5.043s5.88126,1.68918,10.50953,1.19175,8.79377-4.44593,8.79377-4.44593-4.85973,6.84426-16.08333,8.40471S158.87983,51.772,158.87983,51.772Z"/><path class="cls-13" d="M158.87983,51.772s14.5729,1.33135,17.58754-1.22456,5.55389-9.37228,5.55389-9.37228l12.49642-1.73567S187.11238,58.20348,158.87983,51.772Z"/><path class="cls-15" d="M158.87983,51.772s14.5729,1.33135,17.58754-1.22456,5.55389-9.37228,5.55389-9.37228l12.49642-1.73567S187.11238,58.20348,158.87983,51.772Z"/><path class="cls-13" d="M92.99,62.17718s.92527-15.013,6.39247-22.91H119.342s-6.59532,11.3682-6.6821,22.129Z"/><path class="cls-16" d="M92.99,62.17718s.92527-15.013,6.39247-22.91H119.342s-6.59532,11.3682-6.6821,22.129Z"/><polygon class="cls-17" points="70.918 70.274 70.918 67.709 90.531 58.359 115.312 58.359 115.312 70.274 70.918 70.274"/><rect class="cls-18" x="91.31186" y="58.79269" width="23.99975" height="11.4813"/><path class="cls-17" d="M114.92615,62.17718H92.36321a2.777,2.777,0,0,1-2.777-2.77695h0a2.77706,2.77706,0,0,1,2.777-2.777h22.56294a2.777,2.777,0,0,1,2.77694,2.777h0A2.777,2.777,0,0,1,114.92615,62.17718Z"/><path class="cls-19" d="M114.92615,62.17718H92.36321a2.777,2.777,0,0,1-2.777-2.77695h0a2.77706,2.77706,0,0,1,2.777-2.777h22.56294a2.777,2.777,0,0,1,2.77694,2.777h0A2.777,2.777,0,0,1,114.92615,62.17718Z"/><path class="cls-19" d="M92.99,62.17718h-.62676a2.777,2.777,0,0,1-2.777-2.77695h0a2.77706,2.77706,0,0,1,2.777-2.777H92.99a2.777,2.777,0,0,1,2.77695,2.777h0A2.777,2.777,0,0,1,92.99,62.17718Z"/><path class="cls-9" d="M91.83253,58.09845h-3.558l-2.86381,8.8516H86.5389l2.60347-5.81423h2.69016s1.35-.781,1.28248-1.73559S91.83253,58.09845,91.83253,58.09845Z"/><path class="cls-19" d="M91.83253,58.09845h-3.558l-2.86381,8.8516H86.5389l2.60347-5.81423h2.69016s1.35-.781,1.28248-1.73559S91.83253,58.09845,91.83253,58.09845Z"/><path class="cls-20" d="M51.71167,20.27512s1.65161,2.74166-1.10088,2.37467"/><ellipse class="cls-21" cx="54.98529" cy="22.08534" rx="1.21472" ry="0.5633"/><ellipse class="cls-21" cx="47.45521" cy="21.53159" rx="1.19412" ry="0.55374"/><path class="cls-22" d="M60.16681,66.17485s-9.50479,2.78592-9.88675,4.7844"/><path class="cls-22" d="M62.25538,69.99725S28.05189,78.81473,18.41763,57.31418"/><path class="cls-22" d="M23.91076,41.61592C32.29409,39.197,40.1052,70.64745,40.1052,70.64745"/><path class="cls-22" d="M18.55885,53.80488s6.35923,30.43986,40.711,10.72842"/><path class="cls-22" d="M20.614,44.59314s20.48028,15.9483,9.876,26.36611"/><path class="cls-22" d="M23.91076,70.95925s-7.90155-25.62593-.466-29.14763"/><path class="cls-22" d="M70.91841,70.274s-.58676-4.55957-1.83943-4.75138"/><path class="cls-22" d="M66.34271,61.21678s-16.1222-9.57626-17.371-11.55729"/><path class="cls-22" d="M62.25534,46.79578s-6.74952,30.1769-35.2571-6.30029"/><path class="cls-22" d="M68.93715,59.32068s-26.6003-5.957-32.43569-.6075"/><path class="cls-22" d="M40.21,48.67321s17.25382,19.26714,22.04537,21.324"/><path class="cls-22" d="M39.09814,66.95005S57.79557,65.30585,55.49677,46.287"/><path class="cls-23" d="M-2.12755,70.81219c0,1.04561.04282,2.08265.12854,3.10542A37.38885,37.38885,0,0,0,28.5124,107.57728c.19424.03428.39135.06856.58567.1a37.54519,37.54519,0,0,0,6.14227.50281H154.40045a37.33979,37.33979,0,0,0,37.36788-37.36788.63629.63629,0,0,0-.17141-.43425.07616.07616,0,0,0-.01428-.01714.63506.63506,0,0,0-.44853-.1857H-1.49048a.63314.63314,0,0,0-.33426.09428A.63827.63827,0,0,0-2.12755,70.81219Z"/><rect class="cls-6" x="103.45743" y="80.51526" width="32.55781" height="20.42701" transform="translate(239.47267 181.45753) rotate(-180)"/><path class="cls-24" d="M165.74281,84.95743v17.38978h8.862a37.4948,37.4948,0,0,0,14.61291-17.38978Z"/><path class="cls-25" d="M28.75866,87.69146V107.5153c.19425.03428.39135.06856.58567.1a37.54531,37.54531,0,0,0,6.14228.50282h25.829V87.69146Z"/><path class="cls-26" d="M2.16973,87.69146A37.45584,37.45584,0,0,0,28.75866,107.5153c.19425.03428.39135.06856.58567.1V87.69146Z"/><rect class="cls-24" x="16.3875" y="73.85547" width="22.05204" height="13.83562" transform="translate(54.82705 161.54655) rotate(-180)"/><path class="cls-6" d="M-1.75275,73.85563A37.13019,37.13019,0,0,0,2.16973,87.69146H16.337V73.85563Z"/></g><path class="cls-13" d="M158.87983,51.772l12.86337-5.043s5.88126,1.68918,10.50953,1.19175,8.79377-4.44593,8.79377-4.44593-4.85973,6.84426-16.08333,8.40471S158.87983,51.772,158.87983,51.772Z"/><path class="cls-16" d="M158.87983,51.772l12.86337-5.043s5.88126,1.68918,10.50953,1.19175,8.79377-4.44593,8.79377-4.44593-4.85973,6.84426-16.08333,8.40471S158.87983,51.772,158.87983,51.772Z"/><path class="cls-13" d="M158.87983,51.772s14.5729,1.33135,17.58754-1.22456,5.55389-9.37228,5.55389-9.37228l12.49642-1.73567S187.11238,58.20348,158.87983,51.772Z"/><path class="cls-15" d="M158.87983,51.772s14.5729,1.33135,17.58754-1.22456,5.55389-9.37228,5.55389-9.37228l12.49642-1.73567S187.11238,58.20348,158.87983,51.772Z"/><g class="cls-27"><path class="cls-28" d="M53.21482,113.302H97.08136a70.44835,70.44835,0,0,1,70.44835,70.44835v.00014a70.44837,70.44837,0,0,1-70.44837,70.44837H53.21482a70.44835,70.44835,0,0,1-70.44835-70.44835v-.00016A70.44835,70.44835,0,0,1,53.21482,113.302Z"/></g></g></svg>