<svg xmlns="http://www.w3.org/2000/svg" xmlns:xlink="http://www.w3.org/1999/xlink" viewBox="0 0 191.81 114.29153"><defs><style>.cls-1,.cls-24,.cls-34,.cls-36{fill:none;}.cls-10,.cls-2,.cls-3,.cls-4,.cls-6,.cls-8,.cls-9{fill:#d8d8d8;}.cls-3,.cls-30{opacity:0.5;}.cls-28,.cls-4{opacity:0.8;}.cls-5{opacity:0.4;}.cls-31,.cls-6,.cls-7{opacity:0.3;}.cls-29,.cls-8{opacity:0.2;}.cls-26,.cls-32,.cls-9{opacity:0.7;}.cls-10,.cls-33{opacity:0.9;}.cls-11{clip-path:url(#clip-path);}.cls-12,.cls-16,.cls-17{fill:#5274b8;}.cls-13{fill:#1e2b5c;}.cls-14{fill:#fbfcf0;}.cls-15{opacity:0.1;}.cls-16,.cls-24{stroke:#fff;}.cls-16,.cls-17,.cls-24,.cls-34,.cls-36{stroke-miterlimit:10;}.cls-16,.cls-17,.cls-34{stroke-width:0.24888px;}.cls-17,.cls-34{stroke:#010101;}.cls-18{fill:#263238;}.cls-19{fill:#2450a3;}.cls-20{fill:#c8d9f0;}.cls-21{fill:#577dbe;}.cls-22{fill:#586985;}.cls-23{fill:#4165a4;}.cls-24{stroke-width:0.62221px;}.cls-25,.cls-27,.cls-28,.cls-29,.cls-30,.cls-31,.cls-32,.cls-33{fill:#fff;}.cls-25{opacity:0.6;}.cls-35{fill:#f59193;}.cls-36{stroke:#263238;stroke-linecap:round;stroke-width:0.12444px;}</style><clipPath id="clip-path"><path class="cls-1" d="M161.5,23.95c-3.92,5.08-8.73,4.63-20.46,10.99-12.02,6.51-15.73,11.71-22.36,16.29-12.4,8.55-25.4,8.27-49.27,7.96C32.08,58.7,11.77,58.7,0,57.97V9.86A9.86064,9.86064,0,0,1,9.86,0h153.8C165.74,7.82,166.44,17.54,161.5,23.95Z"/></clipPath></defs><title>cards</title><g id="Layer_1" data-name="Layer 1"><path class="cls-2" d="M42.63531,54.87354h8.05523a4.125,4.125,0,0,1,4.125,4.125v8.0552a4.125,4.125,0,0,1-4.125,4.125H42.63532a4.125,4.125,0,0,1-4.125-4.125V58.99857a4.125,4.125,0,0,1,4.125-4.125Z" transform="translate(-20.02031 104.29451) rotate(-85.23689)"/><path class="cls-3" d="M42.63531,54.87354h8.05523a4.125,4.125,0,0,1,4.125,4.125v8.0552a4.125,4.125,0,0,1-4.125,4.125H42.63532a4.125,4.125,0,0,1-4.125-4.125V58.99857a4.125,4.125,0,0,1,4.125-4.125Z" transform="translate(-20.02031 104.29451) rotate(-85.23689)"/><path class="cls-2" d="M51.51583,69.74154h-.91836A1.38354,1.38354,0,0,1,49.21393,68.358l.23036-6.29441H52.669l.23034,6.29441A1.38352,1.38352,0,0,1,51.51583,69.74154Z"/><path class="cls-2" d="M54.123,61.49017a1.346,1.346,0,1,1-1.346-1.346A1.346,1.346,0,0,1,54.123,61.49017Z"/><path class="cls-4" d="M54.123,61.49017a1.346,1.346,0,1,1-1.346-1.346A1.346,1.346,0,0,1,54.123,61.49017Z"/><path class="cls-2" d="M52.89216,60.35556v.96455l.66525-.66526A1.13732,1.13732,0,0,0,52.89216,60.35556Z"/><path class="cls-2" d="M52.499,61.483l-.65491-.6549a1.13811,1.13811,0,0,0-.21258.6549Z"/><path class="cls-2" d="M52.6618,60.35556a1.13722,1.13722,0,0,0-.66525.29932l.66525.66523Z"/><path class="cls-2" d="M52.499,61.7133h-.84567a1.1396,1.1396,0,0,0,.28837.55728Z"/><path class="cls-2" d="M53.055,61.7133l.5573.55728a1.1393,1.1393,0,0,0,.28837-.55728Z"/><path class="cls-2" d="M53.055,61.483h.8675a1.13821,1.13821,0,0,0-.21258-.6549Z"/><path class="cls-2" d="M52.6618,61.87616l-.54692.54693a1.13639,1.13639,0,0,0,.54692.20168Z"/><path class="cls-2" d="M52.89216,61.87616v.74861a1.13643,1.13643,0,0,0,.54693-.20168Z"/><g class="cls-5"><path class="cls-2" d="M52.89216,60.35556v.96455l.66525-.66526A1.13732,1.13732,0,0,0,52.89216,60.35556Z"/><path class="cls-2" d="M52.499,61.483l-.65491-.6549a1.13811,1.13811,0,0,0-.21258.6549Z"/><path class="cls-2" d="M52.6618,60.35556a1.13722,1.13722,0,0,0-.66525.29932l.66525.66523Z"/><path class="cls-2" d="M52.499,61.7133h-.84567a1.1396,1.1396,0,0,0,.28837.55728Z"/><path class="cls-2" d="M53.055,61.7133l.5573.55728a1.1393,1.1393,0,0,0,.28837-.55728Z"/><path class="cls-2" d="M53.055,61.483h.8675a1.13821,1.13821,0,0,0-.21258-.6549Z"/><path class="cls-2" d="M52.6618,61.87616l-.54692.54693a1.13639,1.13639,0,0,0,.54692.20168Z"/><path class="cls-2" d="M52.89216,61.87616v.74861a1.13643,1.13643,0,0,0,.54693-.20168Z"/></g><path class="cls-2" d="M52.47511,63.06115H49.63823l-.19407,5.3052a1.153,1.153,0,0,0,1.15326,1.145h.91843A1.1545,1.1545,0,0,0,52.669,68.358Z"/><path class="cls-6" d="M52.47511,63.06115H49.63823l-.19407,5.3052a1.153,1.153,0,0,0,1.15326,1.145h.91843A1.1545,1.1545,0,0,0,52.669,68.358Z"/><path class="cls-2" d="M48.21581,60.54721h1.07512c.45212,0,.91876-.06157,1.10519.4686a13.286,13.286,0,0,1,.35958,2.09667c.0375.21869.37052.126.33317-.09185l-.20246-1.18057a4.11168,4.11168,0,0,0-.23412-1.14408c-.3947-.771-1.73986-.49426-2.43648-.49426a.17285.17285,0,0,0,0,.34549Z"/><g class="cls-7"><path class="cls-2" d="M48.21581,60.54721h1.07512c.45212,0,.91876-.06157,1.10519.4686a13.286,13.286,0,0,1,.35958,2.09667c.0375.21869.37052.126.33317-.09185l-.20246-1.18057a4.11168,4.11168,0,0,0-.23412-1.14408c-.3947-.771-1.73986-.49426-2.43648-.49426a.17285.17285,0,0,0,0,.34549Z"/></g><path class="cls-2" d="M50.13128,62.88126h.54335a.21779.21779,0,0,1,.21779.21779v.54335a.21779.21779,0,0,1-.21779.21779h-.54336a.21778.21778,0,0,1-.21778-.21778v-.54336a.21779.21779,0,0,1,.21779-.21779Z" transform="translate(59.57484 -17.07915) rotate(45.00163)"/><path class="cls-2" d="M51.55595,63.34642h.54337a.2178.2178,0,0,1,.2178.2178v.54333a.2178.2178,0,0,1-.2178.2178h-.54337a.21778.21778,0,0,1-.21778-.21778V63.5642a.21778.21778,0,0,1,.21778-.21778Z" transform="translate(15.44499 -9.90303) rotate(12.81111)"/><rect class="cls-2" x="49.87392" y="64.34039" width="0.97894" height="0.97894" rx="0.21779" transform="translate(-7.97973 7.0764) rotate(-7.44898)"/><path class="cls-2" d="M51.38164,64.89213H51.925a.2178.2178,0,0,1,.2178.2178v.54336a.21778.21778,0,0,1-.21778.21778H51.3816a.21778.21778,0,0,1-.21778-.21778v-.54334a.21781.21781,0,0,1,.21781-.21781Z" transform="translate(39.61023 -17.06706) rotate(29.99944)"/><path class="cls-4" d="M50.13128,62.88126h.54335a.21779.21779,0,0,1,.21779.21779v.54335a.21779.21779,0,0,1-.21779.21779h-.54336a.21778.21778,0,0,1-.21778-.21778v-.54336a.21779.21779,0,0,1,.21779-.21779Z" transform="translate(59.57484 -17.07915) rotate(45.00163)"/><path class="cls-4" d="M51.55595,63.34642h.54337a.2178.2178,0,0,1,.2178.2178v.54333a.2178.2178,0,0,1-.2178.2178h-.54337a.21778.21778,0,0,1-.21778-.21778V63.5642a.21778.21778,0,0,1,.21778-.21778Z" transform="translate(15.44499 -9.90303) rotate(12.81111)"/><rect class="cls-4" x="49.87392" y="64.34039" width="0.97894" height="0.97894" rx="0.21779" transform="translate(-7.97973 7.0764) rotate(-7.44898)"/><path class="cls-4" d="M51.38164,64.89213H51.925a.2178.2178,0,0,1,.2178.2178v.54336a.21778.21778,0,0,1-.21778.21778H51.3816a.21778.21778,0,0,1-.21778-.21778v-.54334a.21781.21781,0,0,1,.21781-.21781Z" transform="translate(39.61023 -17.06706) rotate(29.99944)"/><path class="cls-2" d="M39.40336,69.74154a3.8998,3.8998,0,0,0,2.36335,1.05758l8.4385.70312a3.91788,3.91788,0,0,0,3.606-1.7607Z"/><path class="cls-8" d="M39.40336,69.74154a3.8998,3.8998,0,0,0,2.36335,1.05758l8.4385.70312a3.91788,3.91788,0,0,0,3.606-1.7607Z"/><circle class="cls-2" cx="44.5887" cy="59.06859" r="1.27325"/><path class="cls-2" d="M43.42918,58.06724a1.54327,1.54327,0,0,1,.15814-.15816q-.40254-.40262-.80519-.8052a.11189.11189,0,0,0-.15815.15814Q43.02657,57.66464,43.42918,58.06724Z"/><path class="cls-2" d="M43.05538,59.06859c0-.03776.003-.07476.00568-.11183H41.922a.1119.1119,0,0,0,0,.22367h1.139C43.05837,59.14336,43.05538,59.10636,43.05538,59.06859Z"/><path class="cls-2" d="M45.74821,58.06722l.8052-.8052a.11189.11189,0,0,0-.15815-.15814l-.80522.8052A1.54437,1.54437,0,0,1,45.74821,58.06722Z"/><path class="cls-2" d="M44.5887,57.5353c.03774,0,.07476.00295.11183.00564v-1.139a.1119.1119,0,0,0-.22367,0v1.139C44.51393,57.53825,44.551,57.5353,44.5887,57.5353Z"/><path class="cls-2" d="M47.2554,58.95676H46.11633c.00271.03707.00566.07407.00566.11183s-.00295.07477-.00566.11184H47.2554A.1119.1119,0,0,0,47.2554,58.95676Z"/><path class="cls-2" d="M45.74821,60.06994a1.54447,1.54447,0,0,1-.15817.15815l.80522.80522a.1119.1119,0,0,0,.15815-.15817Z"/><path class="cls-2" d="M43.42918,60.06994l-.8052.8052a.1119.1119,0,0,0,.15815.15817l.80524-.80522A1.54165,1.54165,0,0,1,43.42918,60.06994Z"/><path class="cls-2" d="M44.5887,60.60189c-.03775,0-.07477-.003-.11184-.00566v1.13905a.1119.1119,0,0,0,.22367,0V60.59623C44.66346,60.59891,44.62644,60.60189,44.5887,60.60189Z"/><path class="cls-2" d="M44.14115,64.92761a.20283.20283,0,0,1-.005-.038c0-.1977.28966-.36958.716-.45748a.13531.13531,0,0,1-.01618-.06238c0-.17794.3786-.32219.84558-.32219s.84557.14425.84557.32219a.18909.18909,0,0,1-.08871.143.64952.64952,0,0,1,.4114.30415c.57984.05991,1.00694.2613,1.00694.50121,0,.2871-.6108.51984-1.36427.51984-.05059,0-.10039-.00123-.14956-.00328a2.72562,2.72562,0,0,1-1.62019.40357c-.97741,0-1.76974-.30189-1.76974-.67431C42.953,65.26923,43.44987,65.01937,44.14115,64.92761Z"/><path class="cls-9" d="M44.14115,64.92761a.20283.20283,0,0,1-.005-.038c0-.1977.28966-.36958.716-.45748a.13531.13531,0,0,1-.01618-.06238c0-.17794.3786-.32219.84558-.32219s.84557.14425.84557.32219a.18909.18909,0,0,1-.08871.143.64952.64952,0,0,1,.4114.30415c.57984.05991,1.00694.2613,1.00694.50121,0,.2871-.6108.51984-1.36427.51984-.05059,0-.10039-.00123-.14956-.00328a2.72562,2.72562,0,0,1-1.62019.40357c-.97741,0-1.76974-.30189-1.76974-.67431C42.953,65.26923,43.44987,65.01937,44.14115,64.92761Z"/><path class="cls-2" d="M44.0941,63.6022a.28608.28608,0,0,0,.0071-.0535c0-.27815-.40752-.52-1.0074-.64364a.19056.19056,0,0,0,.02274-.08775c0-.25036-.53264-.45331-1.18968-.45331s-1.18963.203-1.18963.45331a.266.266,0,0,0,.12479.20122.91388.91388,0,0,0-.5788.4279c-.81581.0843-1.41669.36764-1.41669.70516,0,.40394.85937.73139,1.91945.73139.07117,0,.14124-.00172.21039-.00458a3.835,3.835,0,0,0,2.2795.56778c1.37514,0,2.4899-.42476,2.4899-.94875C45.76577,64.08285,45.06671,63.73131,44.0941,63.6022Z"/><path class="cls-10" d="M44.0941,63.6022a.28608.28608,0,0,0,.0071-.0535c0-.27815-.40752-.52-1.0074-.64364a.19056.19056,0,0,0,.02274-.08775c0-.25036-.53264-.45331-1.18968-.45331s-1.18963.203-1.18963.45331a.266.266,0,0,0,.12479.20122.91388.91388,0,0,0-.5788.4279c-.81581.0843-1.41669.36764-1.41669.70516,0,.40394.85937.73139,1.91945.73139.07117,0,.14124-.00172.21039-.00458a3.835,3.835,0,0,0,2.2795.56778c1.37514,0,2.4899-.42476,2.4899-.94875C45.76577,64.08285,45.06671,63.73131,44.0941,63.6022Z"/><g class="cls-11"><path class="cls-12" d="M15.59643-8.61445h117.324a53.58851,53.58851,0,0,1,53.58851,53.58851v.00011a53.58856,53.58856,0,0,1-53.58856,53.58856H15.59643A53.58853,53.58853,0,0,1-37.9921,44.97419v-.00012A53.58853,53.58853,0,0,1,15.59643-8.61445Z"/><path class="cls-13" d="M76.26577,77.07032c2.61218.05594,5.24793-.02494,7.85573.11415.08306.00443.16555.01087.24834.01628V67.27126L64.49667,62.70047,61.0934,75.66532,60.616,77.01837C65.82974,76.82442,71.05,76.95858,76.26577,77.07032Z"/><path class="cls-13" d="M76.26577,77.07032c2.61218.05594,5.24793-.02494,7.85573.11415.06253.00334.12453.00835.18688.01224L83.76981,71.538,81.997,66.43763l-4.64726.182L70.7315,69.52214l1.19295,7.4575Q74.0954,77.02029,76.26577,77.07032Z"/><path class="cls-14" d="M79.78277,35.10794c-1.19807-1.4664-.04523-7.1917-.04523-7.1917l-4.25847,1.639s-.44569,3.967-1.51345,4.77254c-.419.31608-1.04638-.02319-1.59124-.01455l1.12585,3.77289,2.8041.28953,5.14078-2.809C80.93557,35.40834,80.18407,35.59912,79.78277,35.10794Z"/><path class="cls-15" d="M74.95894,32.0851a5.43907,5.43907,0,0,0,4.65588-3.52043c.0705-.4008.12272-.64843.12272-.64843L75.479,29.47645A19.17476,19.17476,0,0,1,74.95894,32.0851Z"/><path class="cls-14" d="M58.70188,46.03073c-3.238,1.67251-7.403,3.41591-10.69573,3.41591-6.3316,0-10.55264-17.4081-10.55264-17.4081l-2.99905-3.80916-1.99975-3.666,1.66625-2.388,2.7763-.86361a25.01048,25.01048,0,0,0,3.111,4.69642c1.222,1.11.555,5.06226.555,5.06226a77.25057,77.25057,0,0,0,8.44211,11.82194L55.04951,39.78Z"/><path class="cls-12" d="M56.61126,38.97491l-.22027.11326-.11945-.22154c.06844-.04354.13814-.08586.20531-.12815Z"/><path class="cls-12" d="M60.47642,45.80174l-.3671.18047-.29245-.54258c.117-.06471.23272-.12818.346-.1904Z"/><path class="cls-16" d="M56.61126,38.97491l-.22027.11326-.11945-.22154c.06844-.04354.13814-.08586.20531-.12815Z"/><path class="cls-16" d="M60.47642,45.80174l-.3671.18047-.29245-.54258c.117-.06471.23272-.12818.346-.1904Z"/><path class="cls-17" d="M95.24035,43.08272l-.79516.93331-4.3567,5.11331-.62345.73294-1.232-1.08761.13189-.15929-2.8024-2.05578c-.45174,4.55706-.94327,9.59445-1.176,12.25126-.30737,3.50179.346,13.4795.346,13.4795a27.99107,27.99107,0,0,1-7.53864,1.12371c-10.13454,0-15.21175-3.65109-15.21175-3.65109A91.74371,91.74371,0,0,1,62.8968,44.6146l-2.42038,1.18714.10205.18047-1.40495.8549-.47164-.80638L55.04951,39.78l-.36958-.63214,1.59161-.77281.20531.36339c8.07751-5.04237,11.03549-4.49608,11.1064-4.48238h.00124c1.10506-.1369,2.17026-.22027,3.19444-.26134l-.00374-.29494,1.55925-.03357,1.91141,4.22228L81.61156,34.775l1.39124.62843-.163.15556a20.51253,20.51253,0,0,1,3.671,1.52938l-.00374.03734a37.24971,37.24971,0,0,1,7.03593,5.239l.26629-.32232Z"/><path class="cls-14" d="M112.7779,29.1042l-4.78725,5.92592S99.37059,52.26775,96.49847,52.62737c-1.41862.1767-4.08044-1.62643-6.41-3.498l4.3567-5.11331.85614.79146s5.26637-7.12676,9.21738-11.80328c0,0-.83749-3.24171.957-5.15685l.95819-2.96295,2.75391-.7479Z"/><path class="cls-18" d="M75.016,15.94548s-4.35647-.056-1.48384,4.18817l3.33734-3.54289Z"/><path class="cls-18" d="M87.11594,18.8833a1.68192,1.68192,0,0,1,.11612.70528,1.33826,1.33826,0,0,1-1.15654,1.18847.11094.11094,0,0,0,.05893.21378,1.58463,1.58463,0,0,0,1.29636-1.19251,1.81808,1.81808,0,0,0-.1011-.974c-.05311-.13042-.26767-.07336-.21377.05893Z"/><path class="cls-14" d="M83.05907,23.055c-1.50044,3.64522-2.0594,5.21439-4.59153,6.47824-3.811,1.90588-7.95726-.73967-7.57715-4.755.349-3.617,2.75375-8.98727,6.8994-9.19725a5.37374,5.37374,0,0,1,5.26928,7.474Z"/><path class="cls-18" d="M76.79554,21.99784c-.10682.30168-.35163.49314-.54772.4284s-.275-.37164-.174-.67391.35163-.49318.54772-.42844S76.878,21.70494,76.79554,21.99784Z"/><path class="cls-18" d="M73.37154,20.83337c-.10751.30734-.35169.49313-.54773.42834s-.27507-.37159-.174-.674.35164-.49313.547-.42263S73.47259,20.531,73.37154,20.83337Z"/><path class="cls-18" d="M78.40713,21.78111a.185.185,0,0,1-.15539-.15885A2.22128,2.22128,0,0,0,77.133,20.23844a.19083.19083,0,0,1-.08533-.25516.185.185,0,0,1,.24827-.08287l.00615.00325a2.55642,2.55642,0,0,1,1.32253,1.671.18506.18506,0,0,1-.15923.20777h-.00015A.10377.10377,0,0,1,78.40713,21.78111Z"/><path class="cls-18" d="M72.88485,18.90325a.19657.19657,0,0,1-.1481-.123.19088.19088,0,0,1,.11125-.24279,1.84526,1.84526,0,0,1,1.72743.17037.17933.17933,0,0,1,.0468.24925l-.00877.01183a.18516.18516,0,0,1-.25876.03976l-.00232-.00178h0a1.50412,1.50412,0,0,0-1.35563-.11322A.1853.1853,0,0,1,72.88485,18.90325Z"/><path class="cls-18" d="M81.44955,20.48356s-.48708.54678.28132,1.12732c0,0-2.19878,2.05635-1.34455,4.28341s2.95846.04936,3.57383-.61316,3.683-4.51024,1.19448-6.92092S76.7172,14.3195,76.481,11.38513c0,0-.98056,1.95687.13278,2.59914,0,0-2.62176,1.20089-3.00108-.71376,0,0-1.35673,2.05782.48274,2.24983,0,0-1.04515,1.45742.83052,1.48812S80.17624,18.18673,81.44955,20.48356Z"/><path class="cls-14" d="M83.09208,26.2641a2.83446,2.83446,0,0,1-1.8776,1.05835c-.98622.10667-1.32233-.81437-.915-1.66781.37316-.76441,1.33194-1.74269,2.26037-1.47191a1.27254,1.27254,0,0,1,.5322,2.08137Z"/><path class="cls-19" d="M136.24532,75.11194c0,.66373-.02718,1.322-.0816,1.97126a23.73376,23.73376,0,0,1-19.36807,21.36653c-.1233.02176-.24842.04352-.37177.06346a23.83306,23.83306,0,0,1-3.899.31918H36.88428A23.70263,23.70263,0,0,1,13.16384,75.11194a.404.404,0,0,1,.10881-.27566l.00906-.01088a.40316.40316,0,0,1,.28472-.11788H135.84092a.40376.40376,0,0,1,.4044.40442Z"/><rect class="cls-20" x="48.79718" y="81.14682" width="20.66709" height="12.96669"/><path class="cls-21" d="M29.92668,83.96663V95.00534H24.30124a23.80106,23.80106,0,0,1-9.276-11.03871Z"/><path class="cls-13" d="M116.88165,85.70214v12.5838c-.12331.02176-.24843.04353-.37178.06347a23.833,23.833,0,0,1-3.899.31918H96.21514V85.70214Z"/><path class="cls-22" d="M133.7598,85.70214a23.77624,23.77624,0,0,1-16.87815,12.5838c-.12331.02176-.24843.04353-.37178.06347V85.70214Z"/><rect class="cls-21" x="110.7364" y="76.91931" width="13.99822" height="8.78259"/><path class="cls-23" d="M136.24972,76.91942a23.56944,23.56944,0,0,1-2.48992,8.78272h-8.99311V76.91942Z"/><path class="cls-24" d="M97.10734,11.57478c1.24881-2.33772,2.72334-4.319,4.15779-4.15781,1.94422.21849,2.49,4.22391,4.227,4.22694,1.79251.00314,2.46472-4.26059,4.2606-4.2606,1.79632,0,2.47116,4.26581,4.26073,4.26074,1.784-.00505,2.46825-4.248,4.22654-4.22653,1.67921.02056,2.24474,3.90418,3.924,3.924,1.74994.02063,2.41334-4.1809,4.19835-4.19835,1.8606-.0182,2.75819,4.53088,4.42516,4.42516.91781-.0582,1.57782-1.49633,1.98645-2.67367"/><rect class="cls-12" x="41.61179" y="12.31247" width="14.95452" height="12.90187" transform="translate(-1.69239 5.23398) rotate(-5.99999)"/><rect class="cls-25" x="41.61179" y="12.31247" width="14.95452" height="12.90187" transform="translate(-1.69239 5.23398) rotate(-5.99999)"/><rect class="cls-12" x="40.81132" y="9.94045" width="14.95452" height="2.41397" transform="translate(-0.90069 5.10859) rotate(-5.99999)"/><path class="cls-12" d="M42.912,9.69754a.39849.39849,0,1,0-.79261.0833l.16663,1.58525a.39849.39849,0,1,0,.79261-.0833Z"/><path class="cls-12" d="M45.77453,9.39667a.39849.39849,0,1,0-.79261.08331l.16661,1.58525a.39849.39849,0,0,0,.79261-.08331Z"/><path class="cls-12" d="M48.6371,9.09579a.39849.39849,0,1,0-.79262.0833l.16662,1.58526a.39849.39849,0,1,0,.79261-.08331Z"/><path class="cls-12" d="M51.49966,8.79493a.39849.39849,0,1,0-.79261.0833l.16661,1.58525a.3985.3985,0,0,0,.79263-.0833C51.65448,10.268,51.51145,8.9071,51.49966,8.79493Z"/><path class="cls-12" d="M54.36224,8.49406a.39849.39849,0,1,0-.79261.08331l.16661,1.58525a.39849.39849,0,1,0,.79261-.08331Z"/><g class="cls-26"><path class="cls-27" d="M42.912,9.69754a.39849.39849,0,1,0-.79261.0833l.16663,1.58525a.39849.39849,0,1,0,.79261-.0833Z"/><path class="cls-27" d="M45.77453,9.39667a.39849.39849,0,1,0-.79261.08331l.16661,1.58525a.39849.39849,0,0,0,.79261-.08331Z"/><path class="cls-27" d="M48.6371,9.09579a.39849.39849,0,1,0-.79262.0833l.16662,1.58526a.39849.39849,0,1,0,.79261-.08331Z"/><path class="cls-27" d="M51.49966,8.79493a.39849.39849,0,1,0-.79261.0833l.16661,1.58525a.3985.3985,0,0,0,.79263-.0833C51.65448,10.268,51.51145,8.9071,51.49966,8.79493Z"/><path class="cls-27" d="M54.36224,8.49406a.39849.39849,0,1,0-.79261.08331l.16661,1.58525a.39849.39849,0,1,0,.79261-.08331Z"/></g><polygon class="cls-12" points="57.597 23.992 42.725 25.555 40.978 13.129 55.851 11.566 57.597 23.992"/><polygon class="cls-28" points="57.597 23.992 42.725 25.555 40.978 13.129 55.851 11.566 57.597 23.992"/><polygon class="cls-12" points="52.85 14.979 45.487 15.753 45.18 13.566 52.542 12.792 52.85 14.979"/><polygon class="cls-25" points="52.85 14.979 45.487 15.753 45.18 13.566 52.542 12.792 52.85 14.979"/><polygon class="cls-27" points="44.645 18.708 42.679 18.915 42.403 16.956 44.37 16.749 44.645 18.708"/><polygon class="cls-27" points="47.434 18.415 45.468 18.622 45.193 16.663 47.159 16.456 47.434 18.415"/><polygon class="cls-12" points="45.016 21.351 43.05 21.557 42.775 19.598 44.741 19.392 45.016 21.351"/><polygon class="cls-12" points="45.388 23.993 43.421 24.2 43.146 22.241 45.112 22.034 45.388 23.993"/><polygon class="cls-12" points="47.806 21.058 45.84 21.264 45.564 19.305 47.531 19.098 47.806 21.058"/><polygon class="cls-29" points="47.806 21.058 45.84 21.264 45.564 19.305 47.531 19.098 47.806 21.058"/><polygon class="cls-12" points="50.595 20.764 48.629 20.971 48.354 19.012 50.32 18.805 50.595 20.764"/><polygon class="cls-29" points="50.595 20.764 48.629 20.971 48.354 19.012 50.32 18.805 50.595 20.764"/><polygon class="cls-12" points="53.385 20.471 51.418 20.678 51.143 18.719 53.109 18.512 53.385 20.471"/><polygon class="cls-29" points="53.385 20.471 51.418 20.678 51.143 18.719 53.109 18.512 53.385 20.471"/><polygon class="cls-12" points="56.174 20.178 54.208 20.385 53.933 18.426 55.899 18.219 56.174 20.178"/><polygon class="cls-29" points="56.174 20.178 54.208 20.385 53.933 18.426 55.899 18.219 56.174 20.178"/><polygon class="cls-12" points="48.177 23.7 46.211 23.907 45.936 21.948 47.902 21.741 48.177 23.7"/><polygon class="cls-29" points="48.177 23.7 46.211 23.907 45.936 21.948 47.902 21.741 48.177 23.7"/><polygon class="cls-12" points="50.967 23.407 49 23.614 48.725 21.654 50.691 21.448 50.967 23.407"/><polygon class="cls-29" points="50.967 23.407 49 23.614 48.725 21.654 50.691 21.448 50.967 23.407"/><polygon class="cls-12" points="53.756 23.114 51.79 23.32 51.514 21.361 53.481 21.155 53.756 23.114"/><polygon class="cls-29" points="53.756 23.114 51.79 23.32 51.514 21.361 53.481 21.155 53.756 23.114"/><polygon class="cls-1" points="50.224 18.122 48.258 18.328 47.982 16.369 49.949 16.163 50.224 18.122"/><polygon class="cls-12" points="50.224 18.122 48.258 18.328 47.982 16.369 49.949 16.163 50.224 18.122"/><polygon class="cls-29" points="50.224 18.122 48.258 18.328 47.982 16.369 49.949 16.163 50.224 18.122"/><polygon class="cls-1" points="53.013 17.829 51.047 18.035 50.772 16.076 52.738 15.87 53.013 17.829"/><polygon class="cls-12" points="53.013 17.829 51.047 18.035 50.772 16.076 52.738 15.87 53.013 17.829"/><polygon class="cls-29" points="53.013 17.829 51.047 18.035 50.772 16.076 52.738 15.87 53.013 17.829"/><polygon class="cls-1" points="55.803 17.535 53.836 17.742 53.561 15.783 55.527 15.576 55.803 17.535"/><polygon class="cls-12" points="55.803 17.535 53.836 17.742 53.561 15.783 55.527 15.576 55.803 17.535"/><polygon class="cls-29" points="55.803 17.535 53.836 17.742 53.561 15.783 55.527 15.576 55.803 17.535"/><polygon class="cls-27" points="56.546 22.82 54.579 23.027 54.304 21.068 56.27 20.861 56.546 22.82"/><path class="cls-12" d="M61.704,4.54586a.35863.35863,0,1,1-.69738.16771l-.1074-.44656-1.82131.438.10739.44658a.35863.35863,0,0,1-.69738.1677l-.1074-.44658-1.82129.438.10739.44658a.35864.35864,0,1,1-.6974.16772l-.10741-.44657-1.82128.438.10739.44656a.35864.35864,0,1,1-.69739.16772l-.10739-.44658-1.82131.438.10739.44656a.35864.35864,0,1,1-.69739.16772l-.10739-.44657-1.1569.27821,2.86714,11.92216,13.086-3.147L62.75346,3.82107l-1.1569.27821Z"/><path class="cls-28" d="M61.704,4.54586a.35863.35863,0,1,1-.69738.16771l-.1074-.44656-1.82131.438.10739.44658a.35863.35863,0,0,1-.69738.1677l-.1074-.44658-1.82129.438.10739.44658a.35864.35864,0,1,1-.6974.16772l-.10741-.44657-1.82128.438.10739.44656a.35864.35864,0,1,1-.69739.16772l-.10739-.44658-1.82131.438.10739.44656a.35864.35864,0,1,1-.69739.16772l-.10739-.44657-1.1569.27821,2.86714,11.92216,13.086-3.147L62.75346,3.82107l-1.1569.27821Z"/><rect class="cls-12" x="53.80915" y="7.01132" width="6.66256" height="1.98635" transform="translate(-0.28766 13.58264) rotate(-13.52225)"/><rect class="cls-25" x="53.80915" y="7.01132" width="6.66256" height="1.98635" transform="translate(-0.28766 13.58264) rotate(-13.52225)"/><rect class="cls-27" x="51.68033" y="10.95916" width="1.77945" height="1.77944" transform="translate(-1.31325 12.62078) rotate(-13.5225)"/><rect class="cls-12" x="54.13468" y="10.36892" width="1.77944" height="1.77944" transform="translate(-1.10721 13.17788) rotate(-13.52206)"/><rect class="cls-12" x="56.58903" y="9.77868" width="1.77944" height="1.77944" transform="translate(-0.90117 13.7354) rotate(-13.52206)"/><rect class="cls-12" x="59.04338" y="9.18843" width="1.77944" height="1.77945" transform="translate(-0.69513 14.29276) rotate(-13.52192)"/><rect class="cls-12" x="61.49774" y="8.5982" width="1.77943" height="1.77943" transform="translate(-0.48908 14.85042) rotate(-13.52206)"/><rect class="cls-12" x="52.24154" y="13.2928" width="1.77944" height="1.77944" transform="translate(-1.84336 12.8167) rotate(-13.5225)"/><rect class="cls-12" x="54.6959" y="12.70256" width="1.77944" height="1.77944" transform="translate(-1.63731 13.37379) rotate(-13.52206)"/><rect class="cls-12" x="57.15025" y="12.11232" width="1.77944" height="1.77944" transform="translate(-1.43125 13.9319) rotate(-13.52263)"/><rect class="cls-12" x="59.60459" y="11.52208" width="1.77944" height="1.77944" transform="translate(-1.22522 14.48867) rotate(-13.52192)"/><rect class="cls-12" x="62.05895" y="10.93184" width="1.77943" height="1.77943" transform="translate(-1.01917 15.04634) rotate(-13.52206)"/><rect class="cls-12" x="52.80276" y="15.62644" width="1.77944" height="1.77945" transform="translate(-2.37344 13.01206) rotate(-13.52192)"/><rect class="cls-12" x="55.25712" y="15.03621" width="1.77943" height="1.77943" transform="translate(-2.1674 13.56971) rotate(-13.52206)"/><rect class="cls-12" x="57.71145" y="14.44596" width="1.77945" height="1.77944" transform="translate(-1.96137 14.12768) rotate(-13.5225)"/><rect class="cls-29" x="54.13468" y="10.36892" width="1.77944" height="1.77944" transform="translate(-1.10721 13.17788) rotate(-13.52206)"/><rect class="cls-29" x="56.58903" y="9.77868" width="1.77944" height="1.77944" transform="translate(-0.90117 13.7354) rotate(-13.52206)"/><rect class="cls-29" x="59.04338" y="9.18843" width="1.77944" height="1.77945" transform="translate(-0.69513 14.29276) rotate(-13.52192)"/><rect class="cls-29" x="61.49774" y="8.5982" width="1.77943" height="1.77943" transform="translate(-0.48908 14.85042) rotate(-13.52206)"/><rect class="cls-29" x="54.6959" y="12.70256" width="1.77944" height="1.77944" transform="translate(-1.63731 13.37379) rotate(-13.52206)"/><rect class="cls-29" x="57.15025" y="12.11232" width="1.77944" height="1.77944" transform="translate(-1.43125 13.9319) rotate(-13.52263)"/><rect class="cls-29" x="59.60459" y="11.52208" width="1.77944" height="1.77944" transform="translate(-1.22522 14.48867) rotate(-13.52192)"/><rect class="cls-29" x="62.05895" y="10.93184" width="1.77943" height="1.77943" transform="translate(-1.01917 15.04634) rotate(-13.52206)"/><rect class="cls-29" x="55.25712" y="15.03621" width="1.77943" height="1.77943" transform="translate(-2.1674 13.56971) rotate(-13.52206)"/><rect class="cls-29" x="57.71145" y="14.44596" width="1.77945" height="1.77944" transform="translate(-1.96137 14.12768) rotate(-13.5225)"/><rect class="cls-27" x="60.16581" y="13.85572" width="1.77944" height="1.77944" transform="translate(-1.75531 14.68473) rotate(-13.52206)"/><rect class="cls-27" x="62.62016" y="13.26548" width="1.77944" height="1.77944" transform="translate(-1.54927 15.24225) rotate(-13.52206)"/><polygon class="cls-12" points="49.667 6.968 52.204 19.355 65.621 15.743 52.535 18.89 49.667 6.968"/><polygon class="cls-30" points="49.667 6.968 52.204 19.355 65.621 15.743 52.535 18.89 49.667 6.968"/><path class="cls-12" d="M61.635-.24626a.35868.35868,0,0,1-.1279.49083.35862.35862,0,0,1-.49078-.1279l-.23239-.39618L59.16815.6683l.2324.39618a.35863.35863,0,1,1-.61868.36291l-.2324-.39618L56.93373,1.979l.23239.39618a.35865.35865,0,0,1-.61871.36293L56.315,2.34193l-1.61574.94779.23239.39618a.35863.35863,0,1,1-.61868.36291l-.23239-.39618-1.61578.94781.23239.39618a.35863.35863,0,1,1-.61868.36291l-.2324-.39618-1.02633.60206L57.024,16.14206,68.63318,9.33218,62.429-1.24447l-1.02633.60205Z"/><path class="cls-28" d="M61.635-.24626a.35868.35868,0,0,1-.1279.49083.35862.35862,0,0,1-.49078-.1279l-.23239-.39618L59.16815.6683l.2324.39618a.35863.35863,0,1,1-.61868.36291l-.2324-.39618L56.93373,1.979l.23239.39618a.35865.35865,0,0,1-.61871.36293L56.315,2.34193l-1.61574.94779.23239.39618a.35863.35863,0,1,1-.61868.36291l-.23239-.39618-1.61578.94781.23239.39618a.35863.35863,0,1,1-.61868.36291l-.2324-.39618-1.02633.60206L57.024,16.14206,68.63318,9.33218,62.429-1.24447l-1.02633.60205Z"/><rect class="cls-12" x="54.94057" y="3.39492" width="6.66256" height="1.98636" transform="translate(5.78916 30.08695) rotate(-30.39576)"/><rect class="cls-25" x="54.94057" y="3.39492" width="6.66256" height="1.98636" transform="translate(5.78916 30.08695) rotate(-30.39576)"/><rect class="cls-27" x="54.1244" y="8.50384" width="1.77944" height="1.77944" transform="translate(2.80875 29.12658) rotate(-30.39571)"/><rect class="cls-27" x="56.30176" y="7.22662" width="1.77945" height="1.77943" transform="translate(3.75427 30.05271) rotate(-30.39571)"/><rect class="cls-12" x="58.47912" y="5.94939" width="1.77944" height="1.77944" transform="matrix(0.86256, -0.50596, 0.50596, 0.86256, 4.69957, 30.97835)"/><rect class="cls-12" x="60.65648" y="4.67215" width="1.77944" height="1.77944" transform="translate(5.64506 31.90446) rotate(-30.39521)"/><rect class="cls-12" x="62.83384" y="3.39492" width="1.77944" height="1.77944" transform="translate(6.59096 32.83138) rotate(-30.39601)"/><rect class="cls-12" x="55.33882" y="10.57412" width="1.77944" height="1.77944" transform="matrix(0.86255, -0.50597, 0.50597, 0.86255, 1.92827, 30.02588)"/><rect class="cls-12" x="57.51618" y="9.29689" width="1.77944" height="1.77944" transform="translate(2.8738 30.95201) rotate(-30.39601)"/><rect class="cls-12" x="59.69354" y="8.01966" width="1.77943" height="1.77943" transform="translate(3.81932 31.87814) rotate(-30.39601)"/><rect class="cls-12" x="61.8709" y="6.74243" width="1.77943" height="1.77944" transform="translate(4.76463 32.80376) rotate(-30.3955)"/><rect class="cls-12" x="64.04826" y="5.4652" width="1.77944" height="1.77944" transform="matrix(0.86256, -0.50596, 0.50596, 0.86256, 5.70999, 33.72957)"/><rect class="cls-12" x="56.55323" y="12.6444" width="1.77944" height="1.77944" transform="matrix(0.86255, -0.50597, 0.50597, 0.86255, 1.0476, 30.92461)"/><rect class="cls-12" x="58.73059" y="11.36716" width="1.77944" height="1.77944" transform="translate(1.99311 31.85073) rotate(-30.39571)"/><rect class="cls-12" x="60.90795" y="10.08994" width="1.77944" height="1.77944" transform="translate(2.93863 32.77686) rotate(-30.39571)"/><rect class="cls-29" x="58.47912" y="5.94939" width="1.77944" height="1.77944" transform="matrix(0.86256, -0.50596, 0.50596, 0.86256, 4.69957, 30.97835)"/><rect class="cls-29" x="60.65648" y="4.67215" width="1.77944" height="1.77944" transform="translate(5.64506 31.90446) rotate(-30.39521)"/><rect class="cls-29" x="62.83384" y="3.39492" width="1.77944" height="1.77944" transform="translate(6.59096 32.83138) rotate(-30.39601)"/><rect class="cls-29" x="57.51618" y="9.29689" width="1.77944" height="1.77944" transform="translate(2.8738 30.95201) rotate(-30.39601)"/><rect class="cls-29" x="59.69354" y="8.01966" width="1.77943" height="1.77943" transform="translate(3.81932 31.87814) rotate(-30.39601)"/><rect class="cls-29" x="61.8709" y="6.74243" width="1.77943" height="1.77944" transform="translate(4.76463 32.80376) rotate(-30.3955)"/><rect class="cls-29" x="64.04826" y="5.4652" width="1.77944" height="1.77944" transform="matrix(0.86256, -0.50596, 0.50596, 0.86256, 5.70999, 33.72957)"/><rect class="cls-29" x="58.73059" y="11.36716" width="1.77944" height="1.77944" transform="translate(1.99311 31.85073) rotate(-30.39571)"/><rect class="cls-29" x="60.90795" y="10.08994" width="1.77944" height="1.77944" transform="translate(2.93863 32.77686) rotate(-30.39571)"/><rect class="cls-27" x="63.08531" y="8.81271" width="1.77945" height="1.77943" transform="translate(3.88414 33.70298) rotate(-30.39571)"/><rect class="cls-27" x="65.26267" y="7.53548" width="1.77944" height="1.77944" transform="matrix(0.86256, -0.50596, 0.50596, 0.86256, 4.82942, 34.62856)"/><polygon class="cls-12" points="50.807 5.573 56.83 16.69 68.62 9.34 57.011 16.15 50.807 5.573"/><polygon class="cls-30" points="50.807 5.573 56.83 16.69 68.62 9.34 57.011 16.15 50.807 5.573"/><path class="cls-12" d="M39.868,53.97565h8.05525a4.125,4.125,0,0,1,4.125,4.125v8.05524a4.125,4.125,0,0,1-4.125,4.125H39.868a4.125,4.125,0,0,1-4.125-4.125V58.10068a4.125,4.125,0,0,1,4.125-4.125Z" transform="translate(-21.66308 100.71339) rotate(-85.23689)"/><path class="cls-30" d="M39.868,53.97565h8.05525a4.125,4.125,0,0,1,4.125,4.125v8.05524a4.125,4.125,0,0,1-4.125,4.125H39.868a4.125,4.125,0,0,1-4.125-4.125V58.10068a4.125,4.125,0,0,1,4.125-4.125Z" transform="translate(-21.66308 100.71339) rotate(-85.23689)"/><path class="cls-27" d="M48.74849,68.84365h-.91837a1.38354,1.38354,0,0,1-1.38354-1.38351l.23036-6.29441h3.22473l.23033,6.29441A1.38351,1.38351,0,0,1,48.74849,68.84365Z"/><path class="cls-12" d="M51.35567,60.59228a1.346,1.346,0,1,1-1.346-1.34605A1.346,1.346,0,0,1,51.35567,60.59228Z"/><path class="cls-28" d="M51.35567,60.59228a1.346,1.346,0,1,1-1.346-1.34605A1.346,1.346,0,0,1,51.35567,60.59228Z"/><path class="cls-12" d="M50.12481,59.45767v.96454l.66526-.66525A1.13737,1.13737,0,0,0,50.12481,59.45767Z"/><path class="cls-12" d="M49.73162,60.58508l-.65492-.6549a1.13825,1.13825,0,0,0-.21258.6549Z"/><path class="cls-12" d="M49.89446,59.45767a1.13717,1.13717,0,0,0-.66525.29932l.66525.66522Z"/><path class="cls-12" d="M49.73162,60.81541h-.84568a1.13961,1.13961,0,0,0,.28838.55728Z"/><path class="cls-12" d="M50.28765,60.81541l.55731.55728a1.13938,1.13938,0,0,0,.28837-.55728Z"/><path class="cls-12" d="M50.28765,60.58508h.8675a1.13806,1.13806,0,0,0-.21258-.6549Z"/><path class="cls-12" d="M49.89446,60.97827l-.54693.54693a1.13653,1.13653,0,0,0,.54693.20168Z"/><path class="cls-12" d="M50.12481,60.97827v.74861a1.13649,1.13649,0,0,0,.54693-.20168Z"/><g class="cls-5"><path class="cls-27" d="M50.12481,59.45767v.96454l.66526-.66525A1.13737,1.13737,0,0,0,50.12481,59.45767Z"/><path class="cls-27" d="M49.73162,60.58508l-.65492-.6549a1.13825,1.13825,0,0,0-.21258.6549Z"/><path class="cls-27" d="M49.89446,59.45767a1.13717,1.13717,0,0,0-.66525.29932l.66525.66522Z"/><path class="cls-27" d="M49.73162,60.81541h-.84568a1.13961,1.13961,0,0,0,.28838.55728Z"/><path class="cls-27" d="M50.28765,60.81541l.55731.55728a1.13938,1.13938,0,0,0,.28837-.55728Z"/><path class="cls-27" d="M50.28765,60.58508h.8675a1.13806,1.13806,0,0,0-.21258-.6549Z"/><path class="cls-27" d="M49.89446,60.97827l-.54693.54693a1.13653,1.13653,0,0,0,.54693.20168Z"/><path class="cls-27" d="M50.12481,60.97827v.74861a1.13649,1.13649,0,0,0,.54693-.20168Z"/></g><path class="cls-12" d="M49.70777,62.16325H46.87088l-.19407,5.30521a1.153,1.153,0,0,0,1.15327,1.145h.91843a1.1545,1.1545,0,0,0,1.15316-1.15327Z"/><path class="cls-31" d="M49.70777,62.16325H46.87088l-.19407,5.30521a1.153,1.153,0,0,0,1.15327,1.145h.91843a1.1545,1.1545,0,0,0,1.15316-1.15327Z"/><path class="cls-12" d="M45.44847,59.64932h1.07511c.45213,0,.91876-.06157,1.10519.4686a13.28582,13.28582,0,0,1,.35958,2.09667c.0375.21869.37052.126.33317-.09185l-.20246-1.18057a4.112,4.112,0,0,0-.23411-1.14408c-.39471-.771-1.73987-.49426-2.43648-.49426a.17285.17285,0,0,0,0,.34549Z"/><g class="cls-7"><path class="cls-27" d="M45.44847,59.64932h1.07511c.45213,0,.91876-.06157,1.10519.4686a13.28582,13.28582,0,0,1,.35958,2.09667c.0375.21869.37052.126.33317-.09185l-.20246-1.18057a4.112,4.112,0,0,0-.23411-1.14408c-.39471-.771-1.73987-.49426-2.43648-.49426a.17285.17285,0,0,0,0,.34549Z"/></g><path class="cls-12" d="M47.36393,61.98337h.54335a.21779.21779,0,0,1,.21779.21779v.54336a.21779.21779,0,0,1-.21779.21779h-.54337a.21778.21778,0,0,1-.21778-.21778v-.54336A.21779.21779,0,0,1,47.36393,61.98337Z" transform="translate(58.12932 -15.38529) rotate(45.00163)"/><path class="cls-12" d="M48.7886,62.44853H49.332a.2178.2178,0,0,1,.2178.2178v.54333a.2178.2178,0,0,1-.2178.2178H48.7886a.21778.21778,0,0,1-.21778-.21778v-.54337a.21778.21778,0,0,1,.21778-.21778Z" transform="translate(15.177 -9.31175) rotate(12.81111)"/><path class="cls-12" d="M47.32437,63.4425h.54337a.21779.21779,0,0,1,.21779.21779v.54335a.21781.21781,0,0,1-.21781.21781h-.54335a.21779.21779,0,0,1-.21779-.21779v-.54336a.21779.21779,0,0,1,.21779-.21779Z" transform="translate(-7.88668 6.71005) rotate(-7.44898)"/><path class="cls-12" d="M48.61427,63.99424h.54336a.21781.21781,0,0,1,.21781.21781v.54335a.21778.21778,0,0,1-.21778.21778h-.54337a.2178.2178,0,0,1-.2178-.2178V64.212A.21779.21779,0,0,1,48.61427,63.99424Z" transform="translate(38.79055 -15.8037) rotate(29.99944)"/><path class="cls-28" d="M47.36393,61.98337h.54335a.21779.21779,0,0,1,.21779.21779v.54336a.21779.21779,0,0,1-.21779.21779h-.54337a.21778.21778,0,0,1-.21778-.21778v-.54336A.21779.21779,0,0,1,47.36393,61.98337Z" transform="translate(58.12932 -15.38529) rotate(45.00163)"/><path class="cls-28" d="M48.7886,62.44853H49.332a.2178.2178,0,0,1,.2178.2178v.54333a.2178.2178,0,0,1-.2178.2178H48.7886a.21778.21778,0,0,1-.21778-.21778v-.54337a.21778.21778,0,0,1,.21778-.21778Z" transform="translate(15.177 -9.31175) rotate(12.81111)"/><path class="cls-28" d="M47.32437,63.4425h.54337a.21779.21779,0,0,1,.21779.21779v.54335a.21781.21781,0,0,1-.21781.21781h-.54335a.21779.21779,0,0,1-.21779-.21779v-.54336a.21779.21779,0,0,1,.21779-.21779Z" transform="translate(-7.88668 6.71005) rotate(-7.44898)"/><path class="cls-28" d="M48.61427,63.99424h.54336a.21781.21781,0,0,1,.21781.21781v.54335a.21778.21778,0,0,1-.21778.21778h-.54337a.2178.2178,0,0,1-.2178-.2178V64.212A.21779.21779,0,0,1,48.61427,63.99424Z" transform="translate(38.79055 -15.8037) rotate(29.99944)"/><path class="cls-12" d="M36.636,68.84365a3.89974,3.89974,0,0,0,2.36334,1.05758l8.4385.70312a3.91788,3.91788,0,0,0,3.606-1.7607Z"/><path class="cls-29" d="M36.636,68.84365a3.89974,3.89974,0,0,0,2.36334,1.05758l8.4385.70312a3.91788,3.91788,0,0,0,3.606-1.7607Z"/><circle class="cls-27" cx="41.82135" cy="58.1707" r="1.27325"/><path class="cls-27" d="M40.66183,57.16935a1.54337,1.54337,0,0,1,.15815-.15816q-.40254-.40261-.8052-.8052a.11189.11189,0,0,0-.15814.15814Q40.25921,56.76675,40.66183,57.16935Z"/><path class="cls-27" d="M40.288,58.1707c0-.03776.003-.07477.00567-.11183h-1.139a.1119.1119,0,0,0,0,.22367h1.139C40.291,58.24547,40.288,58.20847,40.288,58.1707Z"/><path class="cls-27" d="M42.98086,57.16933l.8052-.8052a.11189.11189,0,0,0-.15814-.15814l-.80522.8052A1.54528,1.54528,0,0,1,42.98086,57.16933Z"/><path class="cls-27" d="M41.82135,56.63741c.03774,0,.07477.00295.11184.00564V55.504a.11191.11191,0,0,0-.22368,0v1.13905C41.74658,56.64036,41.7836,56.63741,41.82135,56.63741Z"/><path class="cls-27" d="M44.48805,58.05887H43.349c.00271.03706.00566.07407.00566.11183s-.003.07477-.00566.11184h1.13907A.1119.1119,0,0,0,44.48805,58.05887Z"/><path class="cls-27" d="M42.98086,59.17205a1.54538,1.54538,0,0,1-.15816.15815l.80522.80522a.1119.1119,0,0,0,.15814-.15817Z"/><path class="cls-27" d="M40.66183,59.17205l-.80519.8052a.1119.1119,0,0,0,.15814.15817L40.82,59.3302A1.54265,1.54265,0,0,1,40.66183,59.17205Z"/><path class="cls-27" d="M41.82135,59.704c-.03775,0-.07477-.003-.11184-.00565v1.139a.11191.11191,0,0,0,.22368,0v-1.139C41.89612,59.701,41.85909,59.704,41.82135,59.704Z"/><path class="cls-12" d="M41.37381,64.02972a.202.202,0,0,1-.005-.038c0-.1977.28966-.36958.716-.45748a.13535.13535,0,0,1-.01619-.06238c0-.17794.37861-.32219.84559-.32219s.84556.14425.84556.32219a.1891.1891,0,0,1-.0887.143.64952.64952,0,0,1,.41139.30415c.57984.05991,1.00694.2613,1.00694.50121,0,.2871-.6108.51984-1.36427.51984-.05059,0-.10039-.00123-.14956-.00328a2.72556,2.72556,0,0,1-1.62018.40357c-.97741,0-1.76974-.30189-1.76974-.67431C40.18564,64.37134,40.68252,64.12148,41.37381,64.02972Z"/><path class="cls-32" d="M41.37381,64.02972a.202.202,0,0,1-.005-.038c0-.1977.28966-.36958.716-.45748a.13535.13535,0,0,1-.01619-.06238c0-.17794.37861-.32219.84559-.32219s.84556.14425.84556.32219a.1891.1891,0,0,1-.0887.143.64952.64952,0,0,1,.41139.30415c.57984.05991,1.00694.2613,1.00694.50121,0,.2871-.6108.51984-1.36427.51984-.05059,0-.10039-.00123-.14956-.00328a2.72556,2.72556,0,0,1-1.62018.40357c-.97741,0-1.76974-.30189-1.76974-.67431C40.18564,64.37134,40.68252,64.12148,41.37381,64.02972Z"/><path class="cls-12" d="M41.32676,62.70431a.287.287,0,0,0,.0071-.0535c0-.27815-.40753-.52-1.0074-.64365a.19062.19062,0,0,0,.02274-.08774c0-.25036-.53265-.45331-1.18968-.45331s-1.18964.203-1.18964.45331a.266.266,0,0,0,.12479.20122.91388.91388,0,0,0-.5788.4279c-.81581.0843-1.41669.36764-1.41669.70516,0,.40394.85937.73139,1.91945.73139.07117,0,.14124-.00172.2104-.00458a3.83489,3.83489,0,0,0,2.27949.56778c1.37515,0,2.4899-.42476,2.4899-.94875C42.99842,63.185,42.29936,62.83342,41.32676,62.70431Z"/><path class="cls-33" d="M41.32676,62.70431a.287.287,0,0,0,.0071-.0535c0-.27815-.40753-.52-1.0074-.64365a.19062.19062,0,0,0,.02274-.08774c0-.25036-.53265-.45331-1.18968-.45331s-1.18964.203-1.18964.45331a.266.266,0,0,0,.12479.20122.91388.91388,0,0,0-.5788.4279c-.81581.0843-1.41669.36764-1.41669.70516,0,.40394.85937.73139,1.91945.73139.07117,0,.14124-.00172.2104-.00458a3.83489,3.83489,0,0,0,2.27949.56778c1.37515,0,2.4899-.42476,2.4899-.94875C42.99842,63.185,42.29936,62.83342,41.32676,62.70431Z"/><path class="cls-34" d="M61.51525,63.17766s7.497-9.2133,22.78882-1.82539"/><path class="cls-34" d="M84.56705,69.43356s-22.33815-5.2833-23.0518-9.62172"/><path class="cls-34" d="M61.52441,58.25519S81.99477,43.63977,85.278,49.44656"/><path class="cls-34" d="M84.30407,64.6227S58.59862,50.62615,62.04223,35.71182"/><path class="cls-34" d="M85.278,36.52914s5.47039,5.06169,4.91124,12.71234"/><path class="cls-34" d="M85.14687,50.784s-4.548,19.6224-23.42213,3.90348"/><path class="cls-34" d="M84.66459,55.78588S68.67491,46.87417,72.37438,34.31325"/><path class="cls-34" d="M62.11052,50.16726S81.20026,47.306,81.61119,34.77482"/><path class="cls-34" d="M67.138,34.31325s-9.74937,28.7325,17.59468,37.97732"/><path class="cls-34" d="M93.39473,45.24939S63.88606,42.9,61.98229,69.76275"/><path class="cls-34" d="M55.81877,41.097s22.36795-2.75179,19.66429,32.317"/><path class="cls-34" d="M66.54756,71.84867S69.46372,46.446,91.1789,40.33636"/><ellipse class="cls-35" cx="72.21406" cy="22.88941" rx="0.24757" ry="0.51139" transform="translate(26.91435 83.60788) rotate(-70.86165)"/><ellipse class="cls-35" cx="75.3609" cy="24.24352" rx="0.24757" ry="0.51139" transform="translate(27.75023 87.49095) rotate(-70.86165)"/><path class="cls-36" d="M73.6895,22.99552s-1.05477,1.061,0,1.6269"/><path class="cls-36" d="M72.1035,26.55585a1.18761,1.18761,0,0,0,1.81553.63662"/></g><path class="cls-12" d="M39.868,53.97565h8.05525a4.125,4.125,0,0,1,4.125,4.125v8.05524a4.125,4.125,0,0,1-4.125,4.125H39.868a4.125,4.125,0,0,1-4.125-4.125V58.10068a4.125,4.125,0,0,1,4.125-4.125Z" transform="translate(-21.66308 100.71339) rotate(-85.23689)"/><path class="cls-30" d="M39.868,53.97565h8.05525a4.125,4.125,0,0,1,4.125,4.125v8.05524a4.125,4.125,0,0,1-4.125,4.125H39.868a4.125,4.125,0,0,1-4.125-4.125V58.10068a4.125,4.125,0,0,1,4.125-4.125Z" transform="translate(-21.66308 100.71339) rotate(-85.23689)"/><path class="cls-27" d="M48.74849,68.84365h-.91837a1.38354,1.38354,0,0,1-1.38354-1.38351l.23036-6.29441h3.22473l.23033,6.29441A1.38351,1.38351,0,0,1,48.74849,68.84365Z"/><path class="cls-12" d="M51.35567,60.59228a1.346,1.346,0,1,1-1.346-1.34605A1.346,1.346,0,0,1,51.35567,60.59228Z"/><path class="cls-28" d="M51.35567,60.59228a1.346,1.346,0,1,1-1.346-1.34605A1.346,1.346,0,0,1,51.35567,60.59228Z"/><path class="cls-12" d="M50.12481,59.45767v.96454l.66526-.66525A1.13737,1.13737,0,0,0,50.12481,59.45767Z"/><path class="cls-12" d="M49.73162,60.58508l-.65492-.6549a1.13825,1.13825,0,0,0-.21258.6549Z"/><path class="cls-12" d="M49.89446,59.45767a1.13717,1.13717,0,0,0-.66525.29932l.66525.66522Z"/><path class="cls-12" d="M49.73162,60.81541h-.84568a1.13961,1.13961,0,0,0,.28838.55728Z"/><path class="cls-12" d="M50.28765,60.81541l.55731.55728a1.13938,1.13938,0,0,0,.28837-.55728Z"/><path class="cls-12" d="M50.28765,60.58508h.8675a1.13806,1.13806,0,0,0-.21258-.6549Z"/><path class="cls-12" d="M49.89446,60.97827l-.54693.54693a1.13653,1.13653,0,0,0,.54693.20168Z"/><path class="cls-12" d="M50.12481,60.97827v.74861a1.13649,1.13649,0,0,0,.54693-.20168Z"/><g class="cls-5"><path class="cls-27" d="M50.12481,59.45767v.96454l.66526-.66525A1.13737,1.13737,0,0,0,50.12481,59.45767Z"/><path class="cls-27" d="M49.73162,60.58508l-.65492-.6549a1.13825,1.13825,0,0,0-.21258.6549Z"/><path class="cls-27" d="M49.89446,59.45767a1.13717,1.13717,0,0,0-.66525.29932l.66525.66522Z"/><path class="cls-27" d="M49.73162,60.81541h-.84568a1.13961,1.13961,0,0,0,.28838.55728Z"/><path class="cls-27" d="M50.28765,60.81541l.55731.55728a1.13938,1.13938,0,0,0,.28837-.55728Z"/><path class="cls-27" d="M50.28765,60.58508h.8675a1.13806,1.13806,0,0,0-.21258-.6549Z"/><path class="cls-27" d="M49.89446,60.97827l-.54693.54693a1.13653,1.13653,0,0,0,.54693.20168Z"/><path class="cls-27" d="M50.12481,60.97827v.74861a1.13649,1.13649,0,0,0,.54693-.20168Z"/></g><path class="cls-12" d="M49.70777,62.16325H46.87088l-.19407,5.30521a1.153,1.153,0,0,0,1.15327,1.145h.91843a1.1545,1.1545,0,0,0,1.15316-1.15327Z"/><path class="cls-31" d="M49.70777,62.16325H46.87088l-.19407,5.30521a1.153,1.153,0,0,0,1.15327,1.145h.91843a1.1545,1.1545,0,0,0,1.15316-1.15327Z"/><path class="cls-12" d="M45.44847,59.64932h1.07511c.45213,0,.91876-.06157,1.10519.4686a13.28582,13.28582,0,0,1,.35958,2.09667c.0375.21869.37052.126.33317-.09185l-.20246-1.18057a4.112,4.112,0,0,0-.23411-1.14408c-.39471-.771-1.73987-.49426-2.43648-.49426a.17285.17285,0,0,0,0,.34549Z"/><g class="cls-7"><path class="cls-27" d="M45.44847,59.64932h1.07511c.45213,0,.91876-.06157,1.10519.4686a13.28582,13.28582,0,0,1,.35958,2.09667c.0375.21869.37052.126.33317-.09185l-.20246-1.18057a4.112,4.112,0,0,0-.23411-1.14408c-.39471-.771-1.73987-.49426-2.43648-.49426a.17285.17285,0,0,0,0,.34549Z"/></g><path class="cls-12" d="M47.36393,61.98337h.54335a.21779.21779,0,0,1,.21779.21779v.54336a.21779.21779,0,0,1-.21779.21779h-.54337a.21778.21778,0,0,1-.21778-.21778v-.54336A.21779.21779,0,0,1,47.36393,61.98337Z" transform="translate(58.12932 -15.38529) rotate(45.00163)"/><path class="cls-12" d="M48.7886,62.44853H49.332a.2178.2178,0,0,1,.2178.2178v.54333a.2178.2178,0,0,1-.2178.2178H48.7886a.21778.21778,0,0,1-.21778-.21778v-.54337a.21778.21778,0,0,1,.21778-.21778Z" transform="translate(15.177 -9.31175) rotate(12.81111)"/><path class="cls-12" d="M47.32437,63.4425h.54337a.21779.21779,0,0,1,.21779.21779v.54335a.21781.21781,0,0,1-.21781.21781h-.54335a.21779.21779,0,0,1-.21779-.21779v-.54336a.21779.21779,0,0,1,.21779-.21779Z" transform="translate(-7.88668 6.71005) rotate(-7.44898)"/><path class="cls-12" d="M48.61427,63.99424h.54336a.21781.21781,0,0,1,.21781.21781v.54335a.21778.21778,0,0,1-.21778.21778h-.54337a.2178.2178,0,0,1-.2178-.2178V64.212A.21779.21779,0,0,1,48.61427,63.99424Z" transform="translate(38.79055 -15.8037) rotate(29.99944)"/><path class="cls-28" d="M47.36393,61.98337h.54335a.21779.21779,0,0,1,.21779.21779v.54336a.21779.21779,0,0,1-.21779.21779h-.54337a.21778.21778,0,0,1-.21778-.21778v-.54336A.21779.21779,0,0,1,47.36393,61.98337Z" transform="translate(58.12932 -15.38529) rotate(45.00163)"/><path class="cls-28" d="M48.7886,62.44853H49.332a.2178.2178,0,0,1,.2178.2178v.54333a.2178.2178,0,0,1-.2178.2178H48.7886a.21778.21778,0,0,1-.21778-.21778v-.54337a.21778.21778,0,0,1,.21778-.21778Z" transform="translate(15.177 -9.31175) rotate(12.81111)"/><path class="cls-28" d="M47.32437,63.4425h.54337a.21779.21779,0,0,1,.21779.21779v.54335a.21781.21781,0,0,1-.21781.21781h-.54335a.21779.21779,0,0,1-.21779-.21779v-.54336a.21779.21779,0,0,1,.21779-.21779Z" transform="translate(-7.88668 6.71005) rotate(-7.44898)"/><path class="cls-28" d="M48.61427,63.99424h.54336a.21781.21781,0,0,1,.21781.21781v.54335a.21778.21778,0,0,1-.21778.21778h-.54337a.2178.2178,0,0,1-.2178-.2178V64.212A.21779.21779,0,0,1,48.61427,63.99424Z" transform="translate(38.79055 -15.8037) rotate(29.99944)"/><path class="cls-12" d="M36.636,68.84365a3.89974,3.89974,0,0,0,2.36334,1.05758l8.4385.70312a3.91788,3.91788,0,0,0,3.606-1.7607Z"/><path class="cls-29" d="M36.636,68.84365a3.89974,3.89974,0,0,0,2.36334,1.05758l8.4385.70312a3.91788,3.91788,0,0,0,3.606-1.7607Z"/><circle class="cls-27" cx="41.82135" cy="58.1707" r="1.27325"/><path class="cls-27" d="M40.66183,57.16935a1.54337,1.54337,0,0,1,.15815-.15816q-.40254-.40261-.8052-.8052a.11189.11189,0,0,0-.15814.15814Q40.25921,56.76675,40.66183,57.16935Z"/><path class="cls-27" d="M40.288,58.1707c0-.03776.003-.07477.00567-.11183h-1.139a.1119.1119,0,0,0,0,.22367h1.139C40.291,58.24547,40.288,58.20847,40.288,58.1707Z"/><path class="cls-27" d="M42.98086,57.16933l.8052-.8052a.11189.11189,0,0,0-.15814-.15814l-.80522.8052A1.54528,1.54528,0,0,1,42.98086,57.16933Z"/><path class="cls-27" d="M41.82135,56.63741c.03774,0,.07477.00295.11184.00564V55.504a.11191.11191,0,0,0-.22368,0v1.13905C41.74658,56.64036,41.7836,56.63741,41.82135,56.63741Z"/><path class="cls-27" d="M44.48805,58.05887H43.349c.00271.03706.00566.07407.00566.11183s-.003.07477-.00566.11184h1.13907A.1119.1119,0,0,0,44.48805,58.05887Z"/><path class="cls-27" d="M42.98086,59.17205a1.54538,1.54538,0,0,1-.15816.15815l.80522.80522a.1119.1119,0,0,0,.15814-.15817Z"/><path class="cls-27" d="M40.66183,59.17205l-.80519.8052a.1119.1119,0,0,0,.15814.15817L40.82,59.3302A1.54265,1.54265,0,0,1,40.66183,59.17205Z"/><path class="cls-27" d="M41.82135,59.704c-.03775,0-.07477-.003-.11184-.00565v1.139a.11191.11191,0,0,0,.22368,0v-1.139C41.89612,59.701,41.85909,59.704,41.82135,59.704Z"/><path class="cls-12" d="M41.37381,64.02972a.202.202,0,0,1-.005-.038c0-.1977.28966-.36958.716-.45748a.13535.13535,0,0,1-.01619-.06238c0-.17794.37861-.32219.84559-.32219s.84556.14425.84556.32219a.1891.1891,0,0,1-.0887.143.64952.64952,0,0,1,.41139.30415c.57984.05991,1.00694.2613,1.00694.50121,0,.2871-.6108.51984-1.36427.51984-.05059,0-.10039-.00123-.14956-.00328a2.72556,2.72556,0,0,1-1.62018.40357c-.97741,0-1.76974-.30189-1.76974-.67431C40.18564,64.37134,40.68252,64.12148,41.37381,64.02972Z"/><path class="cls-32" d="M41.37381,64.02972a.202.202,0,0,1-.005-.038c0-.1977.28966-.36958.716-.45748a.13535.13535,0,0,1-.01619-.06238c0-.17794.37861-.32219.84559-.32219s.84556.14425.84556.32219a.1891.1891,0,0,1-.0887.143.64952.64952,0,0,1,.41139.30415c.57984.05991,1.00694.2613,1.00694.50121,0,.2871-.6108.51984-1.36427.51984-.05059,0-.10039-.00123-.14956-.00328a2.72556,2.72556,0,0,1-1.62018.40357c-.97741,0-1.76974-.30189-1.76974-.67431C40.18564,64.37134,40.68252,64.12148,41.37381,64.02972Z"/><path class="cls-12" d="M41.32676,62.70431a.287.287,0,0,0,.0071-.0535c0-.27815-.40753-.52-1.0074-.64365a.19062.19062,0,0,0,.02274-.08774c0-.25036-.53265-.45331-1.18968-.45331s-1.18964.203-1.18964.45331a.266.266,0,0,0,.12479.20122.91388.91388,0,0,0-.5788.4279c-.81581.0843-1.41669.36764-1.41669.70516,0,.40394.85937.73139,1.91945.73139.07117,0,.14124-.00172.2104-.00458a3.83489,3.83489,0,0,0,2.27949.56778c1.37515,0,2.4899-.42476,2.4899-.94875C42.99842,63.185,42.29936,62.83342,41.32676,62.70431Z"/><path class="cls-33" d="M41.32676,62.70431a.287.287,0,0,0,.0071-.0535c0-.27815-.40753-.52-1.0074-.64365a.19062.19062,0,0,0,.02274-.08774c0-.25036-.53265-.45331-1.18968-.45331s-1.18964.203-1.18964.45331a.266.266,0,0,0,.12479.20122.91388.91388,0,0,0-.5788.4279c-.81581.0843-1.41669.36764-1.41669.70516,0,.40394.85937.73139,1.91945.73139.07117,0,.14124-.00172.2104-.00458a3.83489,3.83489,0,0,0,2.27949.56778c1.37515,0,2.4899-.42476,2.4899-.94875C42.99842,63.185,42.29936,62.83342,41.32676,62.70431Z"/></g></svg>