<svg xmlns="http://www.w3.org/2000/svg" xmlns:xlink="http://www.w3.org/1999/xlink" viewBox="0 0 191.81 114.29153"><defs><style>.cls-1,.cls-14,.cls-15,.cls-4,.cls-8{fill:none;}.cls-2{clip-path:url(#clip-path);}.cls-3{fill:#5274b8;}.cls-15,.cls-4,.cls-8{stroke:#fff;}.cls-14,.cls-15,.cls-17,.cls-4,.cls-7,.cls-8,.cls-9{stroke-miterlimit:10;}.cls-4{stroke-width:0.91488px;}.cls-5{fill:#e2e2e2;}.cls-6{clip-path:url(#clip-path-2);}.cls-10,.cls-17,.cls-7{fill:#e07f48;}.cls-14,.cls-17,.cls-7,.cls-9{stroke:#010101;}.cls-7{stroke-width:0.21206px;}.cls-8{stroke-width:0.64919px;}.cls-9{fill:#9a4e26;}.cls-14,.cls-17,.cls-9{stroke-width:0.14108px;}.cls-11{fill:#e0a971;}.cls-12{fill:#ba9653;}.cls-13{fill:#b7673e;}.cls-15{stroke-width:0.70539px;}.cls-16{fill:#fbfcf0;}.cls-18{fill:#303030;}.cls-19{fill:#1f404c;}.cls-20{fill:#345c6f;}.cls-21{fill:#aabdc7;}.cls-22{fill:#bbd0db;}.cls-23{fill:#f89623;}.cls-24{fill:#fff;}.cls-25{fill:#010101;}.cls-26{fill:#f59193;}</style><clipPath id="clip-path"><path class="cls-1" d="M145.2,191.03421c-9.68,6.35-19.3,7.02-27.28,7.58-77.17,5.42-81.79,5.84-93.98,3.03-8.63-1.99-16.64-3.89-23.94-6.95v-49.55a9.86064,9.86064,0,0,1,9.86-9.86H146.24c9.46,5.41,17.49,12.67,18.67,22.4C166.45,170.47421,155.73,184.1442,145.2,191.03421Z"/></clipPath><clipPath id="clip-path-2"><path class="cls-1" d="M155.03.04286c-1.06,12.09-6.48,25.76995-13.39,28.63-8.3,3.43-16.63995-9.64-24.31-3.56006-3.6,2.85-3.12,6.8-6.95,13.05-2.45,4-7.43,10.21-20.84,14.24-32.88,9.87-65,19.52-89.54,11.15v-52.49A11.02148,11.02148,0,0,1,11.02.04286Z"/></clipPath></defs><title>cards</title><g id="Layer_1" data-name="Layer 1"><g class="cls-2"><path class="cls-3" d="M27.83707,78.38325H98.24014a78.79509,78.79509,0,0,1,78.79509,78.79509v.00016a78.79516,78.79516,0,0,1-78.79516,78.79516h-70.403A78.79513,78.79513,0,0,1-50.958,157.17852v-.00016A78.79511,78.79511,0,0,1,27.83707,78.38325Z"/><path class="cls-4" d="M-4.80339,109.0682c1.83622-3.43732,4.00433-6.35054,6.11351-6.11352,2.85873.32126,3.66126,6.21072,6.21519,6.21518,2.63566.00461,3.62406-6.26466,6.26467-6.26467,2.64126,0,3.63354,6.27233,6.26487,6.26488,2.6231-.00743,3.62924-6.24623,6.21458-6.21458,2.46907.03023,3.30061,5.7406,5.7697,5.7697,2.57307.03033,3.54852-6.14748,6.17314-6.17315,2.73578-.02675,4.05557,6.66208,6.50664,6.50665,1.34951-.08558,2.32-2.20017,2.92082-3.9313"/><circle class="cls-4" cx="103.91882" cy="114.91507" r="13.36463"/><circle class="cls-4" cx="103.91882" cy="115.46768" r="5.51684"/></g><path class="cls-5" d="M90.45476,30.349H97.6824A1.49158,1.49158,0,0,1,99.174,31.84059v.90923a1.49158,1.49158,0,0,1-1.49158,1.49158H90.45476a1.49159,1.49159,0,0,1-1.49159-1.49159V31.8406A1.49159,1.49159,0,0,1,90.45476,30.349Z" transform="translate(93.6302 131.75216) rotate(-108.6956)"/><path class="cls-5" d="M92.37448,34.09672q2.46834-.04384,4.937-.0383c.466.001.51216.72824.04171.72718q-2.46873-.00552-4.937.03831C91.94938,34.8322,91.904,34.10508,92.37448,34.09672Z"/><path class="cls-5" d="M91.64084,31.92872q2.46834-.04383,4.937-.0383c.466.001.51217.72824.04171.72718q-2.46873-.00552-4.937.03832C91.21574,32.66421,91.17039,31.93708,91.64084,31.92872Z"/><path class="cls-5" d="M91.2145,29.95888q2.46834-.04385,4.937-.0383c.466.001.51216.72824.04171.7272q-2.46873-.00555-4.937.0383C90.7894,30.69436,90.74405,29.96724,91.2145,29.95888Z"/><path class="cls-5" d="M91.62019,28.09854q1.37859-.194,2.76412-.349c.68109-.075,1.7071-.38309,2.38009-.02165.6429.34533.97216,1.32332,1.26833,1.9472a22.30083,22.30083,0,0,1,1.05986,2.65921,23.31117,23.31117,0,0,1,.65041,2.474c.13565.65268.24181,1.30213-.302,1.74879-1.18.96931-3.27989.83918-4.741.81939-.8701-.0118-1.00466-1.40384-.128-1.39195a11.016,11.016,0,0,0,3.56637-.35234c.43147-.13887.37744-.15229.28433-.62269-.07-.35358-.15488-.7054-.24671-1.05494q-.24148-.91932-.56317-1.819-.32176-.898-.71966-1.76884a8.13823,8.13823,0,0,0-.47842-.97408c-.25838-.40271-.2644-.35619-.66916-.37817a11.3484,11.3484,0,0,0-1.84881.197q-1.07673.12631-2.14853.27905C90.89192,29.611,90.76825,28.21841,91.62019,28.09854Z"/><path class="cls-5" d="M88.40778,28.95766c.65058-.18409,1.31268-.27135,1.96163-.46247.10064-.034.20109-.06645.30041-.0966.85953-.26111,1.38369,1.02855.51854,1.33506q-.33552.11889-.67492.21972c-.52725.204-.98846.51507-.95994,1.16389a8.29331,8.29331,0,0,0,.69539,2.55486,11.69183,11.69183,0,0,0,1.27088,2.365c.30434.43632.2718.53133.7838.46784.45606-.05656.91134-.11969,1.36694-.17952a.66169.66169,0,0,1,.75931.64988.62251.62251,0,0,1-.19127.87231c-1.01542.68106-2.39709,1.35146-3.53331.44242a4.7962,4.7962,0,0,1-1.09534-1.95636L88.58863,33.969c-.4809-1.11339-1.57648-2.72506-1.25027-3.98988A1.41794,1.41794,0,0,1,88.40778,28.95766Z"/><path class="cls-5" d="M101.44682,33.2586c1.89331-.19864,3.73471-.54083,5.5988-.92331a34.63418,34.63418,0,0,0,3.68647-.8638c1.19378-.3836,2.37672-.8021,3.58295-1.146.90158-.25706,3.72285-1.339,4.30137-.16789.34967.70824-.36895,1.57-.78939,2.073-.62285.74524-1.27607,1.50274-1.94347,2.19953a33.63018,33.63018,0,0,1-6.73674,5.42594A20.37012,20.37012,0,0,1,102.8603,42.527q-.38544.08227-.776.14319a.5762.5762,0,0,1-.32592-.01392.59128.59128,0,0,1-.26073-.39275,64.3555,64.3555,0,0,1-1.91724-7.63643,1.50249,1.50249,0,0,1,.042-.98382C99.87958,33.164,100.9844,33.30713,101.44682,33.2586Z"/><path class="cls-5" d="M88.7072,29.14057a.59148.59148,0,0,0-.46523.806l2.39385,6.91693a.67823.67823,0,0,0,.7197.461l3.04011-.44125,2.24574,6.57414-.00009.00007c-.07213-.09811-1.00547-.1055-1.32932-.23493a5.83363,5.83363,0,0,0-1.70216-.36646c-3.96259-.39587-8.172-.51749-11.5499,1.93812-5.433,3.94957-10.772,8.04279-16.11218,12.1165C60.53041,61.04324,55.15669,65.23407,49.879,69.544q-.15842.12935-.31665.25882C46.9525,71.938,44.366,74.1016,41.77281,76.257q-2.02254,1.681-4.05454,3.35079c-1.45783,1.19471-2.36108,2.44369-4.41836,1.80163a10.76605,10.76605,0,0,1-4.87626-3.3583A9.8008,9.8008,0,0,1,26.45312,73.877c-.35178-1.65419-.98981-3.71245.71048-4.79423.746-.47466,1.48319-.94672,2.19584-1.4718,10.97308-7.45644,22.14087-14.88236,32.95484-22.65394q1.14981-.82635,2.30146-1.65006c2.84013-2.02842,7.55763-5.66527,10.33111-7.78713,5.40361-4.134,6.032-7.187,9.14327-12.20662,1.25619-2.02669,2.43025-4.10356,3.54881-6.20931l3.98783,11.67385Z"/><path class="cls-5" d="M97.12469,11.49336c4.088-.77237,14.14339,4.23868,16.78953,5.34306a1.914,1.914,0,0,1,.92362,3.18793c-.474.07138-.94721.1485-1.42014.22663q-1.91937.317-3.83009.68419-1.39609.26985-2.78821.5599c-.46408.0961-.929.18956-1.39187.29121-.37023.08128-.70968.27134-1.07637.38481-.40813.12631-.81684.25282-1.21265.4136A7.71832,7.71832,0,0,0,100.9329,23.868c-.21486.192-.54777.69114-.43034,1.01772.01388.03863,6.44215,17.91771,6.44215,17.91771a.33013.33013,0,0,1-.30365.44173l-9.99969.21228c.0014-.00054.46161-.35624.34844-1.616a18.05619,18.05619,0,0,0-.45042-2.5557c-.209-.8785-.4636-1.74438-.7251-2.60831l2.52983-.3672a1.2232,1.2232,0,0,0,.91726-1.70162l-2.28971-5.96709a.67815.67815,0,0,0-.69981-.44091l-2.94949.36652q-2.17983-6.50193-4.99969-12.76484-.33806.65275-.68375,1.30168l-.17947-.52533C89.05,14.59229,93.0367,12.26573,97.12469,11.49336Z"/><path class="cls-5" d="M95.81429,36.67739c.2615.86393.51609,1.72981.7251,2.60831a18.05619,18.05619,0,0,1,.45042,2.5557c.11317,1.25977-.347,1.61547-.34844,1.616l-2.24574-6.57414Z"/><path class="cls-5" d="M93.32237,28.56709l-1.69561.21069L87.63893,17.10393q.34488-.6493.68375-1.30168Q91.13881,22.05456,93.32237,28.56709Z"/><path class="cls-5" d="M66.86519,56.86163l-.29333.22377c-5.77042,4.40191-11.49444,8.86593-17.11611,13.45675q-.16869.13777-.33728.27569c-2.78,2.27441-5.53508,4.579-8.29733,6.87488q-2.15436,1.79063-4.31882,3.56921c-1.55285,1.27258-2.515,2.603-4.70639,1.91907a11.46765,11.46765,0,0,1-5.19409-3.5772,10.44022,10.44022,0,0,1-2.099-4.44616c-.37469-1.762-1.05428-3.95443.75682-5.10675.79463-.50558,1.57988-1.00841,2.339-1.56772,10.41735-7.0788,21.4477-14.47056,31.78085-21.7814Z"/><circle class="cls-5" cx="32.11025" cy="74.96463" r="2.91787" transform="translate(-45.2559 49.17234) rotate(-48.37535)"/><path class="cls-5" d="M66.11576,52.273l-2.27983-3.09426a1.3026,1.3026,0,0,1,.27544-1.82219c3.70778-2.73092,16.00927-11.83727,16.76569-12.99932.66881-1.02748,1.38042-2.02841,2.08428-3.032.40268-.57414,1.72321-3.19643,2.35284-3.37514,1.41452-.40149,2.08268,3.52911,2.39835,4.44776.62635,1.82272,1.22853,3.65386,1.821,5.48826a.91379.91379,0,0,1-.82346,1.19367,10.90219,10.90219,0,0,0-5.09621,1.38686c-2.07092,1.33748-12.30059,9.41167-15.64037,12.0559A1.30261,1.30261,0,0,1,66.11576,52.273Z"/><path class="cls-5" d="M30.34249,72.5274a3.10427,3.10427,0,1,1-.65781,4.34061A3.10783,3.10783,0,0,1,30.34249,72.5274Zm.19446.26394a2.77644,2.77644,0,1,0,3.8822.58833A2.77964,2.77964,0,0,0,30.537,72.79134Z"/><g class="cls-6"><path class="cls-7" d="M45.14761-64.89835H167.869a78.302,78.302,0,0,1,78.302,78.302v.00016a78.302,78.302,0,0,1-78.302,78.302H45.14761a78.302,78.302,0,0,1-78.302-78.302v-.00018A78.302,78.302,0,0,1,45.14761-64.89835Z"/><path class="cls-8" d="M37.52258,12.83868c1.303-2.43911,2.84145-4.50631,4.33811-4.33812,2.02854.228,2.598,4.40708,4.41026,4.41025,1.87025.00327,2.57161-4.44537,4.44537-4.44537,1.87422,0,2.57833,4.4508,4.44551,4.44552,1.86134-.00528,2.57529-4.43229,4.40983-4.40983,1.752.02145,2.34209,4.07349,4.09414,4.09415,1.82584.02152,2.518-4.36222,4.38043-4.38043,1.94128-.019,2.8778,4.72737,4.61706,4.61707.95761-.06073,1.64624-1.56122,2.0726-2.78962"/><path class="cls-9" d="M119.7926,65.20823c0,.75246-.03082,1.49877-.09251,2.2348A26.90671,26.90671,0,0,1,97.74272,91.666c-.13979.02467-.28164.04935-.42148.072a27.01958,27.01958,0,0,1-4.42026.36184H7.148a26.77026,26.77026,0,0,1-14.36275-4.153,26.983,26.983,0,0,1-10.5161-12.51447,26.797,26.797,0,0,1-2.01276-10.22415.45792.45792,0,0,1,.12335-.31251l.01028-.01233a.457.457,0,0,1,.32278-.13364H119.33413a.45772.45772,0,0,1,.45847.45848Z"/><rect class="cls-10" x="20.65355" y="72.04991" width="23.43007" height="14.7002"/><path class="cls-11" d="M97.84021,77.21423V91.48036c-.13979.02467-.28164.04934-.42148.072a27.01955,27.01955,0,0,1-4.42025.36184H74.4108V77.21423Z"/><path class="cls-12" d="M116.97479,77.21423A26.95487,26.95487,0,0,1,97.84021,91.48036c-.13979.02467-.28164.04934-.42148.072V77.21423Z"/><rect class="cls-10" x="90.8734" y="67.25723" width="15.86964" height="9.95673"/><path class="cls-13" d="M119.79759,67.25735a26.72045,26.72045,0,0,1-2.8228,9.95688H106.7794V67.25735Z"/><path class="cls-14" d="M52.81871,53.45484c.24218-1.9276.458-3.46475.5173-3.87828Z"/><circle class="cls-15" cx="89.26472" cy="-1.54468" r="10.30443"/><circle class="cls-15" cx="89.26472" cy="-1.1186" r="4.2536"/><polygon class="cls-16" points="58.05 36.674 61.001 37.506 63.363 36.171 63.9 36.518 63.487 37.191 65.765 36.633 67.471 37.444 67.885 39.899 66.637 42.173 64.116 42.34 61.432 41.035 57.341 40.068 58.05 36.674"/><path class="cls-17" d="M60.57794,36.524,41.42636,31.83023a9.09647,9.09647,0,0,1-2.02389-1.24184l-4.08325-2.50545c-.93085-.57116-2.56388-2.03438-3.693-2.03385-1.83959.00085-2.81273,2.74575-2.82608,4.219-.04094,4.52163,4.18317,6.45962,7.33208,8.88433l3.03729,1.57177,21.26451.42435Z"/><path class="cls-16" d="M38.8011,11.68011c-2.74711.91646-5.678-1.08868-8.32832.23608-1.7232.86135-2.89513,3.03026-3.17711,5.22022A5.96,5.96,0,0,0,27.575,20.1172a4.53605,4.53605,0,0,0,1.01691,1.475,5.4724,5.4724,0,0,0,1.87586,1.22716,14.88424,14.88424,0,0,1-.95747,2.11758q2.02893.38158,4.0579.7632l.52541-2.7646a5.70035,5.70035,0,0,0,1.11952-.48153,8.624,8.624,0,0,0,3.94367-6.85084A17.34783,17.34783,0,0,0,38.8011,11.68011Z"/><path class="cls-18" d="M24.89476,17.54938c-.1163-.19786-.22768-.39863-.32809-.60585-1.21769-2.51316-1.871-5.46393-.06974-7.88623a8.51779,8.51779,0,0,1,8.46368-2.81457c1.58238.403,3.255.9448,4.80643.43538A2.16214,2.16214,0,0,0,38.94418,5.855c.244-.38146.30683-.85844.55883-1.23469a1.5119,1.5119,0,0,1,2.544.32926,5.136,5.136,0,0,0,.26119.8913c.33919.59887,1.16681.62489,1.8492.71455a.88658.88658,0,0,1,.594.2537c.25378.31225.01209.80485-.33714,1.00479-.482.276-1.323.19864-1.62793.73941-.2205.39106.117,1.1409.06045,1.59233a4.75324,4.75324,0,0,1-3.0028,3.55411c-1.38042.51549-2.61636-.04419-3.99526-.39725a12.43544,12.43544,0,0,0-1.189-.397,4.111,4.111,0,0,0-1.418.27179,5.89138,5.89138,0,0,1-1.7603.00749,3.78792,3.78792,0,0,0-1.744.15438,1.46588,1.46588,0,0,0-.975,1.33859c.04007.71225.75739,1.26657.74388,1.97981-.01169.6185-.56152,1.08006-.79677,1.6522-.1821.44293-.18727.979-.51929,1.32418-.1474.15323-.3469.252-.48082.41719-.17513.21595-.229.53313-.46248.684a.66407.66407,0,0,1-.82132-.19961,2.45773,2.45773,0,0,1-.37928-.83542A11.78575,11.78575,0,0,0,24.89476,17.54938Z"/><path class="cls-17" d="M29.65407,24.76453a2.7485,2.7485,0,0,0-1.60382.15795,2.57025,2.57025,0,0,0-.91738,1.099,63.48617,63.48617,0,0,0-7.49206,36.56322,110.71244,110.71244,0,0,1,22.04645-1.723q-1.00934-7.317-2.01867-14.63388c-.49632-3.59807-.9937-7.20188-1.81856-10.74233a59.67244,59.67244,0,0,0-2.90894-9.10572C34.17488,24.51316,31.38468,24.94123,29.65407,24.76453Z"/><polygon class="cls-9" points="18.977 60.38 21.699 53.794 31.178 50.65 29.37 38.643 38.828 37.113 40.466 54.007 42.784 60.922 19.929 65.097 18.977 60.38"/><path class="cls-9" d="M29.88183,33.40521c.01539-1.85668-.08065-3.97028-1.49828-5.16937a1.78927,1.78927,0,0,0-1.1295-.47864c-.85324.00487-1.43253.839-1.85817,1.57854a4.5315,4.5315,0,0,1,.42545-3.22693,2.9391,2.9391,0,0,1,3.81843-.55557,5.1228,5.1228,0,0,1,2.14459,3.51853,23.18574,23.18574,0,0,1,.15228,4.23578,58.47589,58.47589,0,0,0,.43054,6.17234,21.72187,21.72187,0,0,0-2.4373.14853C29.43827,37.81528,29.866,35.3153,29.88183,33.40521Z"/><path class="cls-9" d="M36.27345,31.48332c-.20563-1.78844-.63813-3.762-2.12358-4.77893-.36824-.25211-.84386-.5289-.82122-.97459a.80461.80461,0,0,1,.43666-.61105,1.91778,1.91778,0,0,1,2.32491.61221,5.31077,5.31077,0,0,1,.91613,2.42177,68.41919,68.41919,0,0,1,1.18431,10.33806c.01975.52108-1.25079.23034-1.46432-.00479-.34956-.38492-.15467-1.28941-.15677-1.75222A47.822,47.822,0,0,0,36.27345,31.48332Z"/><path class="cls-19" d="M87.90518,27.81535h7.22764a1.49158,1.49158,0,0,1,1.49158,1.49158v.90923a1.49158,1.49158,0,0,1-1.49158,1.49158H87.90519a1.49159,1.49159,0,0,1-1.49159-1.49159v-.90921a1.49159,1.49159,0,0,1,1.49159-1.49159Z" transform="translate(92.66334 125.99132) rotate(-108.6956)"/><path class="cls-20" d="M89.8249,31.56306q2.46834-.04383,4.937-.0383c.466.001.51217.72824.04171.72718q-2.46873-.0055-4.937.03832C89.3998,32.29855,89.35445,31.57142,89.8249,31.56306Z"/><path class="cls-20" d="M89.09126,29.39506q2.46834-.04383,4.937-.0383c.466.001.51216.72824.0417.72719q-2.46873-.00552-4.937.03831C88.66616,30.13055,88.62081,29.40342,89.09126,29.39506Z"/><path class="cls-20" d="M88.66492,27.42522q2.46834-.04383,4.937-.0383c.466.001.51217.72824.04171.7272q-2.46873-.00553-4.937.0383C88.23982,28.16071,88.19447,27.43358,88.66492,27.42522Z"/><path class="cls-21" d="M89.07062,25.56488q1.37857-.19395,2.76411-.349c.6811-.075,1.70711-.38309,2.38009-.02165.64291.34533.97216,1.32331,1.26834,1.9472A22.30117,22.30117,0,0,1,96.543,29.8006a23.31158,23.31158,0,0,1,.6504,2.474c.13565.65268.24182,1.30213-.302,1.7488-1.18.9693-3.27988.83917-4.741.81939-.8701-.01181-1.00466-1.40385-.128-1.392a11.016,11.016,0,0,0,3.56637-.35235c.43147-.13886.37744-.15228.28434-.62268-.07-.35358-.15489-.7054-.24672-1.05495q-.24148-.9193-.56316-1.819-.32178-.898-.71967-1.76883a8.136,8.136,0,0,0-.47842-.97408c-.25837-.40271-.2644-.3562-.66916-.37817a11.34851,11.34851,0,0,0-1.84881.197q-1.07671.12631-2.14853.279C88.34234,27.07731,88.21867,25.68475,89.07062,25.56488Z"/><path class="cls-19" d="M85.8582,26.424c.65058-.18409,1.31268-.27134,1.96163-.46247.10064-.034.2011-.06644.30041-.0966.85953-.2611,1.3837,1.02856.51855,1.33507q-.33554.11888-.67493.21972c-.52725.204-.98846.51506-.95994,1.16389a8.29381,8.29381,0,0,0,.69539,2.55485,11.69267,11.69267,0,0,0,1.27088,2.365c.30434.43632.2718.53132.7838.46783.45607-.05656.91134-.11969,1.36694-.17951a.66168.66168,0,0,1,.75931.64988.62251.62251,0,0,1-.19126.87231c-1.01543.68106-2.3971,1.35146-3.53331.44241A4.796,4.796,0,0,1,87.06032,33.8l-1.02127-2.36466c-.4809-1.1134-1.57647-2.72507-1.25027-3.98988A1.418,1.418,0,0,1,85.8582,26.424Z"/><path class="cls-21" d="M98.89724,30.725c1.89331-.19864,3.73471-.54083,5.5988-.92331a34.63178,34.63178,0,0,0,3.68647-.86381c1.19378-.38359,2.37672-.80209,3.583-1.146.90158-.25707,3.72285-1.339,4.30137-.16789.34967.70823-.36895,1.57-.78939,2.073-.62285.74525-1.27606,1.50275-1.94347,2.19954a33.6299,33.6299,0,0,1-6.73674,5.42594,20.37034,20.37034,0,0,1-6.28651,2.6709q-.38544.08229-.776.14319a.5762.5762,0,0,1-.32592-.01392.59121.59121,0,0,1-.26072-.39274,64.35521,64.35521,0,0,1-1.91725-7.63644,1.50253,1.50253,0,0,1,.042-.98381C97.33,30.6303,98.43482,30.77347,98.89724,30.725Z"/><path class="cls-9" d="M86.15763,26.60691a.59149.59149,0,0,0-.46524.806l2.39385,6.91693a.67823.67823,0,0,0,.7197.461l3.04011-.44125,2.24575,6.57413-.00009.00007c-.07214-.0981-1.00547-.1055-1.32933-.23493a5.83356,5.83356,0,0,0-1.70215-.36646c-3.96259-.39586-8.172-.51749-11.54991,1.93813-5.433,3.94957-10.772,8.04279-16.11217,12.1165-5.41731,4.13253-10.791,8.32336-16.06869,12.63325q-.15841.12935-.31664.25883c-2.60989,2.13522-5.19638,4.2988-7.78958,6.45417q-2.02254,1.681-4.05455,3.3508c-1.45783,1.19471-2.36108,2.44368-4.41836,1.80162a10.76609,10.76609,0,0,1-4.87626-3.35829,9.80084,9.80084,0,0,1-1.97053-4.17408c-.35178-1.65418-.98981-3.71244.71048-4.79423.746-.47465,1.48319-.94672,2.19584-1.4718C37.78294,57.6209,48.95073,50.195,59.7647,42.42339q1.14981-.82633,2.30147-1.65006c2.84012-2.02841,7.55763-5.66526,10.3311-7.78712,5.40361-4.134,6.032-7.187,9.14327-12.20663,1.25619-2.02669,2.43025-4.10355,3.54881-6.2093l3.98783,11.67385Z"/><path class="cls-22" d="M94.57511,8.95971c4.088-.77237,14.14339,4.23867,16.78954,5.34306a1.91394,1.91394,0,0,1,.92361,3.18793c-.474.07138-.9472.1485-1.42013.22662q-1.91937.317-3.8301.6842-1.3961.26984-2.7882.5599c-.46409.0961-.929.18956-1.39188.2912-.37023.08129-.70967.27135-1.07637.38482-.40813.1263-.81684.25281-1.21265.4136a7.71832,7.71832,0,0,0-2.18561,1.28328c-.21486.192-.54777.69114-.43034,1.01772.01388.03862,6.44215,17.91771,6.44215,17.91771a.33013.33013,0,0,1-.30365.44173l-9.99968.21227c.0014-.00054.46161-.35623.34843-1.616a18.05476,18.05476,0,0,0-.45042-2.5557c-.209-.87849-.4636-1.74438-.7251-2.60831l2.52983-.36719a1.22321,1.22321,0,0,0,.91727-1.70162l-2.28972-5.96709a.67812.67812,0,0,0-.6998-.44091l-2.9495.36651Q88.593,19.53152,85.7731,13.2686q-.33805.65274-.68375,1.30168l-.17946-.52533C86.50042,12.05864,90.48713,9.73208,94.57511,8.95971Z"/><path class="cls-22" d="M93.26471,34.14373c.2615.86393.51609,1.72982.7251,2.60831a18.05476,18.05476,0,0,1,.45042,2.5557c.11318,1.25978-.347,1.61547-.34843,1.616l-2.24575-6.57413Z"/><path class="cls-22" d="M90.77279,26.03343l-1.69561.2107L85.08935,14.57028q.3449-.64931.68375-1.30168Q88.58923,19.52092,90.77279,26.03343Z"/><path class="cls-23" d="M64.31561,54.328l-.29332.22377c-5.77043,4.4019-11.49445,8.86593-17.11612,13.45675q-.16869.13778-.33727.27569c-2.78,2.27441-5.53509,4.579-8.29733,6.87488q-2.15437,1.79061-4.31883,3.5692c-1.55285,1.27259-2.515,2.603-4.70639,1.91908a11.46767,11.46767,0,0,1-5.19409-3.57721,10.44,10.44,0,0,1-2.099-4.44616c-.3747-1.762-1.05429-3.95443.75681-5.10674.79463-.50558,1.57988-1.00842,2.339-1.56772C35.46639,58.87072,46.49674,51.479,56.8299,44.16812Z"/><circle class="cls-24" cx="29.56067" cy="72.43098" r="2.91787" transform="translate(-44.218 46.41583) rotate(-48.37535)"/><path class="cls-13" d="M63.56618,49.73938l-2.27983-3.09427a1.30258,1.30258,0,0,1,.27544-1.82218C65.26957,42.092,77.57106,32.98565,78.32748,31.82361c.66881-1.02748,1.38042-2.02841,2.08428-3.032.40268-.57414,1.72321-3.19643,2.35284-3.37514,1.41452-.4015,2.08268,3.52911,2.39835,4.44775.62635,1.82273,1.22853,3.65386,1.821,5.48827a.9138.9138,0,0,1-.82346,1.19367,10.902,10.902,0,0,0-5.0962,1.38685c-2.07093,1.33749-12.30059,9.41167-15.64037,12.0559A1.30262,1.30262,0,0,1,63.56618,49.73938Z"/><path class="cls-20" d="M27.79291,69.99375a3.10427,3.10427,0,1,1-.65781,4.3406A3.10784,3.10784,0,0,1,27.79291,69.99375Zm.19446.26394a2.77644,2.77644,0,1,0,3.8822.58833A2.77962,2.77962,0,0,0,27.98737,70.25769Z"/><polygon class="cls-16" points="46.449 53.835 49.18 56.038 52.267 55.694 52.676 56.301 51.939 56.823 54.587 57.26 56.019 58.881 55.351 61.652 53.015 63.484 50.286 62.527 48.047 59.946 44.176 57.089 46.449 53.835"/><path class="cls-17" d="M29.81668,31.52414c.7674,1.48077,3.42481,5.66314,4.19221,7.14393A9.4991,9.4991,0,0,0,35.15,40.86994L49.7523,55.39227l-2.62159,4.05939L29.79883,48.53087a10.33829,10.33829,0,0,1-1.80355-1.7206"/><path class="cls-14" d="M35.11831,18.25461s.86259,1.43765,0,1.67726"/><ellipse class="cls-25" cx="32.27022" cy="17.06523" rx="0.45249" ry="0.88655"/><ellipse class="cls-25" cx="36.61106" cy="16.63394" rx="0.45249" ry="0.88655"/><path class="cls-14" d="M33.87283,21.88137s-.47922.6709-.76675,0"/><ellipse class="cls-26" cx="32.29141" cy="19.55716" rx="0.69487" ry="0.23961"/><path class="cls-14" d="M20.16867,46.29781S27.38282,48.399,25.65492,52.482"/><path class="cls-14" d="M21.69861,53.79425s-2.6797-.48063-1.82876-5.46154,1.99658-9.5506,1.99658-9.5506,11.24264,1.45379,9.592,10.79445"/><path class="cls-14" d="M23.8682,53.0746s-3.78306-13.57955,7.01243-19.69295"/><path class="cls-14" d="M37.5212,43.22813s-1.66537,7.2396-7.96053,5.15268c0,0-8.444-7.86962-7.0312-11.74108"/><path class="cls-14" d="M25.0779,30.12233S42.65183,46.79512,36.0694,52.482"/><path class="cls-14" d="M33.87283,51.09789s6.23857-4.46153,15.3074,4.94"/><path class="cls-14" d="M45.39454,58.3577s-6.26609-4.70221-1.67767-8.96782"/><path class="cls-14" d="M53.336,40.92375s-4.86665-4.771-3.13061-6.9419"/><path class="cls-14" d="M56.4546,35.51345s1.6882,5.46793-1.19937,5.53179"/><path class="cls-14" d="M50.02451,40.94085s-7.01286-3.97319-4.1522-8.021"/><path class="cls-14" d="M52.62983,34.57605s-3.13633,6.23889-13.46036,6.14818"/><path class="cls-14" d="M34.40339,37.829s-2.482-3.28794-2.46676-4.52148"/><path class="cls-14" d="M31.78435,29.07177s4.43954,1.33345,4.57969,3.29178"/><path class="cls-14" d="M37.88619,34.14373s3.7046,4.54076,3.64034,6.47758"/><path class="cls-14" d="M31.9541,31.90724s3.146-3.39467,4.02826-2.14569"/><path class="cls-14" d="M37.35554,30.12233S51.553,36.39,51.533,40.971"/></g><path class="cls-14" d="M23.8682,53.0746s-3.78306-13.57955,7.01243-19.69295"/><path class="cls-19" d="M87.90518,27.81535h7.22764a1.49158,1.49158,0,0,1,1.49158,1.49158v.90923a1.49158,1.49158,0,0,1-1.49158,1.49158H87.90519a1.49159,1.49159,0,0,1-1.49159-1.49159v-.90921a1.49159,1.49159,0,0,1,1.49159-1.49159Z" transform="translate(92.66334 125.99132) rotate(-108.6956)"/><path class="cls-20" d="M89.8249,31.56306q2.46834-.04383,4.937-.0383c.466.001.51217.72824.04171.72718q-2.46873-.0055-4.937.03832C89.3998,32.29855,89.35445,31.57142,89.8249,31.56306Z"/><path class="cls-20" d="M89.09126,29.39506q2.46834-.04383,4.937-.0383c.466.001.51216.72824.0417.72719q-2.46873-.00552-4.937.03831C88.66616,30.13055,88.62081,29.40342,89.09126,29.39506Z"/><path class="cls-20" d="M88.66492,27.42522q2.46834-.04383,4.937-.0383c.466.001.51217.72824.04171.7272q-2.46873-.00553-4.937.0383C88.23982,28.16071,88.19447,27.43358,88.66492,27.42522Z"/><path class="cls-21" d="M89.07062,25.56488q1.37857-.19395,2.76411-.349c.6811-.075,1.70711-.38309,2.38009-.02165.64291.34533.97216,1.32331,1.26834,1.9472A22.30117,22.30117,0,0,1,96.543,29.8006a23.31158,23.31158,0,0,1,.6504,2.474c.13565.65268.24182,1.30213-.302,1.7488-1.18.9693-3.27988.83917-4.741.81939-.8701-.01181-1.00466-1.40385-.128-1.392a11.016,11.016,0,0,0,3.56637-.35235c.43147-.13886.37744-.15228.28434-.62268-.07-.35358-.15489-.7054-.24672-1.05495q-.24148-.9193-.56316-1.819-.32178-.898-.71967-1.76883a8.136,8.136,0,0,0-.47842-.97408c-.25837-.40271-.2644-.3562-.66916-.37817a11.34851,11.34851,0,0,0-1.84881.197q-1.07671.12631-2.14853.279C88.34234,27.07731,88.21867,25.68475,89.07062,25.56488Z"/><path class="cls-19" d="M85.8582,26.424c.65058-.18409,1.31268-.27134,1.96163-.46247.10064-.034.2011-.06644.30041-.0966.85953-.2611,1.3837,1.02856.51855,1.33507q-.33554.11888-.67493.21972c-.52725.204-.98846.51506-.95994,1.16389a8.29381,8.29381,0,0,0,.69539,2.55485,11.69267,11.69267,0,0,0,1.27088,2.365c.30434.43632.2718.53132.7838.46783.45607-.05656.91134-.11969,1.36694-.17951a.66168.66168,0,0,1,.75931.64988.62251.62251,0,0,1-.19126.87231c-1.01543.68106-2.3971,1.35146-3.53331.44241A4.796,4.796,0,0,1,87.06032,33.8l-1.02127-2.36466c-.4809-1.1134-1.57647-2.72507-1.25027-3.98988A1.418,1.418,0,0,1,85.8582,26.424Z"/><path class="cls-21" d="M98.89724,30.725c1.89331-.19864,3.73471-.54083,5.5988-.92331a34.63178,34.63178,0,0,0,3.68647-.86381c1.19378-.38359,2.37672-.80209,3.583-1.146.90158-.25707,3.72285-1.339,4.30137-.16789.34967.70823-.36895,1.57-.78939,2.073-.62285.74525-1.27606,1.50275-1.94347,2.19954a33.6299,33.6299,0,0,1-6.73674,5.42594,20.37034,20.37034,0,0,1-6.28651,2.6709q-.38544.08229-.776.14319a.5762.5762,0,0,1-.32592-.01392.59121.59121,0,0,1-.26072-.39274,64.35521,64.35521,0,0,1-1.91725-7.63644,1.50253,1.50253,0,0,1,.042-.98381C97.33,30.6303,98.43482,30.77347,98.89724,30.725Z"/><path class="cls-9" d="M86.15763,26.60691a.59149.59149,0,0,0-.46524.806l2.39385,6.91693a.67823.67823,0,0,0,.7197.461l3.04011-.44125,2.24575,6.57413-.00009.00007c-.07214-.0981-1.00547-.1055-1.32933-.23493a5.83356,5.83356,0,0,0-1.70215-.36646c-3.96259-.39586-8.172-.51749-11.54991,1.93813-5.433,3.94957-10.772,8.04279-16.11217,12.1165-5.41731,4.13253-10.791,8.32336-16.06869,12.63325q-.15841.12935-.31664.25883c-2.60989,2.13522-5.19638,4.2988-7.78958,6.45417q-2.02254,1.681-4.05455,3.3508c-1.45783,1.19471-2.36108,2.44368-4.41836,1.80162a10.76609,10.76609,0,0,1-4.87626-3.35829,9.80084,9.80084,0,0,1-1.97053-4.17408c-.35178-1.65418-.98981-3.71244.71048-4.79423.746-.47465,1.48319-.94672,2.19584-1.4718C37.78294,57.6209,48.95073,50.195,59.7647,42.42339q1.14981-.82633,2.30147-1.65006c2.84012-2.02841,7.55763-5.66526,10.3311-7.78712,5.40361-4.134,6.032-7.187,9.14327-12.20663,1.25619-2.02669,2.43025-4.10355,3.54881-6.2093l3.98783,11.67385Z"/><path class="cls-22" d="M94.57511,8.95971c4.088-.77237,14.14339,4.23867,16.78954,5.34306a1.91394,1.91394,0,0,1,.92361,3.18793c-.474.07138-.9472.1485-1.42013.22662q-1.91937.317-3.8301.6842-1.3961.26984-2.7882.5599c-.46409.0961-.929.18956-1.39188.2912-.37023.08129-.70967.27135-1.07637.38482-.40813.1263-.81684.25281-1.21265.4136a7.71832,7.71832,0,0,0-2.18561,1.28328c-.21486.192-.54777.69114-.43034,1.01772.01388.03862,6.44215,17.91771,6.44215,17.91771a.33013.33013,0,0,1-.30365.44173l-9.99968.21227c.0014-.00054.46161-.35623.34843-1.616a18.05476,18.05476,0,0,0-.45042-2.5557c-.209-.87849-.4636-1.74438-.7251-2.60831l2.52983-.36719a1.22321,1.22321,0,0,0,.91727-1.70162l-2.28972-5.96709a.67812.67812,0,0,0-.6998-.44091l-2.9495.36651Q88.593,19.53152,85.7731,13.2686q-.33805.65274-.68375,1.30168l-.17946-.52533C86.50042,12.05864,90.48713,9.73208,94.57511,8.95971Z"/><path class="cls-22" d="M93.26471,34.14373c.2615.86393.51609,1.72982.7251,2.60831a18.05476,18.05476,0,0,1,.45042,2.5557c.11318,1.25978-.347,1.61547-.34843,1.616l-2.24575-6.57413Z"/><path class="cls-22" d="M90.77279,26.03343l-1.69561.2107L85.08935,14.57028q.3449-.64931.68375-1.30168Q88.58923,19.52092,90.77279,26.03343Z"/><path class="cls-23" d="M64.31561,54.328l-.29332.22377c-5.77043,4.4019-11.49445,8.86593-17.11612,13.45675q-.16869.13778-.33727.27569c-2.78,2.27441-5.53509,4.579-8.29733,6.87488q-2.15437,1.79061-4.31883,3.5692c-1.55285,1.27259-2.515,2.603-4.70639,1.91908a11.46767,11.46767,0,0,1-5.19409-3.57721,10.44,10.44,0,0,1-2.099-4.44616c-.3747-1.762-1.05429-3.95443.75681-5.10674.79463-.50558,1.57988-1.00842,2.339-1.56772C35.46639,58.87072,46.49674,51.479,56.8299,44.16812Z"/><circle class="cls-24" cx="29.56067" cy="72.43098" r="2.91787" transform="translate(-44.218 46.41583) rotate(-48.37535)"/><path class="cls-13" d="M63.56618,49.73938l-2.27983-3.09427a1.30258,1.30258,0,0,1,.27544-1.82218C65.26957,42.092,77.57106,32.98565,78.32748,31.82361c.66881-1.02748,1.38042-2.02841,2.08428-3.032.40268-.57414,1.72321-3.19643,2.35284-3.37514,1.41452-.4015,2.08268,3.52911,2.39835,4.44775.62635,1.82273,1.22853,3.65386,1.821,5.48827a.9138.9138,0,0,1-.82346,1.19367,10.902,10.902,0,0,0-5.0962,1.38685c-2.07093,1.33749-12.30059,9.41167-15.64037,12.0559A1.30262,1.30262,0,0,1,63.56618,49.73938Z"/><path class="cls-20" d="M27.79291,69.99375a3.10427,3.10427,0,1,1-.65781,4.3406A3.10784,3.10784,0,0,1,27.79291,69.99375Zm.19446.26394a2.77644,2.77644,0,1,0,3.8822.58833A2.77962,2.77962,0,0,0,27.98737,70.25769Z"/><polygon class="cls-16" points="46.449 53.835 49.18 56.038 52.267 55.694 52.676 56.301 51.939 56.823 54.587 57.26 56.019 58.881 55.351 61.652 53.015 63.484 50.286 62.527 48.047 59.946 44.176 57.089 46.449 53.835"/><path class="cls-17" d="M29.81668,31.52414c.7674,1.48077,3.42481,5.66314,4.19221,7.14393A9.4991,9.4991,0,0,0,35.15,40.86994L49.7523,55.39227l-2.62159,4.05939L29.79883,48.53087a10.33829,10.33829,0,0,1-1.80355-1.7206"/><path class="cls-14" d="M37.5212,43.22813s-1.66537,7.2396-7.96053,5.15268c0,0-8.444-7.86962-7.0312-11.74108"/><path class="cls-14" d="M33.87283,51.09789s6.23857-4.46153,15.3074,4.94"/><path class="cls-14" d="M25.0779,30.12233S42.65183,46.79512,36.0694,52.482"/><path class="cls-14" d="M45.39454,58.3577s-6.26609-4.70221-1.67767-8.96782"/><path class="cls-14" d="M21.69861,53.79425s-2.6797-.48063-1.82876-5.46154,1.99658-9.5506,1.99658-9.5506,11.24264,1.45379,9.592,10.79445"/></g></svg>