<svg xmlns="http://www.w3.org/2000/svg" xmlns:xlink="http://www.w3.org/1999/xlink" viewBox="0 0 191.81 114.29153"><defs><style>.cls-1,.cls-12,.cls-16,.cls-17,.cls-24,.cls-28,.cls-41{fill:none;}.cls-2,.cls-3,.cls-4{fill:#ba9653;}.cls-2,.cls-24,.cls-25{stroke:#7a8837;}.cls-12,.cls-16,.cls-17,.cls-2,.cls-24,.cls-25,.cls-28,.cls-31,.cls-32,.cls-34,.cls-36,.cls-4,.cls-41,.cls-8,.cls-9{stroke-miterlimit:10;}.cls-2,.cls-24,.cls-25,.cls-28,.cls-4{stroke-width:0.07116px;}.cls-28,.cls-4,.cls-41{stroke:#fff;}.cls-5{isolation:isolate;}.cls-6{fill:#fff;}.cls-7{clip-path:url(#clip-path);}.cls-10,.cls-8{fill:#e07f48;}.cls-16,.cls-17,.cls-36,.cls-8,.cls-9{stroke:#010101;}.cls-8{stroke-width:0.17007px;}.cls-13,.cls-9{fill:#9a4e26;}.cls-12,.cls-17,.cls-31,.cls-32,.cls-34,.cls-36,.cls-9{stroke-width:0.14233px;}.cls-11{fill:#b3653d;}.cls-12{stroke:#6c8058;}.cls-14{fill:#fbfcf0;}.cls-15{fill:#919191;}.cls-16{stroke-width:0.28466px;}.cls-18{fill:#010101;}.cls-19{fill:#f59193;}.cls-20{clip-path:url(#clip-path-2);}.cls-21,.cls-22,.cls-31,.cls-32{fill:#f3f3f3;}.cls-22,.cls-23,.cls-32{mix-blend-mode:multiply;}.cls-25{fill:#9fb85f;}.cls-26{clip-path:url(#clip-path-3);}.cls-27{clip-path:url(#clip-path-4);}.cls-29{fill:#6d8337;}.cls-30{clip-path:url(#clip-path-5);}.cls-31,.cls-32{stroke:#b3d784;}.cls-33,.cls-34{fill:#e0a971;}.cls-34{stroke:#e0a971;}.cls-35{fill:#b7673e;}.cls-36{fill:#c56d3f;}.cls-37{fill:#ddd;}.cls-38{fill:#e2e2e2;}.cls-39{clip-path:url(#clip-path-7);}.cls-40{fill:#a896c8;}.cls-41{stroke-width:0.98019px;}.cls-42{clip-path:url(#clip-path-8);}.cls-43{fill:#73cee1;}.cls-44{fill:#f89748;}.cls-45{fill:#145662;}.cls-46{fill:#305a62;}.cls-47{fill:#243962;}.cls-48{fill:#1e98ad;}.cls-49{fill:#2dc2df;}</style><clipPath id="clip-path"><path class="cls-1" d="M147.86486,39.92158c-8.09,5.3-17.45-1.51-28.42,5.68994-10.08,6.61-6.9,15.46-14.78,22.73-12.9,11.91-31.5-2.45-69.35-2.27-16.71.08-27.27,2.95-35.31,4.8v-60.88a9.85427,9.85427,0,0,1,9.86-9.86h146.74C160.00487,15.97156,156.84484,34.03156,147.86486,39.92158Z"/></clipPath><clipPath id="clip-path-2"><path class="cls-2" d="M138.14266,21.05244a14.3882,14.3882,0,1,0,14.388-14.38877A14.38822,14.38822,0,0,0,138.14266,21.05244Z"/></clipPath><clipPath id="clip-path-3"><path class="cls-3" d="M129.27372-6.32385A11.1433,11.1433,0,0,0,140.41711,4.81954,11.143,11.143,0,0,0,151.56022-6.32385a11.14306,11.14306,0,0,0-11.14311-11.14343A11.14333,11.14333,0,0,0,129.27372-6.32385Z"/></clipPath><clipPath id="clip-path-4"><path class="cls-4" d="M118.68211,13.18625a5.93,5.93,0,1,0,5.9302-5.9302A5.92992,5.92992,0,0,0,118.68211,13.18625Z"/></clipPath><clipPath id="clip-path-5"><path class="cls-4" d="M108.24421-4.90083a8.42827,8.42827,0,0,0,8.4286,8.42811,8.42805,8.42805,0,0,0,8.42835-8.42811,8.42847,8.42847,0,0,0-8.42835-8.4286A8.42869,8.42869,0,0,0,108.24421-4.90083Z"/></clipPath><clipPath id="clip-path-7"><path class="cls-1" d="M166.12,135.28421c-2.2,17.63-17.3,38.09-19.4,40.94-5.78,7.83-15.4,20.87-31.83,27.29-24.67,9.63-36.09-6.82-80.72-10.23a199.44817,199.44817,0,0,0-34.17.42v-48.56a9.85424,9.85424,0,0,1,9.86-9.86Z"/></clipPath><clipPath id="clip-path-8"><path class="cls-1" d="M165.41-103.39787c-2.89,8.59-14.33,10.31-34.86,18.19-31.54,12.12-30.94,18.2-50.02,24.76-5.89,2.03-47.26,15.6-80.53-.87006v-59.18a9.86064,9.86064,0,0,1,9.86-9.86H153.84C160.61-123.00792,168.38-112.19786,165.41-103.39787Z"/></clipPath></defs><title>cards</title><g class="cls-5"><g id="Layer_1" data-name="Layer 1"><path class="cls-6" d="M11.61582,63.85646a2.8199,2.8199,0,0,1-2,.54,1.19348,1.19348,0,0,0,.12-.22.24888.24888,0,0,0,.04-.07q1.09506-1.965,2.3-3.89a.60589.60589,0,0,1,.07-.1,1.73713,1.73713,0,0,1,.11-.18A2.841,2.841,0,0,1,11.61582,63.85646Z"/><g class="cls-7"><rect class="cls-8" x="-35.17042" y="-28.31248" width="229.50936" height="122.58266" rx="61.29127" transform="translate(159.16851 65.95769) rotate(-180)"/><path class="cls-9" d="M9.12309,67.14021c0,.75913.03109,1.51205.09332,2.2546a27.14521,27.14521,0,0,0,22.152,24.43772c.141.02489.28413.04978.42521.07259a27.25842,27.25842,0,0,0,4.45944.365h86.513a27.10959,27.10959,0,0,0,27.13-27.13.462.462,0,0,0-.12445-.31528l-.01037-.01244a.46108.46108,0,0,0-.32564-.13483H9.58562a.46179.46179,0,0,0-.46253.46255Z"/><rect class="cls-10" x="85.60149" y="74.22986" width="23.63774" height="14.83049" transform="translate(194.84073 163.29022) rotate(-180)"/><polygon class="cls-11" points="83.618 84.815 55.843 84.815 61.844 73.774 91.058 72.944 83.618 84.815"/><polygon class="cls-10" points="83.715 83.767 55.94 83.767 61.941 72.726 91.155 71.896 83.715 83.767"/><path class="cls-12" d="M83.9509,75.2a9.81279,9.81279,0,0,1-1.965,2.98677c-2.79191,2.88447-7.52412,4.0541-8.41016,2.82959-1.0901-1.50655,3.11009-7.37188,4.95179-6.83816.936.27126,1.53494,2.27432.86459,3.22257-.27721.39214-.96306.87491-6.83816.15721-3.78-.46176-5.06313-.853-6.44518,0-1.14633.70755-2.07347,2.09384-1.72918,2.751.50731.9683,3.95923.70474,4.48017-.55019.43917-1.0579-1.12948-3.00122-3.93-4.716"/><path class="cls-13" d="M65.99329,76.73154l2.90382-3.9409a29.12513,29.12513,0,0,0-4.75255-6.05255c-4.72079-4.66685-11.764-10.28558-12.82385-11.45955a1.55619,1.55619,0,0,1-.15764-.18668c-.307-.5455,1.28914-4.072,1.35344-4.17156h0c-.82966-.20742-10.78561-2.07416-10.78561-3.52607-.43694.98865-.38227,2.46542-.91269,4.16224a40.43493,40.43493,0,0,0-1.37413,6.09283c-.474,4.08431,10.12444,12.23276,26.54921,19.08224"/><path class="cls-14" d="M73.19118,5.258a3.92523,3.92523,0,0,1,1.18844,3.01612,38.49263,38.49263,0,0,1-.65167,5.56477,10.80037,10.80037,0,0,1-.97074,3.05091c-.52354,1.03032-1.39778,2.75081-3.18959,3.32827a4.9927,4.9927,0,0,1-2.63488,0,7.5546,7.5546,0,0,1-4.02165-2.08017,8.48487,8.48487,0,0,1-2.08017-5.26975,9.67205,9.67205,0,0,1,.55471-5.54711,7.43964,7.43964,0,0,1,3.883-4.16034c3.05268-1.18976,6.26933.52346,7.90463,2.08017Z"/><path class="cls-14" d="M60.73639,10.03037c-.1994,2.55718-.305,5.32954-.26058,8.28965.02944,1.9611.12216,3.83291.26058,5.6072.31281,2.42444,2.53909,4.26439,4.60256,3.75008,2.04719-.51025,3.40991-3.75008,3.40991-3.75008V21.06489a9.15891,9.15891,0,0,1-4.476-2.45995,7.98132,7.98132,0,0,1-.77158-.923C62.05971,16.18025,60.85462,13.80119,60.73639,10.03037Z"/><path class="cls-15" d="M62.92279,17.68194a8.86171,8.86171,0,0,0,.85663,1.02475,10.16853,10.16853,0,0,0,4.96944,2.73111v-.91652A9.4601,9.4601,0,0,1,62.92279,17.68194Z"/><path class="cls-16" d="M55.0055,45.32008s-1.65933,5.80764-2.489,5.60022"/><path class="cls-14" d="M78.65088,50.9203s5.09206,6.86961,8.29663,9.77758c1.03708.94166,1.87711,1.46849,2.28157,1.21545,1.65933-1.03708,9.12629-12.03011,10.16337-16.38584s5.60022-16.17842,6.6373-18.46,2.6964-5.60022,3.31865-6.01506-1.03708-4.14831-1.03708-4.14831-10.29764,8.73-13.40887,16.61181a54.09944,54.09944,0,0,1-4.01318,7.92348c.61394,2.67567,1.45105,6.36964,1.45105,6.36964Z"/><path class="cls-14" d="M108.31132,16.90413s6.6373-3.73348,10.5782-3.73348,4.77056-.41483,4.77056-.41483,1.03708,1.45191-3.9409,2.489c0,0,0,3.73348-1.03707,4.35572s-8.08922.20742-9.12629,1.45191"/><path class="cls-14" d="M65.37628,76.63984l2.90382-3.9409s-2.53669-2.49521-5.69149-5.61266c-4.72078-4.66686-10.825-10.72547-11.88491-11.89944a1.55619,1.55619,0,0,1-.15764-.18668c-.307-.5455,1.90408-3.97823,1.96837-4.07778l.00208-.00208c-.82966-.20742-10.78561-2.07416-10.78561-3.52607a38.46944,38.46944,0,0,0-1.52969,4.07054,40.43493,40.43493,0,0,0-1.37413,6.09283c-.474,4.08431,10.12444,12.23276,26.5492,19.08224"/><path class="cls-16" d="M52.51651,50.9203l-.00208.00208L50.7037,55.18684c1.05989,1.174,6.83794,6.906,11.55872,11.57284l24.68509-.28321V60.69788c-3.20457-2.908-8.29663-9.77758-8.29663-9.77758l13.68944-3.11124s-.44388-1.98289-1.05782-4.65856a45.60061,45.60061,0,0,0-4.502-11.18035c-.62225-1.03708-2.08289-4.40158-7.82067-5.87532-3.468-.89075-8.813-1.87307-10.26489-2.13857h0s-1.44633,3.59257-3.52606,3.73349c-4.01186.27182-4.56315-3.9409-4.56315-3.9409S48.03087,24.81966,46.17068,28.8c-.78547,1.68069-4.43978,17.14235-4.43978,18.59426S51.68685,50.71288,52.51651,50.9203Z"/><path class="cls-14" d="M65.37628,76.63984l2.90382-3.9409L75.33223,71.247s3.9409,7.05214,2.90382,7.8818S72.01358,80.78815,65.37628,76.63984Z"/><path class="cls-17" d="M69.56762,13.14552s.55471,2.21885-.27736,2.35752a2.072,2.072,0,0,1-1.10942,0"/><ellipse class="cls-18" cx="72.47985" cy="11.75875" rx="0.27736" ry="0.55471"/><ellipse class="cls-18" cx="67.14076" cy="11.82808" rx="0.27736" ry="0.55471"/><path class="cls-17" d="M69.42894,17.58321a1.46226,1.46226,0,0,1-2.35752,0"/><path class="cls-17" d="M73.4506,9.67858a1.29743,1.29743,0,0,0-1.80281-.27736"/><path class="cls-17" d="M68.04216,9.67858a1.29743,1.29743,0,0,0-1.80281-.27736"/><ellipse class="cls-19" cx="72.06382" cy="14.5323" rx="1.10942" ry="0.41603"/><ellipse class="cls-19" cx="65.962" cy="14.5323" rx="1.10942" ry="0.41603"/><path class="cls-18" d="M64.43654,5.7956c2.42176-.884,3.7522,1.34942,7.766,1.38678,3.5455.033,6.87545-1.66906,6.7952-2.4962-.05009-.51647-1.46225-1.02715-2.63487-.97074-.43163.02076-.75538.24521-.83207.13867-.11386-.15819,1.13273-.689,1.38678-1.66413A2.27077,2.27077,0,0,0,76.46376.42345a6.16352,6.16352,0,0,0-3.33393-1.88474S70.17238-2.05049,64.43654,2.19c-.18128.134-.4056.29839-.69339.55471-3.211,2.85991-3.55871,7.43578-3.05091,7.62728C61.15647,10.547,61.66781,6.8063,64.43654,5.7956Z"/><path class="cls-16" d="M70.62819,66.75968a8.02629,8.02629,0,0,0,1.38539-3.187c1.63659-10.17892-13.9913-21.85211-28.38191-25.28626"/><path class="cls-16" d="M91.41547,48.01846C83.6467,41.33331,65.0675,31.259,50.85718,40.75693a26.96279,26.96279,0,0,0-7.52712,7.62469"/><path class="cls-16" d="M85.65062,30.12306c-4.1894-.0556-7.27335-.44807-9.48872,1.50758-8.69414,7.67489-5.86047,26.21328,2.00521,35.048"/><path class="cls-16" d="M53.64066,24.81966c2.63625,12.48972,14.29529,30.14912,26.25472,27.76,6.60952-1.32039,10.48129-8.19908,11.38719-9.80853"/><path class="cls-16" d="M45.56222,30.68451c14.221,6.33178,25.87265-3.2296,28.94319-5.60879"/><path class="cls-16" d="M54.163,58.51216c11.4533-.44156,29.88286-5.74739,32.78455-18.37747,1.16441-5.06832-1.23135-7.94667-2.67427-11.416"/><path class="cls-3" d="M138.14266,21.05244a14.3882,14.3882,0,1,0,14.388-14.38877A14.38822,14.38822,0,0,0,138.14266,21.05244Z"/><g class="cls-20"><rect class="cls-21" x="150.81795" y="27.78651" width="2.83064" height="1.68341"/><path class="cls-22" d="M151.85574,29.245a1.48883,1.48883,0,0,0,1.16552-1.21355.58872.58872,0,0,0-.02358-.24491h.65091v1.68341H150.818V29.2588A1.91517,1.91517,0,0,0,151.85574,29.245Z"/><ellipse class="cls-21" cx="146.45279" cy="22.38518" rx="1.30507" ry="1.26033"/><g class="cls-23"><path class="cls-21" d="M146.28436,21.68382a.52282.52282,0,0,0-.08706-.00325.72085.72085,0,0,0-.2315.04636.56219.56219,0,0,0-.27744.21238c-.01829.02766-.03212.05982-.04883.0911-.01179.03217-.02074.06632-.03049.10053l-.01058.10452c0,.03457.00241.06919.004.10335a.86192.86192,0,0,0,.04153.19688.83085.83085,0,0,0,.08053.177.647.647,0,0,0,.24491.24291.51439.51439,0,0,0,.12531.05208.64272.64272,0,0,0,.10252.01666c.05611.00162.08706.00042.08706.00042s-.02928-.01142-.07973-.03258c-.026-.00975-.05291-.02845-.08465-.04391a.78638.78638,0,0,1-.096-.072.58936.58936,0,0,1-.09194-.1021.77721.77721,0,0,1-.07732-.13181,1.03958,1.03958,0,0,1-.05532-.15376.761.761,0,0,1-.02929-.16763l-.00691-.08257.00691-.07936c.0065-.02441.01058-.04961.01629-.07482.01054-.02278.01708-.04719.02887-.06836a.5641.5641,0,0,1,.19325-.20341,1.2261,1.2261,0,0,1,.19446-.09928C146.25341,21.69319,146.28436,21.68382,146.28436,21.68382Z"/></g><path class="cls-22" d="M146.11631,22.44741a.21324.21324,0,1,0,.21117-.24449A.22876.22876,0,0,0,146.11631,22.44741Z"/><path class="cls-21" d="M159.139,22.38518a1.30546,1.30546,0,1,1-1.30428-1.26033A1.28355,1.28355,0,0,1,159.139,22.38518Z"/><g class="cls-23"><path class="cls-21" d="M158.00276,21.68382a.54631.54631,0,0,1,.08831-.00325.72456.72456,0,0,1,.23025.04636.56045.56045,0,0,1,.27744.21238,1.01551,1.01551,0,0,1,.04883.0911c.01137.03217.02116.06632.03049.10053l.01021.10452c0,.03457-.00246.06919-.00409.10335a.88279.88279,0,0,1-.0407.19688.86935.86935,0,0,1-.07973.177.65729.65729,0,0,1-.2457.24291.51985.51985,0,0,1-.1261.05208.62705.62705,0,0,1-.1009.01666c-.057.00162-.08831.00042-.08831.00042s.02891-.01142.07936-.03258c.026-.00975.05286-.02845.08544-.04391a.82.82,0,0,0,.096-.072.70587.70587,0,0,0,.168-.23391.99763.99763,0,0,0,.05657-.15376.78641.78641,0,0,0,.02929-.16763l.0057-.08257-.0057-.07936c-.00571-.02441-.011-.04961-.01708-.07482a.64136.64136,0,0,0-.0285-.06836.56434.56434,0,0,0-.19321-.20341,1.16377,1.16377,0,0,0-.19488-.09928C158.03409,21.69319,158.00276,21.68382,158.00276,21.68382Z"/></g><path class="cls-22" d="M158.17081,22.44741a.21378.21378,0,1,1-.21154-.24449A.22879.22879,0,0,1,158.17081,22.44741Z"/><path class="cls-21" d="M146.45279,20.72372c0,4.28181,2.008,7.28737,5.78046,7.28737,3.77083,0,5.77971-3.00556,5.77971-7.28737,0-4.28135-2.08537-7.75232-5.8574-7.75232C148.38515,12.9714,146.45279,16.44237,146.45279,20.72372Z"/><path class="cls-21" d="M153.59123,29.40039s3.59019.47432,4.8806,1.59147c1.31565,1.13786,1.70458,2.122,2.17811,4.37046H143.81577c.47353-2.24851.86246-3.2326,2.17769-4.37046,1.29087-1.11715,4.88144-1.59147,4.88144-1.59147Z"/><path class="cls-21" d="M154.67622,29.58506a8.45172,8.45172,0,0,1,3.79561,1.4068c1.31565,1.13786,1.70458,2.122,2.17811,4.37046H143.81577c.47353-2.24851.856-3.24031,2.17769-4.37046a9.3565,9.3565,0,0,1,3.54221-1.35514l1.33923-.23633h2.71633Z"/><path class="cls-21" d="M152.90491,31.58662a.22681.22681,0,0,0-.048-.048.66039.66039,0,0,1,.048.048l.463,3.7757H151.097l.46257-3.7757-.31285-1.29774a.58217.58217,0,0,1-.03012-.61471.67907.67907,0,0,1,.42308-.31531,3.37978,3.37978,0,0,1,.86245-.03008.7483.7483,0,0,1,.6672.2457.56963.56963,0,0,1,.048.7144Z"/><path class="cls-22" d="M152.957,31.38566s-.94056-.43979-1.39293.201a1.49781,1.49781,0,0,1,1.34415,0Z"/><path class="cls-21" d="M154.67622,29.58506a8.45172,8.45172,0,0,1,3.79561,1.4068c1.31565,1.13786,1.70458,2.122,2.17811,4.37046H143.81577c.47353-2.24851.856-3.24031,2.17769-4.37046a9.3565,9.3565,0,0,1,3.54221-1.35514l2.69758,5.5718Z"/><path class="cls-21" d="M154.64243,29.62372l-2.40918,5.5848,2.56136-1.65575-.57605-.98939,2.86522-2.36686A8.24036,8.24036,0,0,0,154.64243,29.62372Z"/><path class="cls-21" d="M149.53567,29.63672l2.69679,5.5718-2.56174-1.65575.57685-.98939-2.86643-2.36686A5.97638,5.97638,0,0,1,149.53567,29.63672Z"/><polygon class="cls-22" points="155.18 29.633 153.011 31.144 153.193 30.389 155.18 29.633"/><polygon class="cls-22" points="149.081 29.66 151.456 31.175 151.249 30.295 149.081 29.66"/><polygon class="cls-21" points="153.649 28.902 155.18 29.633 153.368 30.715 152.101 29.317 153.649 28.902"/><path class="cls-22" d="M153.67055,29.43943a1.10584,1.10584,0,0,0-.80143-.32873l.77947-.20867,1.53128.731-1.36814.81651A.81346.81346,0,0,0,153.67055,29.43943Z"/><polygon class="cls-21" points="150.582 28.902 149.051 29.633 150.862 30.715 152.129 29.317 150.582 28.902"/><path class="cls-22" d="M150.56,29.43943a1.10146,1.10146,0,0,1,.80063-.32873l-.779-.20867-1.53044.731,1.36648.81651A.81479.81479,0,0,1,150.56,29.43943Z"/><path class="cls-21" d="M157.99505,21.7668l-.585.58543-.11268-4.71422a2.49337,2.49337,0,0,0-2.639-2.44822,6.62944,6.62944,0,0,1-4.85174.19242,2.31529,2.31529,0,0,0-2.7167,2.14065l.01949,4.92455-.62241-.76684-.03416-.64033a19.11528,19.11528,0,0,1,0-5.12918s.4894-3.37824,3.54258-3.95183c0,0,4.986-1.28312,7.08841,1.85588a6.36156,6.36156,0,0,1,1.18059,4.80374Z"/></g><path class="cls-24" d="M138.14266,21.05244a14.3882,14.3882,0,1,0,14.388-14.38877A14.38822,14.38822,0,0,0,138.14266,21.05244Z"/><path class="cls-25" d="M129.27436-6.32385A11.14275,11.14275,0,0,0,140.41711,4.81954,11.143,11.143,0,0,0,151.56022-6.32385a11.14306,11.14306,0,0,0-11.14311-11.14343A11.14278,11.14278,0,0,0,129.27436-6.32385Z"/><path class="cls-3" d="M129.27372-6.32385A11.1433,11.1433,0,0,0,140.41711,4.81954,11.143,11.143,0,0,0,151.56022-6.32385a11.14306,11.14306,0,0,0-11.14311-11.14343A11.14333,11.14333,0,0,0,129.27372-6.32385Z"/><g class="cls-26"><rect class="cls-21" x="139.32136" y="-1.04784" width="2.19219" height="1.30372"/><path class="cls-22" d="M141.38814-.07429a1.49125,1.49125,0,0,0-.95841-.43164c-.31253-.02365-.84814.04349-1.01388-.28294a.38.38,0,0,0-.09449-.11973v-.13924h2.19219v1.126A1.13666,1.13666,0,0,0,141.38814-.07429Z"/><path class="cls-21" d="M141.46974.20168s2.77949.36737,3.77917,1.23284c1.01923.88124,1.32011,1.64305,1.68683,3.385H133.8982c.36737-1.742.66824-2.50378,1.68683-3.385C136.58471.569,139.36546.20168,139.36546.20168Z"/><path class="cls-21" d="M142.53842.392a5.71948,5.71948,0,0,1,2.71049,1.04253c1.01923.88124,1.32011,1.64305,1.68683,3.385H133.8982c.36737-1.742.66824-2.50378,1.68683-3.385A5.69392,5.69392,0,0,1,138.28919.39386l2.12792,2.1166Z"/></g><path class="cls-3" d="M118.68211,13.18625a5.93,5.93,0,1,0,5.9302-5.9302A5.92992,5.92992,0,0,0,118.68211,13.18625Z"/><g class="cls-27"><rect class="cls-21" x="124.02866" y="15.99417" width="1.16662" height="0.69346"/><path class="cls-22" d="M125.12839,16.51192a.793.793,0,0,0-.50989-.22971c-.16631-.01256-.45084.02315-.53953-.1504a.19778.19778,0,0,0-.05031-.06387v-.07377h1.16662v.59906A.60407.60407,0,0,0,125.12839,16.51192Z"/><path class="cls-21" d="M121.69205,13.76772a.5382.5382,0,1,0,.53787-.51944A.52912.52912,0,0,0,121.69205,13.76772Z"/><g class="cls-23"><path class="cls-21" d="M122.16051,13.47866a.20992.20992,0,0,0-.03621-.00117.29852.29852,0,0,0-.09506.01894.2357.2357,0,0,0-.11469.08787c-.00754.01123-.01292.02446-.02013.03738-.00451.01325-.00855.02716-.01256.04141l-.004.04292c-.00035.01442.001.02852.00134.04292a.3948.3948,0,0,0,.01742.08082.3356.3356,0,0,0,.03287.0731.26773.26773,0,0,0,.10093.1001.22938.22938,0,0,0,.052.02146.306.306,0,0,0,.04191.00689c.02347.00066.03621.00015.03621.00015l-.03286-.01358c-.01006-.00385-.02146-.01156-.0352-.01793a.27265.27265,0,0,1-.03925-.02968.25656.25656,0,0,1-.03822-.04191.3483.3483,0,0,1-.03152-.05432.42705.42705,0,0,1-.0228-.06372.28914.28914,0,0,1-.01207-.06891l-.00252-.03405.00218-.03252.00721-.03085a.24108.24108,0,0,1,.01174-.0285.23117.23117,0,0,1,.07963-.0835.51182.51182,0,0,1,.08015-.04125C122.14777,13.48252,122.16051,13.47866,122.16051,13.47866Z"/></g><path class="cls-22" d="M122.09127,13.79337a.08806.08806,0,1,0,.17437,0,.0881.0881,0,1,0-.17437,0Z"/><path class="cls-21" d="M127.45879,13.76772a.5382.5382,0,1,1-.53788-.51944A.52944.52944,0,0,1,127.45879,13.76772Z"/><g class="cls-23"><path class="cls-21" d="M126.99016,13.47866a.21357.21357,0,0,1,.03605-.00117.302.302,0,0,1,.09524.01894.23576.23576,0,0,1,.11434.08787.35934.35934,0,0,1,.02013.03738c.005.01325.00872.02716.01256.04141l.00419.04292c0,.01442-.001.02852-.00166.04292a.38377.38377,0,0,1-.01678.08082.361.361,0,0,1-.0332.0731.27126.27126,0,0,1-.10092.1001.23718.23718,0,0,1-.05165.02146.32752.32752,0,0,1-.04225.00689c-.02347.00066-.03605.00015-.03605.00015l.033-.01358c.01039-.00385.0218-.01156.03487-.01793a.30181.30181,0,0,0,.03923-.02968.29073.29073,0,0,0,.03824-.04191.3233.3233,0,0,0,.03152-.05432.46933.46933,0,0,0,.02314-.06372.31694.31694,0,0,0,.01173-.06891l.00268-.03405-.00234-.03252-.00688-.03085c-.00419-.00972-.00721-.01978-.0119-.0285a.23552.23552,0,0,0-.07965-.0835.49062.49062,0,0,0-.0803-.04125C127.00274,13.48252,126.99016,13.47866,126.99016,13.47866Z"/></g><path class="cls-22" d="M127.0594,13.79337a.088.088,0,1,1-.08684-.10077A.09449.09449,0,0,1,127.0594,13.79337Z"/><path class="cls-21" d="M122.22992,13.083c0,1.76454.82761,3.00342,2.38206,3.00342s2.38271-1.23888,2.38271-3.00342-.8598-3.19472-2.41423-3.19472S122.22992,11.31844,122.22992,13.083Z"/><path class="cls-21" d="M125.17216,16.659a5.24027,5.24027,0,0,1,2.01132.65607,2.69868,2.69868,0,0,1,.89768,1.80141h-6.938a2.69458,2.69458,0,0,1,.898-1.80141,5.23591,5.23591,0,0,1,2.011-.65607Z"/><path class="cls-21" d="M123.47939,16.76125a3.02939,3.02939,0,0,0-1.43826.55379,2.69458,2.69458,0,0,0-.898,1.80141h6.938a2.69868,2.69868,0,0,0-.89768-1.80141,3.04688,3.04688,0,0,0-1.44227-.55481,1.13707,1.13707,0,1,1-2.26182.001Z"/><line class="cls-21" x1="124.58834" y1="19.11645" x2="124.63528" y2="19.11645"/><path class="cls-21" d="M125.55326,16.723a.18106.18106,0,0,0-.001.0659,1.0563,1.0563,0,0,1-.19482.7565.99575.99575,0,0,1-.7961.28085h-.00855a.96012.96012,0,0,1-.64183-.25067,1.1556,1.1556,0,0,1-.24445-.85258l-.37927.06691a1.37961,1.37961,0,0,0,.35815,1.05528,1.33009,1.33009,0,0,0,.902.35914c.01542,0,.02112-.00015.02984,0a1.33922,1.33922,0,0,0,1.06787-.41379,1.39563,1.39563,0,0,0,.28722-1.00063Z"/><path class="cls-21" d="M127.0594,12.11251l-.08585,1.43992-.21025.05936c.1846-2.32437-1.03986-2.85654-1.03986-2.85654l-.34239-1.45484a1.70783,1.70783,0,0,1,1.50415.83028S127.27267,10.524,127.0594,12.11251Z"/><path class="cls-21" d="M127.048,12.299s.0104-.04543.02416-.12507c.01189-.07965.034-.19333.05112-.33013.01844-.13682.03606-.29661.05081-.46781.00654-.08584.01593-.1742.02045-.2644l.00788-.136.002-.0342c.001-.02751-.00017-.02733-.00034-.04243l-.00184-.06857a1.32521,1.32521,0,0,0-.04847-.28889.777.777,0,0,0-.04525-.13481,1.0199,1.0199,0,0,0-.05685-.12574,1.30892,1.30892,0,0,0-.13648-.22015,1.37137,1.37137,0,0,0-.14906-.17454,1.74064,1.74064,0,0,0-.26123-.217.87522.87522,0,0,0-.11015-.06506s.0327.03321.086.09289a2.54909,2.54909,0,0,1,.20188.25855,2.1253,2.1253,0,0,1,.11434.18225,1.77491,1.77491,0,0,1,.10346.21277,1.43225,1.43225,0,0,1,.07661.23692.75953.75953,0,0,1,.02416.12255.79514.79514,0,0,1,.01224.12777l.00352.06858c.00033.00788.002.031.00134.02615l-.00134.03437-.0047.13615c-.00369.09-.00268.17906-.004.2649-.00134.172.00134.33282.007.47066.00436.13781.01593.253.02029.33347C127.0418,12.25285,127.048,12.299,127.048,12.299Z"/><path class="cls-21" d="M122.18281,12.39453l.086,1.44009.21025.05919c-.21344-3.1005.942-3.15215.942-3.15215l.4403-1.15923a1.70787,1.70787,0,0,0-1.50465.8306S121.969,10.80622,122.18281,12.39453Z"/><path class="cls-21" d="M125.70718,10.74637a3.57267,3.57267,0,0,0-2.71756.17806l-.10512-1.06368s.27012-2.07673,2.98079-1.41511a1.99061,1.99061,0,0,0-.48424.315,1.61758,1.61758,0,0,1,1.50415.87791,2.61022,2.61022,0,0,0-1.27276-.08384S126.46385,10.11594,125.70718,10.74637Z"/><path class="cls-21" d="M122.8845,9.86075a1.573,1.573,0,0,1,.05265-.15258,2.11112,2.11112,0,0,1,.18728-.37406,2.61926,2.61926,0,0,1,.15727-.22552,2.07953,2.07953,0,0,1,.21226-.21679,1.8254,1.8254,0,0,1,.25754-.19231,1.2249,1.2249,0,0,1,.14621-.077.93111.93111,0,0,1,.15224-.0679,1.90848,1.90848,0,0,1,.32041-.0944,2.15043,2.15043,0,0,1,.32293-.05046c.10681-.00386.20976-.02146.30867-.019.0986.00436.19248.006.27967.00738.17421.002.31874.02783.42151.0347.10245.00973.16215.01275.16215.01275s-.05551-.01928-.15476-.04879l-.17957-.052a1.27345,1.27345,0,0,0-.23709-.0545c-.08835-.01358-.1846-.028-.28688-.04058a2.91418,2.91418,0,0,0-.3251-.0062,1.82813,1.82813,0,0,0-.34858.03789,2.04637,2.04637,0,0,0-.35176.09707,1.07268,1.07268,0,0,0-.167.078,1.38986,1.38986,0,0,0-.1603.08869,1.66085,1.66085,0,0,0-.27463.226,1.69473,1.69473,0,0,0-.21125.25419,1.83382,1.83382,0,0,0-.13967.25837,1.496,1.496,0,0,0-.08434.23122c-.01878.07058-.03387.13212-.04259.18342A.89943.89943,0,0,0,122.8845,9.86075Z"/></g><path class="cls-28" d="M118.68211,13.18625a5.93,5.93,0,1,0,5.9302-5.9302A5.92992,5.92992,0,0,0,118.68211,13.18625Z"/><path class="cls-29" d="M108.24421-4.90132a8.42853,8.42853,0,0,0,8.4286,8.4286,8.42793,8.42793,0,0,0,8.42789-8.4286,8.42782,8.42782,0,0,0-8.42789-8.42811A8.42842,8.42842,0,0,0,108.24421-4.90132Z"/><path class="cls-3" d="M108.24421-4.90083a8.42827,8.42827,0,0,0,8.4286,8.42811,8.42805,8.42805,0,0,0,8.42835-8.42811,8.42847,8.42847,0,0,0-8.42835-8.4286A8.42869,8.42869,0,0,0,108.24421-4.90083Z"/><g class="cls-30"><rect class="cls-31" x="115.84354" y="-0.9103" width="1.65758" height="0.98607"/><path class="cls-32" d="M117.40676-.17395a1.12652,1.12652,0,0,0-.72466-.32672c-.23662-.01786-.64079.03312-.76709-.21422a.27735.27735,0,0,0-.07147-.09009V-.9103h1.65758v.85167A.869.869,0,0,0,117.40676-.17395Z"/><path class="cls-31" d="M117.46825.03478a7.44842,7.44842,0,0,1,2.85886.932,3.83458,3.83458,0,0,1,1.27584,2.5605h-9.86054a3.83642,3.83642,0,0,1,1.27538-2.5605,7.45077,7.45077,0,0,1,2.85886-.932Z"/><path class="cls-31" d="M114.85649.22568a4.79648,4.79648,0,0,0-1.8387.7411,3.83642,3.83642,0,0,0-1.27538,2.5605H121.603a3.83458,3.83458,0,0,0-1.27584-2.5605A4.90409,4.90409,0,0,0,118.43429.213l-1.76148,1.899Z"/><path class="cls-31" d="M117.82664-9.67086s2.42658.08221,2.891,3.91787c0,0,.09056,3.29448.09056,7.19041,0,0-.555-.97322-3.30712-1.3981V-.871s2.29457-.40343,2.265-3.4043c0,0-.01549-3.46319-1.77676-4.12019Z"/><path class="cls-31" d="M115.518-9.67086s-2.75593-.13892-3.22083,3.69625c0,0-.05339,3.40385.22542,7.45063,0,0,.764-1.09068,3.32093-1.4367V-.871s-2.29386-.40343-2.26431-3.4043c0,0,.01476-3.46319,1.77627-4.12019Z"/></g><path class="cls-28" d="M108.24421-4.90083a8.42827,8.42827,0,0,0,8.4286,8.42811,8.42805,8.42805,0,0,0,8.42835-8.42811,8.42847,8.42847,0,0,0-8.42835-8.4286A8.42869,8.42869,0,0,0,108.24421-4.90083Z"/><path class="cls-33" d="M14.83,17.61936A8.20772,8.20772,0,1,0,23.03777,9.4116,8.20744,8.20744,0,0,0,14.83,17.61936Zm1.7433,0a6.46523,6.46523,0,1,1,6.46446,6.46523A6.46472,6.46472,0,0,1,16.57331,17.61936Z"/><rect class="cls-33" x="21.92977" y="24.46709" width="2.21675" height="4.1807"/><path class="cls-33" d="M20.78379,39.022a2.16589,2.16589,0,0,0,2.16557,2.16464h0A2.16582,2.16582,0,0,0,25.11484,39.022V29.90123a2.16553,2.16553,0,0,0-2.16548-2.16557h0a2.1656,2.1656,0,0,0-2.16557,2.16557Z"/><path class="cls-34" d="M130.82215,77.455V90.08037h6.434A27.22212,27.22212,0,0,0,147.86549,77.455Z"/><path class="cls-33" d="M31.36842,79.44V93.83253c.141.02489.28413.04978.42521.07259a27.25842,27.25842,0,0,0,4.45944.365H55.0055V79.44Z"/><path class="cls-3" d="M12.06423,79.44A27.19378,27.19378,0,0,0,31.36842,93.83253c.141.02489.28413.04978.42521.07259V79.44Z"/><rect class="cls-10" x="22.38667" y="69.39469" width="16.01031" height="10.04498" transform="translate(60.78364 148.83437) rotate(-180)"/><path class="cls-35" d="M9.21641,69.39481A26.9573,26.9573,0,0,0,12.06423,79.44H22.35V69.39481Z"/><path class="cls-16" d="M130.8536,25.14875l-22.40626,1.929a4.60975,4.60975,0,0,1-4.996-4.30263l-.86863-13.774a4.60975,4.60975,0,0,1,4.25151-4.88664l23.27488-1.76771a4.60974,4.60974,0,0,1,4.95885,4.59651V20.556A4.60975,4.60975,0,0,1,130.8536,25.14875Z"/><path class="cls-36" d="M75.20014,71.247l-2.73853-7.33924s-2.24009-1.51325-1.63717.6288,2.13634,7.19869,2.13634,7.19869Z"/><polygon class="cls-33" points="112.936 11.583 113.905 11.583 113.905 8.772 112.936 8.997 112.936 11.583"/><polygon class="cls-33" points="111.574 11.583 112.544 11.583 112.544 6.72 111.574 6.817 111.574 11.583"/><polygon class="cls-33" points="110.213 11.583 111.182 11.583 111.182 10.209 110.213 10.417 110.213 11.583"/><polygon class="cls-33" points="108.851 11.583 109.821 11.583 109.821 6.817 108.851 6.959 108.851 11.583"/></g><polygon class="cls-11" points="83.618 84.815 55.843 84.815 61.844 73.774 91.058 72.944 83.618 84.815"/><polygon class="cls-10" points="83.715 83.767 55.94 83.767 61.941 72.726 91.155 71.896 83.715 83.767"/><path class="cls-12" d="M83.9509,75.2a9.81279,9.81279,0,0,1-1.965,2.98677c-2.79191,2.88447-7.52412,4.0541-8.41016,2.82959-1.0901-1.50655,3.11009-7.37188,4.95179-6.83816.936.27126,1.53494,2.27432.86459,3.22257-.27721.39214-.96306.87491-6.83816.15721-3.78-.46176-5.06313-.853-6.44518,0-1.14633.70755-2.07347,2.09384-1.72918,2.751.50731.9683,3.95923.70474,4.48017-.55019.43917-1.0579-1.12948-3.00122-3.93-4.716"/><path class="cls-36" d="M75.20014,71.247l-2.73853-7.33924s-2.24009-1.51325-1.63717.6288,2.13634,7.19869,2.13634,7.19869Z"/><path class="cls-37" d="M62.58861,67.84418c-4.29443-4.24542-9.72089-9.63025-11.46619-11.4541a16.60006,16.60006,0,0,1-2.54547,5.96167v3.95612H45.08306A95.30272,95.30272,0,0,0,65.37627,77.39771l3.89325,1.21259,2.90381-3.94092S65.7434,70.96162,62.58861,67.84418Z"/><path class="cls-14" d="M65.37628,76.63984l2.90382-3.9409s-2.53669-2.49521-5.69149-5.61266c-4.72078-4.66686-10.825-10.72547-11.88491-11.89944a1.55619,1.55619,0,0,1-.15764-.18668c-.307-.5455,1.90408-3.97823,1.96837-4.07778l.00208-.00208c-.82966-.20742-10.78561-2.07416-10.78561-3.52607a38.46944,38.46944,0,0,0-1.52969,4.07054,40.43493,40.43493,0,0,0-1.37413,6.09283c-.474,4.08431,10.12444,12.23276,26.5492,19.08224"/><path class="cls-14" d="M65.37628,76.63984l2.90382-3.9409L75.33223,71.247s3.9409,7.05214,2.90382,7.8818S72.01358,80.78815,65.37628,76.63984Z"/><path class="cls-38" d="M157.44225,11.25721a24.51278,24.51278,0,0,1-.51355,5.26733,58.43529,58.43529,0,0,1-1.45648,5.6922c.07641.575.131,1.15631.15735,1.74378a15.02764,15.02764,0,0,1-.41987,4.18048v.00012l-.00006.00043-.00006.00036V28.142l-.00006.00042a17.31713,17.31713,0,0,1-5.83575,10.61719h0l-.00013.00012a14.01158,14.01158,0,0,0,3.157.37616,14.36852,14.36852,0,0,0,4.91156-27.87872Z"/><path class="cls-3" d="M138.14266,21.05244a14.3882,14.3882,0,1,0,14.388-14.38877A14.38822,14.38822,0,0,0,138.14266,21.05244Z"/><g class="cls-20"><rect class="cls-21" x="150.81795" y="27.78651" width="2.83064" height="1.68341"/><path class="cls-22" d="M151.85574,29.245a1.48883,1.48883,0,0,0,1.16552-1.21355.58872.58872,0,0,0-.02358-.24491h.65091v1.68341H150.818V29.2588A1.91517,1.91517,0,0,0,151.85574,29.245Z"/><ellipse class="cls-21" cx="146.45279" cy="22.38518" rx="1.30507" ry="1.26033"/><g class="cls-23"><path class="cls-21" d="M146.28436,21.68382a.52282.52282,0,0,0-.08706-.00325.72085.72085,0,0,0-.2315.04636.56219.56219,0,0,0-.27744.21238c-.01829.02766-.03212.05982-.04883.0911-.01179.03217-.02074.06632-.03049.10053l-.01058.10452c0,.03457.00241.06919.004.10335a.86192.86192,0,0,0,.04153.19688.83085.83085,0,0,0,.08053.177.647.647,0,0,0,.24491.24291.51439.51439,0,0,0,.12531.05208.64272.64272,0,0,0,.10252.01666c.05611.00162.08706.00042.08706.00042s-.02928-.01142-.07973-.03258c-.026-.00975-.05291-.02845-.08465-.04391a.78638.78638,0,0,1-.096-.072.58936.58936,0,0,1-.09194-.1021.77721.77721,0,0,1-.07732-.13181,1.03958,1.03958,0,0,1-.05532-.15376.761.761,0,0,1-.02929-.16763l-.00691-.08257.00691-.07936c.0065-.02441.01058-.04961.01629-.07482.01054-.02278.01708-.04719.02887-.06836a.5641.5641,0,0,1,.19325-.20341,1.2261,1.2261,0,0,1,.19446-.09928C146.25341,21.69319,146.28436,21.68382,146.28436,21.68382Z"/></g><path class="cls-22" d="M146.11631,22.44741a.21324.21324,0,1,0,.21117-.24449A.22876.22876,0,0,0,146.11631,22.44741Z"/><path class="cls-21" d="M159.139,22.38518a1.30546,1.30546,0,1,1-1.30428-1.26033A1.28355,1.28355,0,0,1,159.139,22.38518Z"/><g class="cls-23"><path class="cls-21" d="M158.00276,21.68382a.54631.54631,0,0,1,.08831-.00325.72456.72456,0,0,1,.23025.04636.56045.56045,0,0,1,.27744.21238,1.01551,1.01551,0,0,1,.04883.0911c.01137.03217.02116.06632.03049.10053l.01021.10452c0,.03457-.00246.06919-.00409.10335a.88279.88279,0,0,1-.0407.19688.86935.86935,0,0,1-.07973.177.65729.65729,0,0,1-.2457.24291.51985.51985,0,0,1-.1261.05208.62705.62705,0,0,1-.1009.01666c-.057.00162-.08831.00042-.08831.00042s.02891-.01142.07936-.03258c.026-.00975.05286-.02845.08544-.04391a.82.82,0,0,0,.096-.072.70587.70587,0,0,0,.168-.23391.99763.99763,0,0,0,.05657-.15376.78641.78641,0,0,0,.02929-.16763l.0057-.08257-.0057-.07936c-.00571-.02441-.011-.04961-.01708-.07482a.64136.64136,0,0,0-.0285-.06836.56434.56434,0,0,0-.19321-.20341,1.16377,1.16377,0,0,0-.19488-.09928C158.03409,21.69319,158.00276,21.68382,158.00276,21.68382Z"/></g><path class="cls-22" d="M158.17081,22.44741a.21378.21378,0,1,1-.21154-.24449A.22879.22879,0,0,1,158.17081,22.44741Z"/><path class="cls-21" d="M146.45279,20.72372c0,4.28181,2.008,7.28737,5.78046,7.28737,3.77083,0,5.77971-3.00556,5.77971-7.28737,0-4.28135-2.08537-7.75232-5.8574-7.75232C148.38515,12.9714,146.45279,16.44237,146.45279,20.72372Z"/><path class="cls-21" d="M153.59123,29.40039s3.59019.47432,4.8806,1.59147c1.31565,1.13786,1.70458,2.122,2.17811,4.37046H143.81577c.47353-2.24851.86246-3.2326,2.17769-4.37046,1.29087-1.11715,4.88144-1.59147,4.88144-1.59147Z"/><path class="cls-21" d="M154.67622,29.58506a8.45172,8.45172,0,0,1,3.79561,1.4068c1.31565,1.13786,1.70458,2.122,2.17811,4.37046H143.81577c.47353-2.24851.856-3.24031,2.17769-4.37046a9.3565,9.3565,0,0,1,3.54221-1.35514l1.33923-.23633h2.71633Z"/><path class="cls-21" d="M152.90491,31.58662a.22681.22681,0,0,0-.048-.048.66039.66039,0,0,1,.048.048l.463,3.7757H151.097l.46257-3.7757-.31285-1.29774a.58217.58217,0,0,1-.03012-.61471.67907.67907,0,0,1,.42308-.31531,3.37978,3.37978,0,0,1,.86245-.03008.7483.7483,0,0,1,.6672.2457.56963.56963,0,0,1,.048.7144Z"/><path class="cls-22" d="M152.957,31.38566s-.94056-.43979-1.39293.201a1.49781,1.49781,0,0,1,1.34415,0Z"/><path class="cls-21" d="M154.67622,29.58506a8.45172,8.45172,0,0,1,3.79561,1.4068c1.31565,1.13786,1.70458,2.122,2.17811,4.37046H143.81577c.47353-2.24851.856-3.24031,2.17769-4.37046a9.3565,9.3565,0,0,1,3.54221-1.35514l2.69758,5.5718Z"/><path class="cls-21" d="M154.64243,29.62372l-2.40918,5.5848,2.56136-1.65575-.57605-.98939,2.86522-2.36686A8.24036,8.24036,0,0,0,154.64243,29.62372Z"/><path class="cls-21" d="M149.53567,29.63672l2.69679,5.5718-2.56174-1.65575.57685-.98939-2.86643-2.36686A5.97638,5.97638,0,0,1,149.53567,29.63672Z"/><polygon class="cls-22" points="155.18 29.633 153.011 31.144 153.193 30.389 155.18 29.633"/><polygon class="cls-22" points="149.081 29.66 151.456 31.175 151.249 30.295 149.081 29.66"/><polygon class="cls-21" points="153.649 28.902 155.18 29.633 153.368 30.715 152.101 29.317 153.649 28.902"/><path class="cls-22" d="M153.67055,29.43943a1.10584,1.10584,0,0,0-.80143-.32873l.77947-.20867,1.53128.731-1.36814.81651A.81346.81346,0,0,0,153.67055,29.43943Z"/><polygon class="cls-21" points="150.582 28.902 149.051 29.633 150.862 30.715 152.129 29.317 150.582 28.902"/><path class="cls-22" d="M150.56,29.43943a1.10146,1.10146,0,0,1,.80063-.32873l-.779-.20867-1.53044.731,1.36648.81651A.81479.81479,0,0,1,150.56,29.43943Z"/><path class="cls-21" d="M157.99505,21.7668l-.585.58543-.11268-4.71422a2.49337,2.49337,0,0,0-2.639-2.44822,6.62944,6.62944,0,0,1-4.85174.19242,2.31529,2.31529,0,0,0-2.7167,2.14065l.01949,4.92455-.62241-.76684-.03416-.64033a19.11528,19.11528,0,0,1,0-5.12918s.4894-3.37824,3.54258-3.95183c0,0,4.986-1.28312,7.08841,1.85588a6.36156,6.36156,0,0,1,1.18059,4.80374Z"/></g><path class="cls-24" d="M138.14266,21.05244a14.3882,14.3882,0,1,0,14.388-14.38877A14.38822,14.38822,0,0,0,138.14266,21.05244Z"/><g class="cls-39"><path class="cls-40" d="M69.62168,74.98253h52.56664A84.42046,84.42046,0,0,1,206.60878,159.403v.00017a84.42048,84.42048,0,0,1-84.42048,84.42048H69.6217a84.42048,84.42048,0,0,1-84.42048-84.42048V159.403A84.42046,84.42046,0,0,1,69.62168,74.98253Z" transform="translate(191.81 318.80618) rotate(-180)"/><path class="cls-41" d="M157.159,107.85815c-1.9673-3.68271-4.2902-6.80392-6.55-6.55-3.06281.34419-3.92263,6.6541-6.65889,6.65889-2.82383.00494-3.8828-6.71191-6.71192-6.71192-2.82983,0-3.89295,6.72012-6.71214,6.71214-2.81036-.008-3.88833-6.69216-6.65825-6.65825-2.64534.03239-3.53625,6.15043-6.18161,6.18161-2.75677.0325-3.80185-6.58636-6.61386-6.61386-2.93108-.02866-4.3451,7.1377-6.97116,6.97117-1.44585-.09169-2.4856-2.35724-3.12934-4.212"/><circle class="cls-41" cx="40.67493" cy="114.12243" r="14.31876"/><circle class="cls-41" cx="40.67493" cy="114.7145" r="5.9107"/></g><g class="cls-42"><path class="cls-43" d="M41.88694-144.706H133.6151a84.68329,84.68329,0,0,1,84.68329,84.68329v.00017a84.68331,84.68331,0,0,1-84.68331,84.68331H41.88694A84.68329,84.68329,0,0,1-42.79635-60.0225v-.00019A84.68329,84.68329,0,0,1,41.88694-144.706Z"/><g id="man"><path class="cls-44" d="M69.77307.36069c3.3558.81848,6.74314,1.59653,10.04579,2.61472,1.01267-12.861,1.79883-22.67047,1.79883-22.67047L52.14086-21.51838s.42133,7.7971,1.02587,18.43974C58.75878-2.24941,64.29293-.97581,69.77307.36069Z"/><path class="cls-45" d="M69.77307.36069c3.3558.81848,6.74314,1.59653,10.04579,2.61472,1.01267-12.861,1.79883-22.67047,1.79883-22.67047L52.14086-21.51838s.42133,7.7971,1.02587,18.43974C58.75878-2.24941,64.29293-.97581,69.77307.36069Z"/><path class="cls-46" d="M44.18811-3.96711c8.48307.36478,16.8292,2.20087,25.05469,4.19923C73.72837-10.43193,76.8-18.132,76.8-18.132L46.45308-26.72813S45.02041-14.355,44.75986-8.10326a28.53819,28.53819,0,0,1-.573,4.13605Z"/><path class="cls-47" d="M21.85592-22.53743H33.81785a6.53183,6.53183,0,0,1,6.53183,6.53183V11.59725A6.53163,6.53163,0,0,1,33.818,18.12888H21.85585a6.53162,6.53162,0,0,1-6.53162-6.53162v-27.603a6.53168,6.53168,0,0,1,6.53168-6.53168Z" transform="translate(26.09199 25.66524) rotate(-81.88975)"/><path class="cls-46" d="M44.80884-9.11437v-.0015a6.58,6.58,0,0,0-4.5272-3.95427H40.28l-.00486-.00169c-.206-.04993-.41521-.09181-.6309-.12229L34.203-13.96826l.36369-2.55579a2.14577,2.14577,0,0,0-.412-1.60286,2.15158,2.15158,0,0,0-1.4243-.84333l-1.41944-.2029-5.7134-.81434-1.03-.14641a2.16564,2.16564,0,0,0-2.4463,1.83645l-.36369,2.55558-9.39242-1.339A6.57705,6.57705,0,0,0,4.94889-11.5155L3.24288.46475a6.57459,6.57459,0,0,0,5.5653,7.41456l27.27775,3.88825a6.41045,6.41045,0,0,0,1.42261.04507h.00488a6.44869,6.44869,0,0,0,2.12925-.53738,6.56917,6.56917,0,0,0,3.8594-5.07457L45.20955-5.7781A6.49912,6.49912,0,0,0,44.80884-9.11437ZM23.46334-18.106a.80936.80936,0,0,1,.67122-.68234.81937.81937,0,0,1,.243-.00338l1.21345.17221,4.49665.64213,2.45118.34931a.8084.8084,0,0,1,.68559.9125l-.3638,2.5558-9.761-1.39215Z"/></g><path class="cls-45" d="M184.03762-12.39732c0,1.04887-.043,2.08914-.12894,3.11509a37.24555,37.24555,0,0,1-3.9347,13.8789,37.616,37.616,0,0,1-6.91509,9.51148,37.44019,37.44019,0,0,1-19.75661,10.37408c-.19486.03439-.39258.06878-.5875.10029a37.66129,37.66129,0,0,1-6.1614.50438H27.0223A37.315,37.315,0,0,1,7.00206,19.29805,37.61144,37.61144,0,0,1-7.65634,1.85413a37.35246,37.35246,0,0,1-2.80558-14.25145.63828.63828,0,0,1,.17194-.4356.07584.07584,0,0,1,.01432-.01719.637.637,0,0,1,.44993-.18628H183.39856a.63511.63511,0,0,1,.33531.09457A.64028.64028,0,0,1,184.03762-12.39732Z"/><rect class="cls-43" x="45.84766" y="-2.86069" width="32.65918" height="20.49061"/><path class="cls-48" d="M16.02755,1.59532V19.03923H7.138A37.61158,37.61158,0,0,1-7.52045,1.59532Z"/><path class="cls-46" d="M153.43817,4.33786V24.22341c-.19485.03439-.39257.06878-.58749.1003a37.6624,37.6624,0,0,1-6.1614.50437H120.77991V4.33786Z"/><path class="cls-48" d="M180.10988,4.33786a37.616,37.616,0,0,1-6.9151,9.51147,37.44009,37.44009,0,0,1-19.75661,10.37408c-.19485.03439-.39257.06878-.58749.1003V4.33786Z"/><rect class="cls-43" x="143.72714" y="-9.54121" width="22.1207" height="13.87869"/><path class="cls-49" d="M184.04457-9.541a37.24583,37.24583,0,0,1-3.93469,13.87891H165.89852V-9.541Z"/></g></g></g></svg>